Questrial-Regular.ufo
<glyph name="exclam" format="2">
  <advance width="221"/>
  <unicode hex="0021"/>
  <outline>
    <contour>
      <point x="83" y="183" type="line"/>
      <point x="138" y="183" type="line"/>
      <point x="157" y="662" type="line"/>
      <point x="64" y="662" type="line"/>
    </contour>
    <contour>
      <point x="62" y="0" type="line"/>
      <point x="159" y="0" type="line"/>
      <point x="159" y="102" type="line"/>
      <point x="62" y="102" type="line"/>
    </contour>
  </outline>
</glyph>
<glyph name="quotedbl" format="2">
  <advance width="317"/>
  <unicode hex="0022"/>
  <outline>
    <contour>
      <point x="66" y="443" type="line"/>
      <point x="117" y="443" type="line"/>
      <point x="136" y="662" type="line"/>
      <point x="47" y="662" type="line"/>
    </contour>
    <contour>
      <point x="200" y="443" type="line"/>
      <point x="251" y="443" type="line"/>
      <point x="270" y="662" type="line"/>
      <point x="181" y="662" type="line"/>
    </contour>
  </outline>
</glyph>
<glyph name="numbersign" format="2">
  <advance width="581"/>
  <unicode hex="0023"/>
  <outline>
    <contour>
      <point x="128" y="25" type="line"/>
      <point x="193" y="25" type="line"/>
      <point x="213" y="168" type="line"/>
      <point x="329" y="168" type="line"/>
      <point x="309" y="25" type="line"/>
      <point x="374" y="25" type="line"/>
      <point x="394" y="168" type="line"/>
      <point x="506" y="168" type="line"/>
      <point x="506" y="233" type="line"/>
      <point x="403" y="233" type="line"/>
      <point x="423" y="377" type="line"/>
      <point x="536" y="377" type="line"/>
      <point x="536" y="442" type="line"/>
      <point x="432" y="442" type="line"/>
      <point x="453" y="585" type="line"/>
      <point x="388" y="585" type="line"/>
      <point x="367" y="442" type="line"/>
      <point x="251" y="442" type="line"/>
      <point x="272" y="585" type="line"/>
      <point x="207" y="585" type="line"/>
      <point x="186" y="442" type="line"/>
      <point x="75" y="442" type="line"/>
      <point x="75" y="377" type="line"/>
      <point x="177" y="377" type="line"/>
      <point x="157" y="233" type="line"/>
      <point x="45" y="233" type="line"/>
      <point x="45" y="168" type="line"/>
      <point x="148" y="168" type="line"/>
    </contour>
    <contour>
      <point x="222" y="233" type="line"/>
      <point x="242" y="377" type="line"/>
      <point x="358" y="377" type="line"/>
      <point x="338" y="233" type="line"/>
    </contour>
  </outline>
</glyph>
<glyph name="ampersand" format="2">
  <advance width="580"/>
  <unicode hex="0026"/>
  <outline>
    <contour>
      <point x="269" y="-8" type="curve" smooth="yes"/>
      <point x="410" y="-8"/>
      <point x="495" y="71"/>
      <point x="495" y="184" type="curve" smooth="yes"/>
      <point x="495" y="311" type="line"/>
      <point x="560" y="311" type="line"/>
      <point x="560" y="378" type="line"/>
      <point x="495" y="378" type="line"/>
      <point x="495" y="422" type="line"/>
      <point x="425" y="422" type="line"/>
      <point x="425" y="378" type="line"/>
      <point x="264" y="378" type="line" smooth="yes"/>
      <point x="195" y="378"/>
      <point x="134" y="413"/>
      <point x="134" y="488" type="curve" smooth="yes"/>
      <point x="134" y="551"/>
      <point x="178" y="602"/>
      <point x="277" y="602" type="curve" smooth="yes"/>
      <point x="355" y="602"/>
      <point x="400" y="564"/>
      <point x="410" y="532" type="curve"/>
      <point x="489" y="532" type="line"/>
      <point x="475" y="600"/>
      <point x="415" y="670"/>
      <point x="279" y="670" type="curve" smooth="yes"/>
      <point x="135" y="670"/>
      <point x="59" y="592"/>
      <point x="59" y="489" type="curve" smooth="yes"/>
      <point x="59" y="423"/>
      <point x="114" y="364"/>
      <point x="159" y="350" type="curve"/>
      <point x="82" y="321"/>
      <point x="37" y="261"/>
      <point x="37" y="190" type="curve" smooth="yes"/>
      <point x="37" y="72"/>
      <point x="144" y="-8"/>
    </contour>
    <contour>
      <point x="269" y="59" type="curve" smooth="yes"/>
      <point x="175" y="59"/>
      <point x="112" y="120"/>
      <point x="112" y="188" type="curve" smooth="yes"/>
      <point x="112" y="255"/>
      <point x="171" y="311"/>
      <point x="255" y="311" type="curve" smooth="yes"/>
      <point x="425" y="311" type="line"/>
      <point x="425" y="178" type="line" smooth="yes"/>
      <point x="425" y="116"/>
      <point x="374" y="59"/>
    </contour>
  </outline>
</glyph>
<glyph name="parenright" format="2">
  <advance width="245"/>
  <unicode hex="0029"/>
  <outline>
    <contour>
      <point x="14" y="-138" type="curve"/>
      <point x="82" y="-138" type="line"/>
      <point x="166" y="-8"/>
      <point x="210" y="131"/>
      <point x="210" y="281" type="curve" smooth="yes"/>
      <point x="210" y="429"/>
      <point x="166" y="570"/>
      <point x="82" y="700" type="curve"/>
      <point x="14" y="700" type="line"/>
      <point x="90" y="578"/>
      <point x="134" y="434"/>
      <point x="134" y="281" type="curve" smooth="yes"/>
      <point x="134" y="127"/>
      <point x="90" y="-17"/>
    </contour>
  </outline>
</glyph>
<glyph name="plus" format="2">
  <advance width="550"/>
  <unicode hex="002B"/>
  <outline>
    <contour>
      <point x="242" y="0" type="line"/>
      <point x="307" y="0" type="line"/>
      <point x="307" y="203" type="line"/>
      <point x="500" y="203" type="line"/>
      <point x="500" y="268" type="line"/>
      <point x="307" y="268" type="line"/>
      <point x="307" y="471" type="line"/>
      <point x="242" y="471" type="line"/>
      <point x="242" y="268" type="line"/>
      <point x="50" y="268" type="line"/>
      <point x="50" y="203" type="line"/>
      <point x="242" y="203" type="line"/>
    </contour>
  </outline>
</glyph>
<glyph name="comma" format="2">
  <advance width="220"/>
  <unicode hex="002C"/>
  <outline>
    <contour>
      <point x="11" y="-111" type="line"/>
      <point x="79" y="-111" type="line"/>
      <point x="167" y="102" type="line"/>
      <point x="69" y="102" type="line"/>
    </contour>
  </outline>
</glyph>
<glyph name="hyphen" format="2">
  <advance width="360"/>
  <unicode hex="002D"/>
  <outline>
    <contour>
      <point x="55" y="259" type="line"/>
      <point x="305" y="259" type="line"/>
      <point x="305" y="332" type="line"/>
      <point x="55" y="332" type="line"/>
    </contour>
  </outline>
</glyph>
<glyph name="one" format="2">
  <advance width="550"/>
  <unicode hex="0031"/>
  <outline>
    <contour>
      <point x="275" y="0" type="line"/>
      <point x="350" y="0" type="line"/>
      <point x="350" y="662" type="line"/>
      <point x="135" y="662" type="line"/>
      <point x="135" y="590" type="line"/>
      <point x="275" y="590" type="line"/>
    </contour>
  </outline>
</glyph>
<glyph name="three" format="2">
  <advance width="550"/>
  <unicode hex="0033"/>
  <outline>
    <contour>
      <point x="277" y="-8" type="curve" smooth="yes"/>
      <point x="402" y="-8"/>
      <point x="502" y="72"/>
      <point x="502" y="190" type="curve" smooth="yes"/>
      <point x="502" y="261"/>
      <point x="457" y="324"/>
      <point x="380" y="353" type="curve"/>
      <point x="425" y="367"/>
      <point x="480" y="428"/>
      <point x="480" y="494" type="curve" smooth="yes"/>
      <point x="480" y="597"/>
      <point x="401" y="670"/>
      <point x="271" y="670" type="curve" smooth="yes"/>
      <point x="142" y="670"/>
      <point x="68" y="584"/>
      <point x="59" y="503" type="curve"/>
      <point x="132" y="503" type="line"/>
      <point x="141" y="554"/>
      <point x="192" y="597"/>
      <point x="273" y="597" type="curve" smooth="yes"/>
      <point x="360" y="597"/>
      <point x="405" y="554"/>
      <point x="405" y="491" type="curve" smooth="yes"/>
      <point x="405" y="427"/>
      <point x="344" y="383"/>
      <point x="275" y="383" type="curve" smooth="yes"/>
      <point x="208" y="383" type="line"/>
      <point x="208" y="314" type="line"/>
      <point x="284" y="314" type="line" smooth="yes"/>
      <point x="368" y="314"/>
      <point x="427" y="255"/>
      <point x="427" y="188" type="curve" smooth="yes"/>
      <point x="427" y="120"/>
      <point x="371" y="65"/>
      <point x="277" y="65" type="curve" smooth="yes"/>
      <point x="197" y="65"/>
      <point x="127" y="113"/>
      <point x="117" y="175" type="curve"/>
      <point x="41" y="175" type="line"/>
      <point x="51" y="72"/>
      <point x="153" y="-8"/>
    </contour>
  </outline>
</glyph>
<glyph name="nine" format="2">
  <advance width="550"/>
  <unicode hex="0039"/>
  <outline>
    <contour>
      <point x="256" y="-8" type="curve" smooth="yes"/>
      <point x="423" y="-8"/>
      <point x="507" y="122"/>
      <point x="507" y="331" type="curve" smooth="yes"/>
      <point x="507" y="548"/>
      <point x="423" y="670"/>
      <point x="262" y="670" type="curve" smooth="yes"/>
      <point x="137" y="670"/>
      <point x="34" y="579"/>
      <point x="34" y="455" type="curve" smooth="yes"/>
      <point x="34" y="329"/>
      <point x="134" y="240"/>
      <point x="259" y="240" type="curve" smooth="yes"/>
      <point x="333" y="240"/>
      <point x="400" y="279"/>
      <point x="432" y="334" type="curve"/>
      <point x="432" y="184"/>
      <point x="379" y="65"/>
      <point x="256" y="65" type="curve" smooth="yes"/>
      <point x="181" y="65"/>
      <point x="151" y="111"/>
      <point x="137" y="154" type="curve"/>
      <point x="53" y="154" type="line"/>
      <point x="70" y="75"/>
      <point x="129" y="-8"/>
    </contour>
    <contour>
      <point x="262" y="311" type="curve" smooth="yes"/>
      <point x="178" y="311"/>
      <point x="109" y="373"/>
      <point x="109" y="455" type="curve" smooth="yes"/>
      <point x="109" y="538"/>
      <point x="178" y="597"/>
      <point x="262" y="597" type="curve" smooth="yes"/>
      <point x="348" y="597"/>
      <point x="415" y="538"/>
      <point x="415" y="450" type="curve" smooth="yes"/>
      <point x="415" y="368"/>
      <point x="346" y="311"/>
    </contour>
  </outline>
</glyph>
<glyph name="semicolon" format="2">
  <advance width="245"/>
  <unicode hex="003B"/>
  <outline>
    <contour>
      <point x="80" y="398" type="line"/>
      <point x="177" y="398" type="line"/>
      <point x="177" y="500" type="line"/>
      <point x="80" y="500" type="line"/>
    </contour>
    <contour>
      <point x="25" y="-133" type="line"/>
      <point x="93" y="-133" type="line"/>
      <point x="181" y="80" type="line"/>
      <point x="83" y="80" type="line"/>
    </contour>
  </outline>
</glyph>
<glyph name="greater" format="2">
  <advance width="550"/>
  <unicode hex="003E"/>
  <outline>
    <contour>
      <point x="42" y="8" type="line"/>
      <point x="523" y="220" type="line"/>
      <point x="523" y="283" type="line"/>
      <point x="42" y="496" type="line"/>
      <point x="42" y="418" type="line"/>
      <point x="447" y="252" type="line"/>
      <point x="42" y="86" type="line"/>
    </contour>
  </outline>
</glyph>
<glyph name="at" format="2">
  <advance width="852"/>
  <unicode hex="0040"/>
  <outline>
    <contour>
      <point x="392" y="-100" type="curve" smooth="yes"/>
      <point x="477" y="-100"/>
      <point x="564" y="-75"/>
      <point x="634" y="-19" type="curve"/>
      <point x="612" y="11" type="line"/>
      <point x="551" y="-39"/>
      <point x="484" y="-63"/>
      <point x="392" y="-63" type="curve" smooth="yes"/>
      <point x="222" y="-63"/>
      <point x="87" y="67"/>
      <point x="87" y="239" type="curve" smooth="yes"/>
      <point x="87" y="444"/>
      <point x="267" y="619"/>
      <point x="468" y="619" type="curve" smooth="yes"/>
      <point x="638" y="619"/>
      <point x="773" y="487"/>
      <point x="773" y="314" type="curve" smooth="yes"/>
      <point x="773" y="178"/>
      <point x="723" y="118"/>
      <point x="649" y="118" type="curve" smooth="yes"/>
      <point x="602" y="118"/>
      <point x="596" y="152"/>
      <point x="596" y="171" type="curve" smooth="yes"/>
      <point x="596" y="179"/>
      <point x="597" y="184"/>
      <point x="597" y="184" type="curve"/>
      <point x="644" y="476" type="line"/>
      <point x="584" y="476" type="line"/>
      <point x="574" y="412" type="line"/>
      <point x="551" y="455"/>
      <point x="509" y="482"/>
      <point x="443" y="482" type="curve" smooth="yes"/>
      <point x="316" y="482"/>
      <point x="216" y="384"/>
      <point x="216" y="239" type="curve" smooth="yes"/>
      <point x="216" y="145"/>
      <point x="273" y="73"/>
      <point x="386" y="73" type="curve" smooth="yes"/>
      <point x="451" y="73"/>
      <point x="496" y="100"/>
      <point x="531" y="143" type="curve"/>
      <point x="531" y="143"/>
      <point x="534" y="73"/>
      <point x="624" y="73" type="curve" smooth="yes"/>
      <point x="718" y="73"/>
      <point x="810" y="148"/>
      <point x="810" y="318" type="curve" smooth="yes"/>
      <point x="810" y="509"/>
      <point x="650" y="656"/>
      <point x="468" y="656" type="curve" smooth="yes"/>
      <point x="243" y="656"/>
      <point x="50" y="458"/>
      <point x="50" y="239" type="curve" smooth="yes"/>
      <point x="50" y="55"/>
      <point x="192" y="-100"/>
    </contour>
    <contour>
      <point x="402" y="127" type="curve" smooth="yes"/>
      <point x="317" y="127"/>
      <point x="276" y="177"/>
      <point x="276" y="245" type="curve" smooth="yes"/>
      <point x="276" y="356"/>
      <point x="345" y="429"/>
      <point x="443" y="429" type="curve" smooth="yes"/>
      <point x="519" y="429"/>
      <point x="558" y="375"/>
      <point x="558" y="308" type="curve" smooth="yes"/>
      <point x="558" y="214"/>
      <point x="500" y="127"/>
    </contour>
  </outline>
</glyph>
<glyph name="E" format="2">
  <advance width="608"/>
  <unicode hex="0045"/>
  <anchor x="344" y="0" name="bottom"/>
  <anchor x="578" y="2" name="ogonek"/>
  <anchor x="334" y="662" name="top"/>
  <anchor x="20" y="662" name="topleft"/>
  <outline>
    <contour>
      <point x="81" y="0" type="line"/>
      <point x="568" y="0" type="line"/>
      <point x="568" y="72" type="line"/>
      <point x="156" y="72" type="line"/>
      <point x="156" y="295" type="line"/>
      <point x="524" y="295" type="line"/>
      <point x="524" y="368" type="line"/>
      <point x="156" y="368" type="line"/>
      <point x="156" y="590" type="line"/>
      <point x="568" y="590" type="line"/>
      <point x="568" y="662" type="line"/>
      <point x="81" y="662" type="line"/>
    </contour>
  </outline>
</glyph>
<glyph name="F" format="2">
  <advance width="583"/>
  <unicode hex="0046"/>
  <anchor x="292" y="0" name="bottom"/>
  <anchor x="292" y="662" name="top"/>
  <outline>
    <contour>
      <point x="81" y="0" type="line"/>
      <point x="156" y="0" type="line"/>
      <point x="156" y="287" type="line"/>
      <point x="515" y="287" type="line"/>
      <point x="515" y="360" type="line"/>
      <point x="156" y="360" type="line"/>
      <point x="156" y="590" type="line"/>
      <point x="559" y="590" type="line"/>
      <point x="559" y="662" type="line"/>
      <point x="81" y="662" type="line"/>
    </contour>
  </outline>
</glyph>
<glyph name="G" format="2">
  <advance width="723"/>
  <unicode hex="0047"/>
  <anchor x="362" y="0" name="bottom"/>
  <anchor x="362" y="662" name="top"/>
  <outline>
    <contour>
      <point x="363" y="-8" type="curve" smooth="yes"/>
      <point x="483" y="-8"/>
      <point x="561" y="53"/>
      <point x="603" y="117" type="curve"/>
      <point x="603" y="0" type="line"/>
      <point x="672" y="0" type="line"/>
      <point x="672" y="352" type="line"/>
      <point x="361" y="352" type="line"/>
      <point x="361" y="284" type="line"/>
      <point x="603" y="284" type="line"/>
      <point x="603" y="146"/>
      <point x="489" y="65"/>
      <point x="369" y="65" type="curve" smooth="yes"/>
      <point x="208" y="65"/>
      <point x="114" y="182"/>
      <point x="114" y="331" type="curve" smooth="yes"/>
      <point x="114" y="480"/>
      <point x="210" y="597"/>
      <point x="371" y="597" type="curve" smooth="yes"/>
      <point x="472" y="597"/>
      <point x="544" y="553"/>
      <point x="584" y="482" type="curve"/>
      <point x="666" y="482" type="line"/>
      <point x="617" y="593"/>
      <point x="507" y="670"/>
      <point x="365" y="670" type="curve" smooth="yes"/>
      <point x="166" y="670"/>
      <point x="39" y="519"/>
      <point x="39" y="331" type="curve" smooth="yes"/>
      <point x="39" y="143"/>
      <point x="161" y="-8"/>
    </contour>
  </outline>
</glyph>
<glyph name="L" format="2">
  <advance width="533"/>
  <unicode hex="004C"/>
  <anchor x="287" y="0" name="bottom"/>
  <anchor x="267" y="331" name="center"/>
  <anchor x="119" y="662" name="top"/>
  <anchor x="406" y="464" name="topright"/>
  <outline>
    <contour>
      <point x="81" y="0" type="line"/>
      <point x="517" y="0" type="line"/>
      <point x="517" y="72" type="line"/>
      <point x="156" y="72" type="line"/>
      <point x="156" y="662" type="line"/>
      <point x="81" y="662" type="line"/>
    </contour>
  </outline>
</glyph>
<glyph name="M" format="2">
  <advance width="806"/>
  <unicode hex="004D"/>
  <anchor x="403" y="0" name="bottom"/>
  <anchor x="403" y="662" name="top"/>
  <outline>
    <contour>
      <point x="81" y="0" type="line"/>
      <point x="156" y="0" type="line"/>
      <point x="156" y="548" type="line"/>
      <point x="405" y="233" type="line"/>
      <point x="650" y="548" type="line"/>
      <point x="650" y="0" type="line"/>
      <point x="725" y="0" type="line"/>
      <point x="725" y="662" type="line"/>
      <point x="638" y="662" type="line"/>
      <point x="405" y="348" type="line"/>
      <point x="168" y="662" type="line"/>
      <point x="81" y="662" type="line"/>
    </contour>
  </outline>
</glyph>
<glyph name="Q" format="2">
  <advance width="750"/>
  <unicode hex="0051"/>
  <anchor x="375" y="0" name="bottom"/>
  <anchor x="375" y="662" name="top"/>
  <outline>
    <contour>
      <point x="596" y="-157" type="curve" smooth="yes"/>
      <point x="660" y="-157"/>
      <point x="711" y="-139"/>
      <point x="758" y="-102" type="curve"/>
      <point x="718" y="-48" type="line"/>
      <point x="683" y="-76"/>
      <point x="645" y="-93"/>
      <point x="597" y="-93" type="curve" smooth="yes"/>
      <point x="505" y="-93"/>
      <point x="457" y="-39"/>
      <point x="437" y="-2" type="curve"/>
      <point x="601" y="25"/>
      <point x="711" y="163"/>
      <point x="711" y="331" type="curve" smooth="yes"/>
      <point x="711" y="519"/>
      <point x="576" y="670"/>
      <point x="375" y="670" type="curve" smooth="yes"/>
      <point x="174" y="670"/>
      <point x="39" y="519"/>
      <point x="39" y="331" type="curve" smooth="yes"/>
      <point x="39" y="147"/>
      <point x="168" y="0"/>
      <point x="361" y="-7" type="curve"/>
      <point x="404" y="-96"/>
      <point x="497" y="-157"/>
    </contour>
    <contour>
      <point x="375" y="65" type="curve" smooth="yes"/>
      <point x="214" y="65"/>
      <point x="114" y="182"/>
      <point x="114" y="331" type="curve" smooth="yes"/>
      <point x="114" y="480"/>
      <point x="214" y="597"/>
      <point x="375" y="597" type="curve" smooth="yes"/>
      <point x="536" y="597"/>
      <point x="636" y="480"/>
      <point x="636" y="331" type="curve" smooth="yes"/>
      <point x="636" y="182"/>
      <point x="536" y="65"/>
    </contour>
  </outline>
</glyph>
<glyph name="T" format="2">
  <advance width="565"/>
  <unicode hex="0054"/>
  <anchor x="283" y="0" name="bottom"/>
  <anchor x="283" y="331" name="center"/>
  <anchor x="283" y="662" name="top"/>
  <outline>
    <contour>
      <point x="245" y="0" type="line"/>
      <point x="320" y="0" type="line"/>
      <point x="320" y="591" type="line"/>
      <point x="551" y="591" type="line"/>
      <point x="551" y="662" type="line"/>
      <point x="14" y="662" type="line"/>
      <point x="14" y="591" type="line"/>
      <point x="245" y="591" type="line"/>
    </contour>
  </outline>
</glyph>
<glyph name="U" format="2">
  <advance width="709"/>
  <unicode hex="0055"/>
  <anchor x="355" y="0" name="bottom"/>
  <anchor x="434" y="10" name="ogonek"/>
  <anchor x="355" y="662" name="top"/>
  <anchor x="689" y="662" name="topright"/>
  <outline>
    <contour>
      <point x="354" y="-8" type="curve" smooth="yes"/>
      <point x="520" y="-8"/>
      <point x="636" y="110"/>
      <point x="636" y="285" type="curve" smooth="yes"/>
      <point x="636" y="662" type="line"/>
      <point x="561" y="662" type="line"/>
      <point x="561" y="283" type="line" smooth="yes"/>
      <point x="561" y="129"/>
      <point x="459" y="65"/>
      <point x="354" y="65" type="curve" smooth="yes"/>
      <point x="249" y="65"/>
      <point x="148" y="129"/>
      <point x="148" y="283" type="curve" smooth="yes"/>
      <point x="148" y="662" type="line"/>
      <point x="73" y="662" type="line"/>
      <point x="73" y="285" type="line" smooth="yes"/>
      <point x="73" y="109"/>
      <point x="189" y="-8"/>
    </contour>
  </outline>
</glyph>
<glyph name="V" format="2">
  <advance width="628"/>
  <unicode hex="0056"/>
  <anchor x="314" y="0" name="bottom"/>
  <anchor x="314" y="662" name="top"/>
  <outline>
    <contour>
      <point x="271" y="0" type="line"/>
      <point x="357" y="0" type="line"/>
      <point x="625" y="662" type="line"/>
      <point x="543" y="662" type="line"/>
      <point x="314" y="85" type="line"/>
      <point x="85" y="662" type="line"/>
      <point x="3" y="662" type="line"/>
    </contour>
  </outline>
</glyph>
<glyph name="X" format="2">
  <advance width="613"/>
  <unicode hex="0058"/>
  <anchor x="307" y="0" name="bottom"/>
  <anchor x="307" y="662" name="top"/>
  <outline>
    <contour>
      <point x="-3" y="0" type="line"/>
      <point x="92" y="0" type="line"/>
      <point x="306" y="284" type="line"/>
      <point x="521" y="0" type="line"/>
      <point x="616" y="0" type="line"/>
      <point x="352" y="342" type="line"/>
      <point x="598" y="662" type="line"/>
      <point x="503" y="662" type="line"/>
      <point x="306" y="402" type="line"/>
      <point x="110" y="662" type="line"/>
      <point x="15" y="662" type="line"/>
      <point x="261" y="342" type="line"/>
    </contour>
  </outline>
</glyph>
<glyph name="Z" format="2">
  <advance width="584"/>
  <unicode hex="005A"/>
  <anchor x="292" y="0" name="bottom"/>
  <anchor x="292" y="331" name="center"/>
  <anchor x="292" y="662" name="top"/>
  <outline>
    <contour>
      <point x="29" y="0" type="line"/>
      <point x="553" y="0" type="line"/>
      <point x="553" y="70" type="line"/>
      <point x="121" y="70" type="line"/>
      <point x="553" y="590" type="line"/>
      <point x="553" y="662" type="line"/>
      <point x="35" y="662" type="line"/>
      <point x="35" y="592" type="line"/>
      <point x="461" y="592" type="line"/>
      <point x="29" y="71" type="line"/>
    </contour>
  </outline>
</glyph>
<glyph name="bracketleft" format="2">
  <advance width="280"/>
  <unicode hex="005B"/>
  <outline>
    <contour>
      <point x="66" y="-133" type="line"/>
      <point x="253" y="-133" type="line"/>
      <point x="253" y="-71" type="line"/>
      <point x="132" y="-71" type="line"/>
      <point x="132" y="617" type="line"/>
      <point x="253" y="617" type="line"/>
      <point x="253" y="679" type="line"/>
      <point x="66" y="679" type="line"/>
    </contour>
  </outline>
</glyph>
<glyph name="backslash" format="2">
  <advance width="371"/>
  <unicode hex="005C"/>
  <outline>
    <contour>
      <point x="265" y="-32" type="line"/>
      <point x="335" y="-32" type="line"/>
      <point x="106" y="680" type="line"/>
      <point x="36" y="680" type="line"/>
    </contour>
  </outline>
</glyph>
<glyph name="asciicircum" format="2">
  <advance width="509"/>
  <unicode hex="005E"/>
  <outline>
    <contour>
      <point x="75" y="355" type="line"/>
      <point x="145" y="355" type="line"/>
      <point x="255" y="570" type="line"/>
      <point x="364" y="355" type="line"/>
      <point x="434" y="355" type="line"/>
      <point x="285" y="668" type="line"/>
      <point x="224" y="668" type="line"/>
    </contour>
  </outline>
</glyph>
<glyph name="underscore" format="2">
  <advance width="600"/>
  <unicode hex="005F"/>
  <outline>
    <contour>
      <point x="50" y="-128" type="line"/>
      <point x="550" y="-128" type="line"/>
      <point x="550" y="-73" type="line"/>
      <point x="50" y="-73" type="line"/>
    </contour>
  </outline>
</glyph>
<glyph name="grave" format="2">
  <advance width="340"/>
  <unicode hex="0060"/>
  <outline>
    <contour>
      <point x="200" y="570" type="line"/>
      <point x="261" y="570" type="line"/>
      <point x="200" y="675" type="line"/>
      <point x="93" y="675" type="line"/>
    </contour>
  </outline>
</glyph>
<glyph name="d" format="2">
  <advance width="595"/>
  <unicode hex="0064"/>
  <anchor x="298" y="0" name="bottom"/>
  <anchor x="298" y="250" name="center"/>
  <anchor x="282" y="500" name="top"/>
  <anchor x="575" y="500" name="topright"/>
  <outline>
    <contour>
      <point x="276" y="-8" type="curve" smooth="yes"/>
      <point x="359" y="-8"/>
      <point x="418" y="26"/>
      <point x="455" y="80" type="curve"/>
      <point x="455" y="0" type="line"/>
      <point x="530" y="0" type="line"/>
      <point x="530" y="700" type="line"/>
      <point x="455" y="700" type="line"/>
      <point x="455" y="419" type="line"/>
      <point x="418" y="473"/>
      <point x="359" y="508"/>
      <point x="276" y="508" type="curve" smooth="yes"/>
      <point x="130" y="508"/>
      <point x="34" y="393"/>
      <point x="34" y="250" type="curve" smooth="yes"/>
      <point x="34" y="107"/>
      <point x="130" y="-8"/>
    </contour>
    <contour>
      <point x="286" y="60" type="curve" smooth="yes"/>
      <point x="175" y="60"/>
      <point x="109" y="147"/>
      <point x="109" y="250" type="curve" smooth="yes"/>
      <point x="109" y="353"/>
      <point x="175" y="440"/>
      <point x="286" y="440" type="curve" smooth="yes"/>
      <point x="397" y="440"/>
      <point x="459" y="353"/>
      <point x="459" y="250" type="curve" smooth="yes"/>
      <point x="459" y="147"/>
      <point x="397" y="60"/>
    </contour>
  </outline>
</glyph>
<glyph name="e" format="2">
  <advance width="557"/>
  <unicode hex="0065"/>
  <anchor x="279" y="0" name="bottom"/>
  <anchor x="399" y="0" name="ogonek"/>
  <anchor x="279" y="500" name="top"/>
  <outline>
    <contour>
      <point x="287" y="-8" type="curve" smooth="yes"/>
      <point x="406" y="-8"/>
      <point x="480" y="54"/>
      <point x="515" y="144" type="curve"/>
      <point x="433" y="144" type="line"/>
      <point x="406" y="94"/>
      <point x="358" y="60"/>
      <point x="288" y="60" type="curve" smooth="yes"/>
      <point x="187" y="60"/>
      <point x="122" y="131"/>
      <point x="111" y="220" type="curve"/>
      <point x="530" y="220" type="line"/>
      <point x="530" y="250" type="line" smooth="yes"/>
      <point x="530" y="393"/>
      <point x="435" y="508"/>
      <point x="282" y="508" type="curve" smooth="yes"/>
      <point x="129" y="508"/>
      <point x="34" y="393"/>
      <point x="34" y="250" type="curve" smooth="yes"/>
      <point x="34" y="107"/>
      <point x="134" y="-8"/>
    </contour>
    <contour>
      <point x="112" y="290" type="line"/>
      <point x="126" y="375"/>
      <point x="186" y="440"/>
      <point x="282" y="440" type="curve" smooth="yes"/>
      <point x="378" y="440"/>
      <point x="438" y="375"/>
      <point x="452" y="290" type="curve"/>
    </contour>
  </outline>
</glyph>
<glyph name="j" format="2">
  <advance width="205"/>
  <unicode hex="006A"/>
  <outline>
    <contour>
      <point x="62" y="584" type="line"/>
      <point x="143" y="584" type="line"/>
      <point x="143" y="682" type="line"/>
      <point x="62" y="682" type="line"/>
    </contour>
    <contour>
      <point x="65" y="-198" type="line"/>
      <point x="140" y="-198" type="line"/>
      <point x="140" y="500" type="line"/>
      <point x="65" y="500" type="line"/>
    </contour>
  </outline>
</glyph>
<glyph name="m" format="2">
  <advance width="868"/>
  <unicode hex="006D"/>
  <anchor x="434" y="0" name="bottom"/>
  <anchor x="434" y="500" name="top"/>
  <outline>
    <contour>
      <point x="65" y="0" type="line"/>
      <point x="140" y="0" type="line"/>
      <point x="140" y="299" type="line" smooth="yes"/>
      <point x="140" y="388"/>
      <point x="201" y="440"/>
      <point x="275" y="440" type="curve" smooth="yes"/>
      <point x="345" y="440"/>
      <point x="399" y="384"/>
      <point x="399" y="300" type="curve" smooth="yes"/>
      <point x="399" y="0" type="line"/>
      <point x="474" y="0" type="line"/>
      <point x="474" y="299" type="line" smooth="yes"/>
      <point x="474" y="388"/>
      <point x="535" y="440"/>
      <point x="609" y="440" type="curve" smooth="yes"/>
      <point x="679" y="440"/>
      <point x="733" y="384"/>
      <point x="733" y="300" type="curve" smooth="yes"/>
      <point x="733" y="0" type="line"/>
      <point x="808" y="0" type="line"/>
      <point x="808" y="302" type="line" smooth="yes"/>
      <point x="808" y="428"/>
      <point x="719" y="508"/>
      <point x="623" y="508" type="curve" smooth="yes"/>
      <point x="524" y="508"/>
      <point x="471" y="441"/>
      <point x="451" y="407" type="curve"/>
      <point x="419" y="471"/>
      <point x="358" y="508"/>
      <point x="292" y="508" type="curve" smooth="yes"/>
      <point x="211" y="508"/>
      <point x="163" y="464"/>
      <point x="140" y="424" type="curve"/>
      <point x="140" y="500" type="line"/>
      <point x="65" y="500" type="line"/>
    </contour>
  </outline>
</glyph>
<glyph name="q" format="2">
  <advance width="595"/>
  <unicode hex="0071"/>
  <anchor x="298" y="0" name="bottom"/>
  <anchor x="298" y="500" name="top"/>
  <outline>
    <contour>
      <point x="455" y="-198" type="line"/>
      <point x="530" y="-198" type="line"/>
      <point x="530" y="500" type="line"/>
      <point x="455" y="500" type="line"/>
      <point x="455" y="420" type="line"/>
      <point x="418" y="474"/>
      <point x="359" y="508"/>
      <point x="276" y="508" type="curve" smooth="yes"/>
      <point x="130" y="508"/>
      <point x="34" y="393"/>
      <point x="34" y="250" type="curve" smooth="yes"/>
      <point x="34" y="107"/>
      <point x="130" y="-8"/>
      <point x="276" y="-8" type="curve" smooth="yes"/>
      <point x="359" y="-8"/>
      <point x="418" y="27"/>
      <point x="455" y="81" type="curve"/>
    </contour>
    <contour>
      <point x="286" y="60" type="curve" smooth="yes"/>
      <point x="175" y="60"/>
      <point x="109" y="147"/>
      <point x="109" y="250" type="curve" smooth="yes"/>
      <point x="109" y="353"/>
      <point x="175" y="440"/>
      <point x="286" y="440" type="curve" smooth="yes"/>
      <point x="397" y="440"/>
      <point x="459" y="353"/>
      <point x="459" y="250" type="curve" smooth="yes"/>
      <point x="459" y="147"/>
      <point x="397" y="60"/>
    </contour>
  </outline>
</glyph>
<glyph name="r" format="2">
  <advance width="345"/>
  <unicode hex="0072"/>
  <anchor x="103" y="0" name="bottom"/>
  <anchor x="173" y="500" name="top"/>
  <outline>
    <contour>
      <point x="65" y="0" type="line"/>
      <point x="140" y="0" type="line"/>
      <point x="140" y="220" type="line" smooth="yes"/>
      <point x="140" y="330"/>
      <point x="208" y="433"/>
      <point x="320" y="433" type="curve" smooth="yes"/>
      <point x="329" y="433" type="line"/>
      <point x="329" y="508" type="line"/>
      <point x="324" y="508" type="line" smooth="yes"/>
      <point x="200" y="508"/>
      <point x="150" y="411"/>
      <point x="140" y="377" type="curve"/>
      <point x="140" y="500" type="line"/>
      <point x="65" y="500" type="line"/>
    </contour>
  </outline>
</glyph>
<glyph name="s" format="2">
  <advance width="482"/>
  <unicode hex="0073"/>
  <anchor x="241" y="0" name="bottom"/>
  <anchor x="241" y="500" name="top"/>
  <outline>
    <contour>
      <point x="247" y="-8" type="curve" smooth="yes"/>
      <point x="371" y="-8"/>
      <point x="451" y="45"/>
      <point x="451" y="142" type="curve" smooth="yes"/>
      <point x="451" y="330"/>
      <point x="118" y="252"/>
      <point x="118" y="372" type="curve" smooth="yes"/>
      <point x="118" y="421"/>
      <point x="159" y="444"/>
      <point x="237" y="444" type="curve" smooth="yes"/>
      <point x="321" y="444"/>
      <point x="353" y="409"/>
      <point x="359" y="366" type="curve"/>
      <point x="435" y="366" type="line"/>
      <point x="426" y="439"/>
      <point x="371" y="508"/>
      <point x="239" y="508" type="curve" smooth="yes"/>
      <point x="110" y="508"/>
      <point x="43" y="455"/>
      <point x="43" y="365" type="curve" smooth="yes"/>
      <point x="43" y="182"/>
      <point x="376" y="260"/>
      <point x="376" y="135" type="curve" smooth="yes"/>
      <point x="376" y="67"/>
      <point x="289" y="56"/>
      <point x="248" y="56" type="curve" smooth="yes"/>
      <point x="151" y="56"/>
      <point x="113" y="106"/>
      <point x="108" y="157" type="curve"/>
      <point x="30" y="157" type="line"/>
      <point x="35" y="69"/>
      <point x="108" y="-8"/>
    </contour>
  </outline>
</glyph>
<glyph name="v" format="2">
  <advance width="489"/>
  <unicode hex="0076"/>
  <anchor x="245" y="0" name="bottom"/>
  <anchor x="245" y="500" name="top"/>
  <outline>
    <contour>
      <point x="201" y="0" type="line"/>
      <point x="289" y="0" type="line"/>
      <point x="484" y="500" type="line"/>
      <point x="402" y="500" type="line"/>
      <point x="245" y="80" type="line"/>
      <point x="87" y="500" type="line"/>
      <point x="5" y="500" type="line"/>
    </contour>
  </outline>
</glyph>
<glyph name="w" format="2">
  <advance width="746"/>
  <unicode hex="0077"/>
  <anchor x="373" y="0" name="bottom"/>
  <anchor x="373" y="500" name="top"/>
  <outline>
    <contour>
      <point x="162" y="0" type="line"/>
      <point x="248" y="0" type="line"/>
      <point x="373" y="399" type="line"/>
      <point x="498" y="0" type="line"/>
      <point x="584" y="0" type="line"/>
      <point x="741" y="500" type="line"/>
      <point x="661" y="500" type="line"/>
      <point x="541" y="93" type="line"/>
      <point x="414" y="500" type="line"/>
      <point x="332" y="500" type="line"/>
      <point x="205" y="93" type="line"/>
      <point x="85" y="500" type="line"/>
      <point x="5" y="500" type="line"/>
    </contour>
  </outline>
</glyph>
<glyph name="x" format="2">
  <advance width="482"/>
  <unicode hex="0078"/>
  <anchor x="241" y="0" name="bottom"/>
  <anchor x="241" y="500" name="top"/>
  <outline>
    <contour>
      <point x="4" y="0" type="line"/>
      <point x="99" y="0" type="line"/>
      <point x="241" y="204" type="line"/>
      <point x="382" y="0" type="line"/>
      <point x="478" y="0" type="line"/>
      <point x="284" y="258" type="line"/>
      <point x="465" y="500" type="line"/>
      <point x="369" y="500" type="line"/>
      <point x="241" y="311" type="line"/>
      <point x="112" y="500" type="line"/>
      <point x="16" y="500" type="line"/>
      <point x="197" y="258" type="line"/>
    </contour>
  </outline>
</glyph>
<glyph name="y" format="2">
  <advance width="497"/>
  <unicode hex="0079"/>
  <anchor x="249" y="0" name="bottom"/>
  <anchor x="249" y="500" name="top"/>
  <outline>
    <contour>
      <point x="117" y="-198" type="line"/>
      <point x="198" y="-198" type="line"/>
      <point x="494" y="500" type="line"/>
      <point x="412" y="500" type="line"/>
      <point x="248" y="90" type="line"/>
      <point x="87" y="500" type="line"/>
      <point x="4" y="500" type="line"/>
      <point x="208" y="7" type="line"/>
    </contour>
  </outline>
</glyph>
<glyph name="z" format="2">
  <advance width="458"/>
  <unicode hex="007A"/>
  <anchor x="229" y="0" name="bottom"/>
  <anchor x="229" y="250" name="center"/>
  <anchor x="229" y="500" name="top"/>
  <outline>
    <contour>
      <point x="31" y="0" type="line"/>
      <point x="425" y="0" type="line"/>
      <point x="425" y="70" type="line"/>
      <point x="125" y="70" type="line"/>
      <point x="425" y="430" type="line"/>
      <point x="425" y="500" type="line"/>
      <point x="35" y="500" type="line"/>
      <point x="35" y="431" type="line"/>
      <point x="330" y="431" type="line"/>
      <point x="31" y="71" type="line"/>
    </contour>
  </outline>
</glyph>
<glyph name="braceleft" format="2">
  <advance width="294"/>
  <unicode hex="007B"/>
  <outline>
    <contour>
      <point x="269" y="-133" type="curve"/>
      <point x="269" y="-79" type="line"/>
      <point x="189" y="-78"/>
      <point x="166" y="-58"/>
      <point x="166" y="12" type="curve" smooth="yes"/>
      <point x="166" y="144" type="line" smooth="yes"/>
      <point x="166" y="219"/>
      <point x="133" y="255"/>
      <point x="96" y="273" type="curve"/>
      <point x="133" y="291"/>
      <point x="166" y="327"/>
      <point x="166" y="402" type="curve" smooth="yes"/>
      <point x="166" y="534" type="line" smooth="yes"/>
      <point x="166" y="604"/>
      <point x="189" y="624"/>
      <point x="269" y="625" type="curve"/>
      <point x="269" y="679" type="line"/>
      <point x="174" y="679"/>
      <point x="100" y="670"/>
      <point x="100" y="535" type="curve" smooth="yes"/>
      <point x="100" y="391" type="line" smooth="yes"/>
      <point x="100" y="325"/>
      <point x="52" y="296"/>
      <point x="21" y="296" type="curve"/>
      <point x="21" y="250" type="line"/>
      <point x="52" y="250"/>
      <point x="100" y="221"/>
      <point x="100" y="155" type="curve" smooth="yes"/>
      <point x="100" y="11" type="line" smooth="yes"/>
      <point x="100" y="-124"/>
      <point x="174" y="-133"/>
    </contour>
  </outline>
</glyph>
<glyph name="asciitilde" format="2">
  <advance width="524"/>
  <unicode hex="007E"/>
  <outline>
    <contour>
      <point x="48" y="215" type="curve"/>
      <point x="79" y="215" type="line"/>
      <point x="85" y="232"/>
      <point x="93" y="286"/>
      <point x="155" y="286" type="curve" smooth="yes"/>
      <point x="201" y="286"/>
      <point x="297" y="226"/>
      <point x="367" y="226" type="curve" smooth="yes"/>
      <point x="454" y="226"/>
      <point x="471" y="311"/>
      <point x="478" y="360" type="curve"/>
      <point x="446" y="360" type="line"/>
      <point x="441" y="343"/>
      <point x="431" y="288"/>
      <point x="371" y="288" type="curve" smooth="yes"/>
      <point x="325" y="288"/>
      <point x="229" y="349"/>
      <point x="160" y="349" type="curve" smooth="yes"/>
      <point x="72" y="349"/>
      <point x="54" y="264"/>
    </contour>
  </outline>
</glyph>
<glyph name="cent" format="2">
  <advance width="574"/>
  <unicode hex="00A2"/>
  <outline>
    <contour>
      <point x="280" y="-101" type="line"/>
      <point x="316" y="-101" type="line"/>
      <point x="316" y="-7" type="line"/>
      <point x="423" y="1"/>
      <point x="503" y="66"/>
      <point x="530" y="157" type="curve"/>
      <point x="449" y="157" type="line"/>
      <point x="427" y="103"/>
      <point x="381" y="65"/>
      <point x="316" y="60" type="curve"/>
      <point x="316" y="440" type="line"/>
      <point x="381" y="435"/>
      <point x="427" y="397"/>
      <point x="449" y="343" type="curve"/>
      <point x="530" y="343" type="line"/>
      <point x="503" y="434"/>
      <point x="423" y="499"/>
      <point x="316" y="507" type="curve"/>
      <point x="316" y="595" type="line"/>
      <point x="280" y="595" type="line"/>
      <point x="280" y="508" type="line"/>
      <point x="138" y="501"/>
      <point x="48" y="388"/>
      <point x="48" y="250" type="curve" smooth="yes"/>
      <point x="48" y="112"/>
      <point x="138" y="-1"/>
      <point x="280" y="-8" type="curve"/>
    </contour>
    <contour>
      <point x="280" y="61" type="line"/>
      <point x="183" y="73"/>
      <point x="123" y="155"/>
      <point x="123" y="250" type="curve" smooth="yes"/>
      <point x="123" y="345"/>
      <point x="183" y="427"/>
      <point x="280" y="439" type="curve"/>
    </contour>
  </outline>
</glyph>
<glyph name="currency" format="2">
  <advance width="567"/>
  <unicode hex="00A4"/>
  <outline>
    <contour>
      <point x="93" y="88" type="line"/>
      <point x="157" y="153" type="line"/>
      <point x="193" y="126"/>
      <point x="236" y="111"/>
      <point x="284" y="111" type="curve" smooth="yes"/>
      <point x="331" y="111"/>
      <point x="375" y="126"/>
      <point x="410" y="153" type="curve"/>
      <point x="475" y="88" type="line"/>
      <point x="519" y="133" type="line"/>
      <point x="455" y="197" type="line"/>
      <point x="481" y="233"/>
      <point x="496" y="276"/>
      <point x="496" y="324" type="curve" smooth="yes"/>
      <point x="496" y="371"/>
      <point x="481" y="415"/>
      <point x="455" y="450" type="curve"/>
      <point x="519" y="515" type="line"/>
      <point x="475" y="560" type="line"/>
      <point x="410" y="495" type="line"/>
      <point x="375" y="521"/>
      <point x="331" y="536"/>
      <point x="284" y="536" type="curve" smooth="yes"/>
      <point x="236" y="536"/>
      <point x="193" y="521"/>
      <point x="157" y="495" type="curve"/>
      <point x="93" y="560" type="line"/>
      <point x="48" y="515" type="line"/>
      <point x="112" y="450" type="line"/>
      <point x="86" y="415"/>
      <point x="71" y="371"/>
      <point x="71" y="324" type="curve" smooth="yes"/>
      <point x="71" y="276"/>
      <point x="86" y="233"/>
      <point x="112" y="197" type="curve"/>
      <point x="48" y="133" type="line"/>
    </contour>
    <contour>
      <point x="284" y="172" type="curve" smooth="yes"/>
      <point x="200" y="172"/>
      <point x="132" y="240"/>
      <point x="132" y="324" type="curve" smooth="yes"/>
      <point x="132" y="408"/>
      <point x="200" y="476"/>
      <point x="284" y="476" type="curve" smooth="yes"/>
      <point x="368" y="476"/>
      <point x="436" y="408"/>
      <point x="436" y="324" type="curve" smooth="yes"/>
      <point x="436" y="240"/>
      <point x="368" y="172"/>
    </contour>
  </outline>
</glyph>
<glyph name="section" format="2">
  <advance width="519"/>
  <unicode hex="00A7"/>
  <outline>
    <contour>
      <point x="250" y="-178" type="curve" smooth="yes"/>
      <point x="322" y="-178"/>
      <point x="435" y="-150"/>
      <point x="435" y="-25" type="curve" smooth="yes"/>
      <point x="435" y="15"/>
      <point x="420" y="47"/>
      <point x="396" y="74" type="curve"/>
      <point x="446" y="94"/>
      <point x="474" y="132"/>
      <point x="474" y="193" type="curve" smooth="yes"/>
      <point x="474" y="352"/>
      <point x="159" y="398"/>
      <point x="159" y="524" type="curve" smooth="yes"/>
      <point x="159" y="575"/>
      <point x="203" y="602"/>
      <point x="264" y="602" type="curve" smooth="yes"/>
      <point x="338" y="602"/>
      <point x="383" y="556"/>
      <point x="391" y="510" type="curve"/>
      <point x="460" y="510" type="line"/>
      <point x="452" y="596"/>
      <point x="377" y="669"/>
      <point x="267" y="669" type="curve" smooth="yes"/>
      <point x="195" y="669"/>
      <point x="86" y="641"/>
      <point x="86" y="516" type="curve" smooth="yes"/>
      <point x="86" y="476"/>
      <point x="101" y="444"/>
      <point x="124" y="416" type="curve"/>
      <point x="75" y="396"/>
      <point x="47" y="358"/>
      <point x="47" y="298" type="curve" smooth="yes"/>
      <point x="47" y="139"/>
      <point x="362" y="93"/>
      <point x="362" y="-33" type="curve" smooth="yes"/>
      <point x="362" y="-84"/>
      <point x="314" y="-111"/>
      <point x="253" y="-111" type="curve" smooth="yes"/>
      <point x="179" y="-111"/>
      <point x="130" y="-65"/>
      <point x="122" y="-19" type="curve"/>
      <point x="53" y="-19" type="line"/>
      <point x="61" y="-105"/>
      <point x="140" y="-178"/>
    </contour>
    <contour>
      <point x="360" y="109" type="curve"/>
      <point x="267" y="183"/>
      <point x="120" y="222"/>
      <point x="120" y="316" type="curve" smooth="yes"/>
      <point x="120" y="348"/>
      <point x="135" y="369"/>
      <point x="161" y="382" type="curve"/>
      <point x="254" y="308"/>
      <point x="401" y="268"/>
      <point x="401" y="175" type="curve" smooth="yes"/>
      <point x="401" y="142"/>
      <point x="385" y="121"/>
    </contour>
  </outline>
</glyph>
<glyph name="copyright" format="2">
  <advance width="779"/>
  <unicode hex="00A9"/>
  <outline>
    <contour>
      <point x="389" y="-13" type="curve" smooth="yes"/>
      <point x="578" y="-13"/>
      <point x="732" y="140"/>
      <point x="732" y="329" type="curve" smooth="yes"/>
      <point x="732" y="519"/>
      <point x="578" y="672"/>
      <point x="389" y="672" type="curve" smooth="yes"/>
      <point x="200" y="672"/>
      <point x="47" y="519"/>
      <point x="47" y="329" type="curve" smooth="yes"/>
      <point x="47" y="140"/>
      <point x="200" y="-13"/>
    </contour>
    <contour>
      <point x="389" y="36" type="curve" smooth="yes"/>
      <point x="227" y="36"/>
      <point x="96" y="168"/>
      <point x="96" y="329" type="curve" smooth="yes"/>
      <point x="96" y="491"/>
      <point x="227" y="623"/>
      <point x="389" y="623" type="curve" smooth="yes"/>
      <point x="551" y="623"/>
      <point x="683" y="491"/>
      <point x="683" y="329" type="curve" smooth="yes"/>
      <point x="683" y="168"/>
      <point x="551" y="36"/>
    </contour>
    <contour>
      <point x="389" y="133" type="curve" smooth="yes"/>
      <point x="480" y="133"/>
      <point x="554" y="179"/>
      <point x="569" y="276" type="curve"/>
      <point x="502" y="276" type="line"/>
      <point x="493" y="227"/>
      <point x="452" y="197"/>
      <point x="394" y="197" type="curve" smooth="yes"/>
      <point x="317" y="197"/>
      <point x="270" y="251"/>
      <point x="270" y="329" type="curve" smooth="yes"/>
      <point x="270" y="407"/>
      <point x="317" y="461"/>
      <point x="394" y="461" type="curve" smooth="yes"/>
      <point x="452" y="461"/>
      <point x="493" y="431"/>
      <point x="502" y="382" type="curve"/>
      <point x="569" y="382" type="line"/>
      <point x="554" y="478"/>
      <point x="480" y="524"/>
      <point x="389" y="524" type="curve" smooth="yes"/>
      <point x="273" y="524"/>
      <point x="202" y="442"/>
      <point x="202" y="329" type="curve" smooth="yes"/>
      <point x="202" y="216"/>
      <point x="273" y="133"/>
    </contour>
  </outline>
</glyph>
<glyph name="guillemetleft" format="2">
  <advance width="487"/>
  <unicode hex="00AB"/>
  <outline>
    <contour>
      <point x="169" y="57" type="line"/>
      <point x="258" y="57" type="line"/>
      <point x="121" y="259" type="line"/>
      <point x="258" y="461" type="line"/>
      <point x="169" y="461" type="line"/>
      <point x="39" y="259" type="line"/>
    </contour>
    <contour>
      <point x="353" y="57" type="line"/>
      <point x="442" y="57" type="line"/>
      <point x="305" y="259" type="line"/>
      <point x="442" y="461" type="line"/>
      <point x="353" y="461" type="line"/>
      <point x="223" y="259" type="line"/>
    </contour>
  </outline>
</glyph>
<glyph name="macron" format="2">
  <advance width="382"/>
  <unicode hex="00AF"/>
  <outline>
    <contour>
      <point x="57" y="582" type="line"/>
      <point x="321" y="582" type="line"/>
      <point x="321" y="642" type="line"/>
      <point x="57" y="642" type="line"/>
    </contour>
  </outline>
</glyph>
<glyph name="plusminus" format="2">
  <advance width="550"/>
  <unicode hex="00B1"/>
  <outline>
    <contour>
      <point x="242" y="122" type="line"/>
      <point x="307" y="122" type="line"/>
      <point x="307" y="276" type="line"/>
      <point x="500" y="276" type="line"/>
      <point x="500" y="341" type="line"/>
      <point x="307" y="341" type="line"/>
      <point x="307" y="495" type="line"/>
      <point x="242" y="495" type="line"/>
      <point x="242" y="341" type="line"/>
      <point x="50" y="341" type="line"/>
      <point x="50" y="276" type="line"/>
      <point x="242" y="276" type="line"/>
    </contour>
    <contour>
      <point x="50" y="0" type="line"/>
      <point x="500" y="0" type="line"/>
      <point x="500" y="62" type="line"/>
      <point x="50" y="62" type="line"/>
    </contour>
  </outline>
</glyph>
<glyph name="acute" format="2">
  <advance width="349"/>
  <unicode hex="00B4"/>
  <outline>
    <contour>
      <point x="86" y="570" type="line"/>
      <point x="147" y="570" type="line"/>
      <point x="254" y="675" type="line"/>
      <point x="147" y="675" type="line"/>
    </contour>
  </outline>
</glyph>
<glyph name="periodcentered" format="2">
  <advance width="203"/>
  <unicode hex="00B7"/>
  <outline>
    <contour>
      <point x="53" y="242" type="line"/>
      <point x="150" y="242" type="line"/>
      <point x="150" y="344" type="line"/>
      <point x="53" y="344" type="line"/>
    </contour>
  </outline>
</glyph>
<glyph name="ordmasculine" format="2">
  <advance width="342"/>
  <unicode hex="00BA"/>
  <outline>
    <contour>
      <point x="171" y="392" type="curve" smooth="yes"/>
      <point x="252" y="392"/>
      <point x="305" y="451"/>
      <point x="305" y="529" type="curve" smooth="yes"/>
      <point x="305" y="607"/>
      <point x="252" y="666"/>
      <point x="171" y="666" type="curve" smooth="yes"/>
      <point x="90" y="666"/>
      <point x="37" y="607"/>
      <point x="37" y="529" type="curve" smooth="yes"/>
      <point x="37" y="451"/>
      <point x="90" y="392"/>
    </contour>
    <contour>
      <point x="171" y="452" type="curve" smooth="yes"/>
      <point x="124" y="452"/>
      <point x="100" y="488"/>
      <point x="100" y="529" type="curve" smooth="yes"/>
      <point x="100" y="570"/>
      <point x="124" y="606"/>
      <point x="171" y="606" type="curve" smooth="yes"/>
      <point x="218" y="606"/>
      <point x="242" y="570"/>
      <point x="242" y="529" type="curve" smooth="yes"/>
      <point x="242" y="486"/>
      <point x="215" y="452"/>
    </contour>
  </outline>
</glyph>
<glyph name="guillemetright" format="2">
  <advance width="487"/>
  <unicode hex="00BB"/>
  <outline>
    <contour>
      <point x="45" y="57" type="line"/>
      <point x="134" y="57" type="line"/>
      <point x="264" y="259" type="line"/>
      <point x="134" y="461" type="line"/>
      <point x="45" y="461" type="line"/>
      <point x="182" y="259" type="line"/>
    </contour>
    <contour>
      <point x="229" y="57" type="line"/>
      <point x="318" y="57" type="line"/>
      <point x="448" y="259" type="line"/>
      <point x="318" y="461" type="line"/>
      <point x="229" y="461" type="line"/>
      <point x="366" y="259" type="line"/>
    </contour>
  </outline>
</glyph>
<glyph name="AE" format="2">
  <advance width="1022"/>
  <unicode hex="00C6"/>
  <anchor x="511" y="0" name="bottom"/>
  <anchor x="711" y="662" name="top"/>
  <outline>
    <contour>
      <point x="-3" y="0" type="line"/>
      <point x="87" y="0" type="line"/>
      <point x="212" y="185" type="line"/>
      <point x="521" y="185" type="line"/>
      <point x="521" y="0" type="line"/>
      <point x="983" y="0" type="line"/>
      <point x="983" y="72" type="line"/>
      <point x="596" y="72" type="line"/>
      <point x="596" y="295" type="line"/>
      <point x="939" y="295" type="line"/>
      <point x="939" y="368" type="line"/>
      <point x="596" y="368" type="line"/>
      <point x="596" y="590" type="line"/>
      <point x="983" y="590" type="line"/>
      <point x="983" y="662" type="line"/>
      <point x="450" y="662" type="line"/>
    </contour>
    <contour>
      <point x="259" y="254" type="line"/>
      <point x="487" y="590" type="line"/>
      <point x="521" y="590" type="line"/>
      <point x="521" y="254" type="line"/>
    </contour>
  </outline>
</glyph>
<glyph name="Eth" format="2">
  <advance width="703"/>
  <unicode hex="00D0"/>
  <anchor x="340" y="0" name="bottom"/>
  <anchor x="352" y="331" name="center"/>
  <anchor x="352" y="662" name="top"/>
  <outline>
    <contour>
      <point x="355" y="363" type="line"/>
      <point x="7" y="363" type="line"/>
      <point x="7" y="298" type="line"/>
      <point x="355" y="298" type="line"/>
    </contour>
    <component base="D"/>
  </outline>
</glyph>
<glyph name="Thorn" format="2">
  <advance width="628"/>
  <unicode hex="00DE"/>
  <outline>
    <contour>
      <point x="81" y="0" type="line"/>
      <point x="156" y="0" type="line"/>
      <point x="156" y="139" type="line"/>
      <point x="379" y="139" type="line" smooth="yes"/>
      <point x="520" y="139"/>
      <point x="607" y="221"/>
      <point x="607" y="352" type="curve" smooth="yes"/>
      <point x="607" y="482"/>
      <point x="520" y="565"/>
      <point x="379" y="565" type="curve" smooth="yes"/>
      <point x="156" y="565" type="line"/>
      <point x="156" y="662" type="line"/>
      <point x="81" y="662" type="line"/>
    </contour>
    <contour>
      <point x="156" y="209" type="line"/>
      <point x="156" y="494" type="line"/>
      <point x="374" y="494" type="line" smooth="yes"/>
      <point x="478" y="494"/>
      <point x="532" y="440"/>
      <point x="532" y="352" type="curve" smooth="yes"/>
      <point x="532" y="263"/>
      <point x="478" y="209"/>
      <point x="374" y="209" type="curve" smooth="yes"/>
    </contour>
  </outline>
</glyph>
<glyph name="ae" format="2">
  <advance width="977"/>
  <unicode hex="00E6"/>
  <anchor x="489" y="0" name="bottom"/>
  <anchor x="489" y="500" name="top"/>
  <outline>
    <contour>
      <point x="276" y="-8" type="curve" smooth="yes"/>
      <point x="359" y="-8"/>
      <point x="418" y="26"/>
      <point x="455" y="80" type="curve"/>
      <point x="455" y="0" type="line"/>
      <point x="530" y="0" type="line"/>
      <point x="530" y="71" type="line"/>
      <point x="566" y="22"/>
      <point x="623" y="-8"/>
      <point x="702" y="-8" type="curve" smooth="yes"/>
      <point x="819" y="-8"/>
      <point x="905" y="60"/>
      <point x="937" y="157" type="curve"/>
      <point x="857" y="157" type="line"/>
      <point x="831" y="100"/>
      <point x="782" y="60"/>
      <point x="708" y="60" type="curve" smooth="yes"/>
      <point x="605" y="60"/>
      <point x="542" y="131"/>
      <point x="531" y="220" type="curve"/>
      <point x="950" y="220" type="line"/>
      <point x="950" y="250" type="line" smooth="yes"/>
      <point x="950" y="393"/>
      <point x="855" y="508"/>
      <point x="702" y="508" type="curve" smooth="yes"/>
      <point x="623" y="508"/>
      <point x="566" y="477"/>
      <point x="530" y="428" type="curve"/>
      <point x="530" y="500" type="line"/>
      <point x="455" y="500" type="line"/>
      <point x="455" y="419" type="line"/>
      <point x="418" y="473"/>
      <point x="359" y="508"/>
      <point x="276" y="508" type="curve" smooth="yes"/>
      <point x="130" y="508"/>
      <point x="34" y="393"/>
      <point x="34" y="250" type="curve" smooth="yes"/>
      <point x="34" y="107"/>
      <point x="130" y="-8"/>
    </contour>
    <contour>
      <point x="286" y="60" type="curve" smooth="yes"/>
      <point x="175" y="60"/>
      <point x="109" y="147"/>
      <point x="109" y="250" type="curve" smooth="yes"/>
      <point x="109" y="353"/>
      <point x="175" y="440"/>
      <point x="286" y="440" type="curve" smooth="yes"/>
      <point x="397" y="440"/>
      <point x="459" y="353"/>
      <point x="459" y="250" type="curve" smooth="yes"/>
      <point x="459" y="147"/>
      <point x="397" y="60"/>
    </contour>
    <contour>
      <point x="532" y="290" type="line"/>
      <point x="546" y="375"/>
      <point x="606" y="440"/>
      <point x="702" y="440" type="curve" smooth="yes"/>
      <point x="798" y="440"/>
      <point x="858" y="375"/>
      <point x="872" y="290" type="curve"/>
    </contour>
  </outline>
</glyph>
<glyph name="ccedilla" format="2">
  <advance width="544"/>
  <unicode hex="00E7"/>
  <anchor x="272" y="0" name="bottom"/>
  <anchor x="272" y="500" name="top"/>
  <outline>
    <contour>
      <point x="290" y="60" type="curve" smooth="yes"/>
      <point x="179" y="60"/>
      <point x="109" y="147"/>
      <point x="109" y="250" type="curve" smooth="yes"/>
      <point x="109" y="353"/>
      <point x="179" y="440"/>
      <point x="290" y="440" type="curve" smooth="yes"/>
      <point x="361" y="440"/>
      <point x="412" y="400"/>
      <point x="435" y="343" type="curve"/>
      <point x="516" y="343" type="line"/>
      <point x="487" y="440"/>
      <point x="398" y="508"/>
      <point x="280" y="508" type="curve" smooth="yes"/>
      <point x="130" y="508"/>
      <point x="34" y="393"/>
      <point x="34" y="250" type="curve" smooth="yes"/>
      <point x="34" y="115"/>
      <point x="119" y="5"/>
      <point x="254" y="-7" type="curve"/>
      <point x="207" y="-81" type="line"/>
      <point x="228" y="-98" type="line"/>
      <point x="238" y="-95"/>
      <point x="251" y="-93"/>
      <point x="263" y="-93" type="curve" smooth="yes"/>
      <point x="291" y="-93"/>
      <point x="316" y="-106"/>
      <point x="316" y="-126" type="curve" smooth="yes"/>
      <point x="316" y="-153"/>
      <point x="291" y="-162"/>
      <point x="261" y="-162" type="curve" smooth="yes"/>
      <point x="225" y="-162"/>
      <point x="197" y="-147"/>
      <point x="176" y="-132" type="curve"/>
      <point x="157" y="-165" type="line"/>
      <point x="182" y="-186"/>
      <point x="224" y="-206"/>
      <point x="275" y="-206" type="curve" smooth="yes"/>
      <point x="336" y="-206"/>
      <point x="389" y="-181"/>
      <point x="389" y="-125" type="curve" smooth="yes"/>
      <point x="389" y="-77"/>
      <point x="347" y="-48"/>
      <point x="297" y="-48" type="curve" smooth="yes"/>
      <point x="290" y="-48"/>
      <point x="281" y="-49"/>
      <point x="275" y="-50" type="curve"/>
      <point x="299" y="-7" type="line"/>
      <point x="408" y="0"/>
      <point x="489" y="65"/>
      <point x="516" y="157" type="curve"/>
      <point x="435" y="157" type="line"/>
      <point x="412" y="100"/>
      <point x="361" y="60"/>
    </contour>
  </outline>
</glyph>
<glyph name="divide" format="2">
  <advance width="550"/>
  <unicode hex="00F7"/>
  <outline>
    <contour>
      <point x="231" y="359" type="line"/>
      <point x="319" y="359" type="line"/>
      <point x="319" y="452" type="line"/>
      <point x="231" y="452" type="line"/>
    </contour>
    <contour>
      <point x="38" y="200" type="line"/>
      <point x="512" y="200" type="line"/>
      <point x="512" y="269" type="line"/>
      <point x="38" y="269" type="line"/>
    </contour>
    <contour>
      <point x="231" y="17" type="line"/>
      <point x="319" y="17" type="line"/>
      <point x="319" y="110" type="line"/>
      <point x="231" y="110" type="line"/>
    </contour>
  </outline>
</glyph>
<glyph name="oslash" format="2">
  <advance width="564"/>
  <unicode hex="00F8"/>
  <anchor x="312" y="500" name="top"/>
  <anchor x="282" y="0" name="bottom"/>
  <anchor x="282" y="250" name="center"/>
  <anchor x="368" y="0" name="ogonek"/>
  <anchor x="544" y="500" name="topright"/>
  <outline>
    <contour>
      <point x="96" y="-16" type="line"/>
      <point x="170" y="-16" type="line"/>
      <point x="481" y="525" type="line"/>
      <point x="407" y="525" type="line"/>
    </contour>
    <component base="o"/>
  </outline>
</glyph>
<glyph name="eogonek" format="2">
  <advance width="557"/>
  <unicode hex="0119"/>
  <anchor x="399" y="0" name="_ogonek"/>
  <anchor x="279" y="0" name="bottom"/>
  <anchor x="399" y="0" name="ogonek"/>
  <anchor x="279" y="500" name="top"/>
  <outline>
    <contour>
      <point x="217" y="-123" type="curve" smooth="yes"/>
      <point x="217" y="-178"/>
      <point x="265" y="-206"/>
      <point x="314" y="-206" type="curve" smooth="yes"/>
      <point x="342" y="-206"/>
      <point x="370" y="-198"/>
      <point x="390" y="-182" type="curve"/>
      <point x="390" y="-143" type="line"/>
      <point x="380" y="-150"/>
      <point x="367" y="-154"/>
      <point x="354" y="-154" type="curve" smooth="yes"/>
      <point x="324" y="-154"/>
      <point x="294" y="-136"/>
      <point x="294" y="-104" type="curve" smooth="yes"/>
      <point x="294" y="-49"/>
      <point x="361" y="-7"/>
      <point x="397" y="14" type="curve"/>
      <point x="333" y="10" type="line"/>
      <point x="286" y="-14"/>
      <point x="217" y="-49"/>
    </contour>
    <component base="e"/>
  </outline>
</glyph>
<glyph name="Hbar" format="2">
  <advance width="697"/>
  <unicode hex="0126"/>
  <anchor x="349" y="504" name="_center"/>
  <anchor x="349" y="0" name="bottom"/>
  <anchor x="349" y="504" name="center"/>
  <anchor x="349" y="662" name="top"/>
  <anchor x="20" y="662" name="topleft"/>
  <outline>
    <contour>
      <point x="35" y="468" type="line"/>
      <point x="662" y="468" type="line"/>
      <point x="662" y="538" type="line"/>
      <point x="35" y="538" type="line"/>
    </contour>
    <component base="H"/>
  </outline>
</glyph>
<glyph name="kgreenlandic" format="2">
  <advance width="502"/>
  <unicode hex="0138"/>
  <anchor x="251" y="0" name="bottom"/>
  <anchor x="251" y="700" name="top"/>
  <outline>
    <contour>
      <point x="65" y="0" type="line"/>
      <point x="140" y="0" type="line"/>
      <point x="140" y="158" type="line"/>
      <point x="234" y="251" type="line"/>
      <point x="409" y="0" type="line"/>
      <point x="501" y="0" type="line"/>
      <point x="285" y="303" type="line"/>
      <point x="486" y="500" type="line"/>
      <point x="381" y="500" type="line"/>
      <point x="140" y="252" type="line"/>
      <point x="140" y="500" type="line"/>
      <point x="65" y="500" type="line"/>
    </contour>
  </outline>
</glyph>
<glyph name="lslash" format="2">
  <advance width="205"/>
  <unicode hex="0142"/>
  <anchor x="103" y="0" name="bottom"/>
  <anchor x="103" y="350" name="center"/>
  <anchor x="103" y="700" name="top"/>
  <anchor x="185" y="499" name="topright"/>
  <outline>
    <contour>
      <point x="205" y="427" type="line"/>
      <point x="205" y="500" type="line"/>
      <point x="0" y="393" type="line"/>
      <point x="0" y="320" type="line"/>
    </contour>
    <component base="l"/>
  </outline>
</glyph>
<glyph name="oe" format="2">
  <advance width="972"/>
  <unicode hex="0153"/>
  <outline>
    <contour>
      <point x="282" y="-8" type="curve" smooth="yes"/>
      <point x="381" y="-8"/>
      <point x="452" y="40"/>
      <point x="489" y="113" type="curve"/>
      <point x="527" y="40"/>
      <point x="597" y="-8"/>
      <point x="697" y="-8" type="curve" smooth="yes"/>
      <point x="814" y="-8"/>
      <point x="900" y="60"/>
      <point x="932" y="157" type="curve"/>
      <point x="852" y="157" type="line"/>
      <point x="826" y="100"/>
      <point x="777" y="60"/>
      <point x="703" y="60" type="curve" smooth="yes"/>
      <point x="600" y="60"/>
      <point x="537" y="131"/>
      <point x="526" y="220" type="curve"/>
      <point x="945" y="220" type="line"/>
      <point x="945" y="250" type="line" smooth="yes"/>
      <point x="945" y="393"/>
      <point x="850" y="508"/>
      <point x="697" y="508" type="curve" smooth="yes"/>
      <point x="597" y="508"/>
      <point x="527" y="459"/>
      <point x="489" y="386" type="curve"/>
      <point x="452" y="459"/>
      <point x="381" y="508"/>
      <point x="282" y="508" type="curve" smooth="yes"/>
      <point x="129" y="508"/>
      <point x="34" y="393"/>
      <point x="34" y="250" type="curve" smooth="yes"/>
      <point x="34" y="107"/>
      <point x="129" y="-8"/>
    </contour>
    <contour>
      <point x="282" y="60" type="curve" smooth="yes"/>
      <point x="171" y="60"/>
      <point x="109" y="147"/>
      <point x="109" y="250" type="curve" smooth="yes"/>
      <point x="109" y="353"/>
      <point x="171" y="440"/>
      <point x="282" y="440" type="curve" smooth="yes"/>
      <point x="393" y="440"/>
      <point x="455" y="353"/>
      <point x="455" y="250" type="curve" smooth="yes"/>
      <point x="455" y="147"/>
      <point x="393" y="60"/>
    </contour>
    <contour>
      <point x="527" y="290" type="line"/>
      <point x="541" y="375"/>
      <point x="601" y="440"/>
      <point x="697" y="440" type="curve" smooth="yes"/>
      <point x="793" y="440"/>
      <point x="853" y="375"/>
      <point x="867" y="290" type="curve"/>
    </contour>
  </outline>
</glyph>
<glyph name="Uogonek" format="2">
  <advance width="709"/>
  <unicode hex="0172"/>
  <anchor x="355" y="0" name="bottom"/>
  <anchor x="434" y="10" name="ogonek"/>
  <anchor x="355" y="662" name="top"/>
  <anchor x="689" y="662" name="topright"/>
  <outline>
    <contour>
      <point x="561" y="662" type="line"/>
      <point x="561" y="283" type="line" smooth="yes"/>
      <point x="561" y="129"/>
      <point x="459" y="65"/>
      <point x="354" y="65" type="curve" smooth="yes"/>
      <point x="249" y="65"/>
      <point x="148" y="129"/>
      <point x="148" y="283" type="curve" smooth="yes"/>
      <point x="148" y="662" type="line"/>
      <point x="73" y="662" type="line"/>
      <point x="73" y="285" type="line" smooth="yes"/>
      <point x="73" y="115"/>
      <point x="181" y="1"/>
      <point x="336" y="-8" type="curve"/>
      <point x="295" y="-29"/>
      <point x="252" y="-61"/>
      <point x="252" y="-115" type="curve" smooth="yes"/>
      <point x="252" y="-170"/>
      <point x="300" y="-198"/>
      <point x="349" y="-198" type="curve" smooth="yes"/>
      <point x="377" y="-198"/>
      <point x="405" y="-190"/>
      <point x="425" y="-174" type="curve"/>
      <point x="425" y="-135" type="line"/>
      <point x="415" y="-142"/>
      <point x="402" y="-146"/>
      <point x="389" y="-146" type="curve" smooth="yes"/>
      <point x="359" y="-146"/>
      <point x="329" y="-128"/>
      <point x="329" y="-96" type="curve" smooth="yes"/>
      <point x="329" y="-55"/>
      <point x="372" y="-24"/>
      <point x="404" y="-4" type="curve"/>
      <point x="543" y="17"/>
      <point x="636" y="128"/>
      <point x="636" y="285" type="curve" smooth="yes"/>
      <point x="636" y="662" type="line"/>
    </contour>
  </outline>
</glyph>
<glyph name="uogonek" format="2">
  <advance width="566"/>
  <unicode hex="0173"/>
  <anchor x="283" y="0" name="bottom"/>
  <anchor x="491" y="0" name="ogonek"/>
  <anchor x="283" y="500" name="top"/>
  <anchor x="658" y="493" name="topright"/>
  <outline>
    <contour>
      <point x="466" y="-154" type="curve" smooth="yes"/>
      <point x="436" y="-154"/>
      <point x="406" y="-136"/>
      <point x="406" y="-104" type="curve" smooth="yes"/>
      <point x="406" y="-54"/>
      <point x="471" y="-19"/>
      <point x="501" y="0" type="curve"/>
      <point x="501" y="500" type="line"/>
      <point x="426" y="500" type="line"/>
      <point x="426" y="212" type="line" smooth="yes"/>
      <point x="426" y="122"/>
      <point x="358" y="60"/>
      <point x="275" y="60" type="curve" smooth="yes"/>
      <point x="193" y="60"/>
      <point x="135" y="120"/>
      <point x="135" y="211" type="curve" smooth="yes"/>
      <point x="135" y="500" type="line"/>
      <point x="60" y="500" type="line"/>
      <point x="60" y="209" type="line" smooth="yes"/>
      <point x="60" y="67"/>
      <point x="157" y="-8"/>
      <point x="260" y="-8" type="curve" smooth="yes"/>
      <point x="341" y="-8"/>
      <point x="390" y="30"/>
      <point x="426" y="78" type="curve"/>
      <point x="426" y="0" type="line"/>
      <point x="445" y="0" type="line"/>
      <point x="398" y="-22"/>
      <point x="329" y="-55"/>
      <point x="329" y="-123" type="curve" smooth="yes"/>
      <point x="329" y="-178"/>
      <point x="377" y="-206"/>
      <point x="426" y="-206" type="curve" smooth="yes"/>
      <point x="454" y="-206"/>
      <point x="482" y="-198"/>
      <point x="501" y="-182" type="curve"/>
      <point x="501" y="-143" type="line"/>
      <point x="492" y="-150"/>
      <point x="479" y="-154"/>
    </contour>
  </outline>
</glyph>
<glyph name="Chook" format="2">
  <advance width="690"/>
  <unicode hex="0187"/>
  <anchor x="529" y="315" name="_top"/>
  <anchor x="345" y="0" name="bottom"/>
  <anchor x="345" y="662" name="top"/>
  <outline>
    <contour>
      <point x="359" y="-8" type="curve" smooth="yes"/>
      <point x="509" y="-8"/>
      <point x="617" y="77"/>
      <point x="659" y="198" type="curve"/>
      <point x="580" y="198" type="line"/>
      <point x="546" y="117"/>
      <point x="474" y="65"/>
      <point x="365" y="65" type="curve" smooth="yes"/>
      <point x="204" y="65"/>
      <point x="114" y="182"/>
      <point x="114" y="331" type="curve" smooth="yes"/>
      <point x="114" y="480"/>
      <point x="204" y="597"/>
      <point x="365" y="597" type="curve" smooth="yes"/>
      <point x="474" y="597"/>
      <point x="549" y="545"/>
      <point x="583" y="464" type="curve"/>
      <point x="659" y="464" type="line"/>
      <point x="617" y="585"/>
      <point x="509" y="670"/>
      <point x="359" y="670" type="curve" smooth="yes"/>
      <point x="160" y="670"/>
      <point x="39" y="519"/>
      <point x="39" y="331" type="curve" smooth="yes"/>
      <point x="39" y="143"/>
      <point x="160" y="-8"/>
    </contour>
    <contour>
      <point x="729" y="789" type="curve" smooth="yes"/>
      <point x="604" y="789"/>
      <point x="584" y="710"/>
      <point x="584" y="645" type="curve" smooth="yes"/>
      <point x="584" y="464" type="line"/>
      <point x="659" y="464" type="line"/>
      <point x="659" y="645" type="line" smooth="yes"/>
      <point x="659" y="678"/>
      <point x="663" y="722"/>
      <point x="735" y="722" type="curve" smooth="yes"/>
      <point x="743" y="722"/>
      <point x="750" y="721"/>
      <point x="759" y="719" type="curve"/>
      <point x="759" y="787" type="line"/>
      <point x="748" y="788"/>
      <point x="739" y="789"/>
    </contour>
  </outline>
</glyph>
<glyph name="chook" format="2">
  <advance width="581"/>
  <unicode hex="0188"/>
  <anchor x="272" y="0" name="bottom"/>
  <anchor x="272" y="500" name="top"/>
  <outline>
    <contour>
      <point x="581" y="658" type="curve" smooth="yes"/>
      <point x="456" y="658"/>
      <point x="436" y="579"/>
      <point x="436" y="514" type="curve" smooth="yes"/>
      <point x="436" y="456" type="line"/>
      <point x="396" y="489"/>
      <point x="343" y="508"/>
      <point x="280" y="508" type="curve" smooth="yes"/>
      <point x="130" y="508"/>
      <point x="34" y="393"/>
      <point x="34" y="250" type="curve" smooth="yes"/>
      <point x="34" y="107"/>
      <point x="130" y="-8"/>
      <point x="280" y="-8" type="curve" smooth="yes"/>
      <point x="398" y="-8"/>
      <point x="487" y="60"/>
      <point x="516" y="157" type="curve"/>
      <point x="435" y="157" type="line"/>
      <point x="412" y="100"/>
      <point x="361" y="60"/>
      <point x="290" y="60" type="curve" smooth="yes"/>
      <point x="179" y="60"/>
      <point x="109" y="147"/>
      <point x="109" y="250" type="curve" smooth="yes"/>
      <point x="109" y="353"/>
      <point x="179" y="440"/>
      <point x="290" y="440" type="curve" smooth="yes"/>
      <point x="361" y="440"/>
      <point x="412" y="400"/>
      <point x="435" y="343" type="curve"/>
      <point x="511" y="343" type="line"/>
      <point x="511" y="514" type="line" smooth="yes"/>
      <point x="511" y="547"/>
      <point x="515" y="591"/>
      <point x="587" y="591" type="curve" smooth="yes"/>
      <point x="595" y="591"/>
      <point x="602" y="590"/>
      <point x="611" y="588" type="curve"/>
      <point x="611" y="656" type="line"/>
      <point x="600" y="657"/>
      <point x="591" y="658"/>
    </contour>
  </outline>
</glyph>
<glyph name="Schwa" format="2">
  <advance width="718"/>
  <unicode hex="018F"/>
  <anchor x="359" y="0" name="bottom"/>
  <anchor x="359" y="662" name="top"/>
  <outline>
    <contour>
      <point x="41" y="374" type="line"/>
      <point x="40" y="360"/>
      <point x="39" y="346"/>
      <point x="39" y="331" type="curve" smooth="yes"/>
      <point x="39" y="143"/>
      <point x="168" y="-8"/>
      <point x="359" y="-8" type="curve" smooth="yes"/>
      <point x="550" y="-8"/>
      <point x="679" y="143"/>
      <point x="679" y="331" type="curve" smooth="yes"/>
      <point x="679" y="519"/>
      <point x="550" y="670"/>
      <point x="359" y="670" type="curve" smooth="yes"/>
      <point x="219" y="670"/>
      <point x="112" y="589"/>
      <point x="65" y="471" type="curve"/>
      <point x="144" y="471" type="line"/>
      <point x="184" y="547"/>
      <point x="259" y="597"/>
      <point x="359" y="597" type="curve" smooth="yes"/>
      <point x="512" y="597"/>
      <point x="606" y="480"/>
      <point x="606" y="331" type="curve" smooth="yes"/>
      <point x="606" y="182"/>
      <point x="512" y="65"/>
      <point x="359" y="65" type="curve" smooth="yes"/>
      <point x="206" y="65"/>
      <point x="112" y="182"/>
      <point x="112" y="331" type="curve" smooth="yes"/>
      <point x="112" y="346"/>
      <point x="113" y="360"/>
      <point x="115" y="374" type="curve"/>
    </contour>
    <component base="strokelongcomb.case" xOffset="107" yOffset="-82"/>
  </outline>
</glyph>
<glyph name="Eopen" format="2">
  <advance width="570"/>
  <unicode hex="0190"/>
  <anchor x="285" y="0" name="bottom"/>
  <anchor x="285" y="662" name="top"/>
  <outline>
    <contour>
      <point x="286" y="-8" type="curve" smooth="yes"/>
      <point x="410" y="-8"/>
      <point x="512" y="72"/>
      <point x="522" y="175" type="curve"/>
      <point x="446" y="175" type="line"/>
      <point x="436" y="113"/>
      <point x="366" y="65"/>
      <point x="286" y="65" type="curve" smooth="yes"/>
      <point x="179" y="65"/>
      <point x="116" y="120"/>
      <point x="116" y="188" type="curve" smooth="yes"/>
      <point x="116" y="255"/>
      <point x="183" y="314"/>
      <point x="279" y="314" type="curve" smooth="yes"/>
      <point x="375" y="314" type="line"/>
      <point x="375" y="383" type="line"/>
      <point x="288" y="383" type="line" smooth="yes"/>
      <point x="208" y="383"/>
      <point x="138" y="427"/>
      <point x="138" y="491" type="curve" smooth="yes"/>
      <point x="138" y="554"/>
      <point x="190" y="597"/>
      <point x="290" y="597" type="curve" smooth="yes"/>
      <point x="371" y="597"/>
      <point x="422" y="554"/>
      <point x="431" y="503" type="curve"/>
      <point x="504" y="503" type="line"/>
      <point x="495" y="584"/>
      <point x="421" y="670"/>
      <point x="292" y="670" type="curve" smooth="yes"/>
      <point x="150" y="670"/>
      <point x="63" y="597"/>
      <point x="63" y="494" type="curve" smooth="yes"/>
      <point x="63" y="428"/>
      <point x="118" y="367"/>
      <point x="163" y="353" type="curve"/>
      <point x="86" y="324"/>
      <point x="41" y="261"/>
      <point x="41" y="190" type="curve" smooth="yes"/>
      <point x="41" y="72"/>
      <point x="150" y="-8"/>
    </contour>
  </outline>
</glyph>
<glyph name="florin" format="2">
  <advance width="307"/>
  <unicode hex="0192"/>
  <anchor x="154" y="0" name="bottom"/>
  <anchor x="154" y="700" name="top"/>
  <outline>
    <contour>
      <point x="29" y="-206" type="curve" smooth="yes"/>
      <point x="154" y="-206"/>
      <point x="174" y="-127"/>
      <point x="174" y="-62" type="curve" smooth="yes"/>
      <point x="174" y="119" type="line"/>
      <point x="99" y="119" type="line"/>
      <point x="99" y="-62" type="line" smooth="yes"/>
      <point x="99" y="-95"/>
      <point x="95" y="-139"/>
      <point x="23" y="-139" type="curve" smooth="yes"/>
      <point x="15" y="-139"/>
      <point x="8" y="-138"/>
      <point x="-1" y="-136" type="curve"/>
      <point x="-1" y="-204" type="line"/>
      <point x="10" y="-205"/>
      <point x="19" y="-206"/>
    </contour>
    <component base="f"/>
  </outline>
</glyph>
<glyph name="Gammaafrican" format="2">
  <advance width="626"/>
  <unicode hex="0194"/>
  <outline>
    <contour>
      <point x="3" y="662" type="line"/>
      <point x="350" y="69"/>
      <point x="391" y="14"/>
      <point x="391" y="-40" type="curve" smooth="yes"/>
      <point x="391" y="-95"/>
      <point x="362" y="-128"/>
      <point x="313" y="-128" type="curve"/>
      <point x="313" y="-203" type="line"/>
      <point x="415" y="-203"/>
      <point x="466" y="-122"/>
      <point x="466" y="-42" type="curve" smooth="yes"/>
      <point x="466" y="33"/>
      <point x="399" y="132"/>
      <point x="89" y="662" type="curve"/>
    </contour>
    <contour>
      <point x="623" y="662" type="curve"/>
      <point x="537" y="662" type="line"/>
      <point x="227" y="132"/>
      <point x="160" y="33"/>
      <point x="160" y="-42" type="curve" smooth="yes"/>
      <point x="160" y="-122"/>
      <point x="211" y="-203"/>
      <point x="313" y="-203" type="curve"/>
      <point x="313" y="-128" type="line"/>
      <point x="264" y="-128"/>
      <point x="235" y="-95"/>
      <point x="235" y="-40" type="curve" smooth="yes"/>
      <point x="235" y="13"/>
      <point x="265" y="67"/>
    </contour>
  </outline>
</glyph>
<glyph name="Iotaafrican" format="2">
  <advance width="304"/>
  <unicode hex="0196"/>
  <anchor x="103" y="0" name="bottom"/>
  <anchor x="103" y="700" name="top"/>
  <outline>
    <contour>
      <point x="248" y="61" type="curve" smooth="yes"/>
      <point x="180" y="61"/>
      <point x="140" y="97"/>
      <point x="140" y="191" type="curve" smooth="yes"/>
      <point x="140" y="662" type="line"/>
      <point x="65" y="662" type="line"/>
      <point x="65" y="169" type="line" smooth="yes"/>
      <point x="65" y="53"/>
      <point x="137" y="-8"/>
      <point x="239" y="-8" type="curve" smooth="yes"/>
      <point x="256" y="-8"/>
      <point x="275" y="-7"/>
      <point x="294" y="-3" type="curve"/>
      <point x="294" y="65" type="line"/>
      <point x="278" y="62"/>
      <point x="263" y="61"/>
    </contour>
  </outline>
</glyph>
<glyph name="Istroke" format="2">
  <advance width="237"/>
  <unicode hex="0197"/>
  <anchor x="119" y="0" name="bottom"/>
  <anchor x="119" y="662" name="top"/>
  <anchor x="166" y="2" name="ogonek"/>
  <anchor x="20" y="662" name="topleft"/>
  <outline>
    <contour>
      <point x="230" y="364" type="line"/>
      <point x="7" y="364" type="line"/>
      <point x="7" y="299" type="line"/>
      <point x="230" y="299" type="line"/>
    </contour>
    <component base="I"/>
  </outline>
</glyph>
<glyph name="lbar" format="2">
  <advance width="261"/>
  <unicode hex="019A"/>
  <anchor x="131" y="0" name="bottom"/>
  <anchor x="131" y="350" name="center"/>
  <anchor x="131" y="700" name="top"/>
  <anchor x="213" y="499" name="topright"/>
  <outline>
    <contour>
      <point x="254" y="393" type="line"/>
      <point x="7" y="393" type="line"/>
      <point x="7" y="328" type="line"/>
      <point x="254" y="328" type="line"/>
    </contour>
    <component base="l" xOffset="28"/>
  </outline>
</glyph>
<glyph name="lambdastroke" format="2">
  <advance width="600"/>
  <unicode hex="019B"/>
  <outline>
    <contour>
      <point x="544" y="60" type="curve" smooth="yes"/>
      <point x="505" y="60"/>
      <point x="480" y="84"/>
      <point x="457" y="128" type="curve"/>
      <point x="318" y="456" type="line"/>
      <point x="276" y="556" type="line" smooth="yes"/>
      <point x="273" y="562"/>
      <point x="271" y="569"/>
      <point x="268" y="575" type="curve"/>
      <point x="362" y="613" type="line"/>
      <point x="337" y="674" type="line"/>
      <point x="235" y="633" type="line"/>
      <point x="206" y="675"/>
      <point x="167" y="708"/>
      <point x="116" y="708" type="curve" smooth="yes"/>
      <point x="87" y="708"/>
      <point x="59" y="698"/>
      <point x="32" y="682" type="curve"/>
      <point x="32" y="613" type="line"/>
      <point x="41" y="619"/>
      <point x="76" y="638"/>
      <point x="107" y="638" type="curve" smooth="yes"/>
      <point x="130" y="638"/>
      <point x="149" y="624"/>
      <point x="165" y="604" type="curve"/>
      <point x="57" y="561" type="line"/>
      <point x="81" y="500" type="line"/>
      <point x="198" y="547" type="line"/>
      <point x="202" y="538"/>
      <point x="206" y="530"/>
      <point x="209" y="522" type="curve" smooth="yes"/>
      <point x="224" y="487" type="line"/>
      <point x="22" y="0" type="line"/>
      <point x="105" y="0" type="line"/>
      <point x="266" y="410" type="line"/>
      <point x="384" y="115" type="line" smooth="yes"/>
      <point x="417" y="33"/>
      <point x="469" y="-9"/>
      <point x="536" y="-9" type="curve" smooth="yes"/>
      <point x="548" y="-9"/>
      <point x="562" y="-7"/>
      <point x="576" y="-4" type="curve"/>
      <point x="576" y="65" type="line"/>
      <point x="565" y="62"/>
      <point x="553" y="60"/>
    </contour>
  </outline>
</glyph>
<glyph name="Ohorn" format="2">
  <advance width="750"/>
  <unicode hex="01A0"/>
  <anchor x="534" y="662" name="_topright"/>
  <anchor x="375" y="0" name="bottom"/>
  <anchor x="375" y="662" name="top"/>
  <anchor x="665" y="830" name="topright"/>
  <anchor x="375" y="331" name="center"/>
  <anchor x="455" y="0" name="ogonek"/>
  <anchor x="20" y="662" name="topleft"/>
  <outline>
    <contour>
      <point x="563" y="771" type="line"/>
      <point x="563" y="696"/>
      <point x="529" y="662"/>
      <point x="479" y="662" type="curve" smooth="yes"/>
      <point x="441" y="662" type="line"/>
      <point x="459" y="592" type="line"/>
      <point x="479" y="592" type="line" smooth="yes"/>
      <point x="570" y="592"/>
      <point x="633" y="653"/>
      <point x="633" y="771" type="curve"/>
    </contour>
    <component base="O"/>
  </outline>
</glyph>
<glyph name="Phook" format="2">
  <advance width="751"/>
  <unicode hex="01A4"/>
  <anchor x="454" y="662" name="_top"/>
  <anchor x="437" y="0" name="bottom"/>
  <anchor x="437" y="662" name="top"/>
  <outline>
    <contour>
      <point x="204" y="591" type="curve"/>
      <point x="204" y="662" type="line"/>
      <point x="182" y="662" type="line" smooth="yes"/>
      <point x="66" y="662"/>
      <point x="5" y="590"/>
      <point x="5" y="488" type="curve" smooth="yes"/>
      <point x="5" y="471"/>
      <point x="6" y="452"/>
      <point x="10" y="433" type="curve"/>
      <point x="78" y="433" type="line"/>
      <point x="75" y="449"/>
      <point x="74" y="464"/>
      <point x="74" y="479" type="curve" smooth="yes"/>
      <point x="74" y="547"/>
      <point x="110" y="591"/>
    </contour>
    <component base="P" xOffset="123"/>
  </outline>
</glyph>
<glyph name="Esh" format="2">
  <advance width="608"/>
  <unicode hex="01A9"/>
  <anchor x="344" y="0" name="bottom"/>
  <anchor x="578" y="0" name="ogonek"/>
  <anchor x="334" y="662" name="top"/>
  <anchor x="20" y="662" name="topleft"/>
  <outline>
    <contour>
      <point x="535" y="662" type="line"/>
      <point x="88" y="662" type="line"/>
      <point x="88" y="590" type="line"/>
      <point x="336" y="322" type="line"/>
      <point x="81" y="72" type="line"/>
      <point x="81" y="0" type="line"/>
      <point x="528" y="0" type="line"/>
      <point x="528" y="72" type="line"/>
      <point x="186" y="72" type="line"/>
      <point x="440" y="321" type="line"/>
      <point x="191" y="590" type="line"/>
      <point x="535" y="590" type="line"/>
    </contour>
  </outline>
</glyph>
<glyph name="Thook" format="2">
  <advance width="629"/>
  <unicode hex="01AC"/>
  <guideline x="384" y="590" angle="0"/>
  <anchor x="322" y="0" name="bottom"/>
  <anchor x="347" y="331" name="center"/>
  <anchor x="347" y="662" name="top"/>
  <outline>
    <contour>
      <point x="615" y="662" type="line"/>
      <point x="182" y="662" type="line"/>
      <point x="66" y="658"/>
      <point x="5" y="590"/>
      <point x="5" y="488" type="curve" smooth="yes"/>
      <point x="5" y="471"/>
      <point x="6" y="452"/>
      <point x="10" y="433" type="curve"/>
      <point x="78" y="433" type="line"/>
      <point x="75" y="449"/>
      <point x="74" y="464"/>
      <point x="74" y="479" type="curve" smooth="yes"/>
      <point x="74" y="547"/>
      <point x="110" y="590"/>
      <point x="204" y="590" type="curve" smooth="yes"/>
      <point x="309" y="590" type="line"/>
      <point x="309" y="0" type="line"/>
      <point x="384" y="0" type="line"/>
      <point x="384" y="590" type="line"/>
      <point x="615" y="590" type="line"/>
    </contour>
  </outline>
</glyph>
<glyph name="Uhorn" format="2">
  <advance width="709"/>
  <unicode hex="01AF"/>
  <anchor x="355" y="0" name="bottom"/>
  <anchor x="434" y="10" name="ogonek"/>
  <anchor x="355" y="662" name="top"/>
  <anchor x="689" y="662" name="topright"/>
  <outline>
    <contour>
      <point x="788" y="771" type="curve"/>
      <point x="718" y="771" type="line"/>
      <point x="718" y="696"/>
      <point x="684" y="662"/>
      <point x="634" y="662" type="curve" smooth="yes"/>
      <point x="561" y="662" type="line"/>
      <point x="561" y="283" type="line" smooth="yes"/>
      <point x="561" y="129"/>
      <point x="459" y="65"/>
      <point x="354" y="65" type="curve" smooth="yes"/>
      <point x="249" y="65"/>
      <point x="148" y="129"/>
      <point x="148" y="283" type="curve" smooth="yes"/>
      <point x="148" y="662" type="line"/>
      <point x="73" y="662" type="line"/>
      <point x="73" y="285" type="line" smooth="yes"/>
      <point x="73" y="109"/>
      <point x="189" y="-8"/>
      <point x="354" y="-8" type="curve" smooth="yes"/>
      <point x="520" y="-8"/>
      <point x="636" y="110"/>
      <point x="636" y="285" type="curve" smooth="yes"/>
      <point x="636" y="592" type="line"/>
      <point x="726" y="593"/>
      <point x="788" y="654"/>
    </contour>
  </outline>
</glyph>
<glyph name="Vhook" format="2">
  <advance width="702"/>
  <unicode hex="01B2"/>
  <anchor x="351" y="0" name="bottom"/>
  <anchor x="351" y="662" name="top"/>
  <outline>
    <contour>
      <point x="398" y="669" type="curve"/>
      <point x="398" y="601" type="line"/>
      <point x="411" y="603"/>
      <point x="427" y="605"/>
      <point x="441" y="605" type="curve" smooth="yes"/>
      <point x="525" y="605"/>
      <point x="556" y="559"/>
      <point x="556" y="432" type="curve" smooth="yes"/>
      <point x="556" y="277"/>
      <point x="472" y="65"/>
      <point x="289" y="65" type="curve" smooth="yes"/>
      <point x="190" y="65"/>
      <point x="148" y="104"/>
      <point x="148" y="218" type="curve" smooth="yes"/>
      <point x="148" y="662" type="line"/>
      <point x="73" y="662" type="line"/>
      <point x="73" y="201" type="line" smooth="yes"/>
      <point x="73" y="59"/>
      <point x="144" y="-8"/>
      <point x="285" y="-8" type="curve" smooth="yes"/>
      <point x="482" y="-8"/>
      <point x="629" y="195"/>
      <point x="629" y="438" type="curve" smooth="yes"/>
      <point x="629" y="599"/>
      <point x="570" y="674"/>
      <point x="460" y="674" type="curve" smooth="yes"/>
      <point x="437" y="674"/>
      <point x="416" y="672"/>
    </contour>
  </outline>
</glyph>
<glyph name="yhook" format="2">
  <advance width="652"/>
  <unicode hex="01B4"/>
  <anchor x="249" y="0" name="bottom"/>
  <anchor x="249" y="500" name="top"/>
  <outline>
    <contour>
      <point x="584" y="670" type="curve" smooth="yes"/>
      <point x="490" y="670"/>
      <point x="453" y="597"/>
      <point x="411" y="498" type="curve" smooth="yes"/>
      <point x="248" y="90" type="line"/>
      <point x="87" y="500" type="line"/>
      <point x="4" y="500" type="line"/>
      <point x="208" y="7" type="line"/>
      <point x="117" y="-198" type="line"/>
      <point x="198" y="-198" type="line"/>
      <point x="494" y="500" type="line" smooth="yes"/>
      <point x="515" y="549"/>
      <point x="539" y="596"/>
      <point x="583" y="596" type="curve" smooth="yes"/>
      <point x="615" y="596"/>
      <point x="625" y="571"/>
      <point x="636" y="537" type="curve"/>
      <point x="692" y="562" type="line"/>
      <point x="677" y="641"/>
      <point x="634" y="670"/>
    </contour>
  </outline>
</glyph>
<glyph name="clicklateral" format="2">
  <advance width="398"/>
  <unicode hex="01C1"/>
  <outline>
    <contour>
      <point x="86" y="-198" type="line"/>
      <point x="161" y="-198" type="line"/>
      <point x="161" y="700" type="line"/>
      <point x="86" y="700" type="line"/>
    </contour>
    <contour>
      <point x="237" y="-198" type="line"/>
      <point x="312" y="-198" type="line"/>
      <point x="312" y="700" type="line"/>
      <point x="237" y="700" type="line"/>
    </contour>
  </outline>
</glyph>
<glyph name="clickalveolar" format="2">
  <advance width="247"/>
  <unicode hex="01C2"/>
  <outline>
    <contour>
      <point x="247" y="328" type="line"/>
      <point x="247" y="393" type="line"/>
      <point x="161" y="393" type="line"/>
      <point x="161" y="700" type="line"/>
      <point x="86" y="700" type="line"/>
      <point x="86" y="393" type="line"/>
      <point x="0" y="393" type="line"/>
      <point x="0" y="328" type="line"/>
      <point x="86" y="328" type="line"/>
      <point x="86" y="246" type="line"/>
      <point x="0" y="246" type="line"/>
      <point x="0" y="181" type="line"/>
      <point x="86" y="181" type="line"/>
      <point x="86" y="-198" type="line"/>
      <point x="161" y="-198" type="line"/>
      <point x="161" y="181" type="line"/>
      <point x="247" y="181" type="line"/>
      <point x="247" y="246" type="line"/>
      <point x="161" y="246" type="line"/>
      <point x="161" y="328" type="line"/>
    </contour>
  </outline>
</glyph>
<glyph name="Gstroke" format="2">
  <advance width="723"/>
  <unicode hex="01E4"/>
  <anchor x="362" y="0" name="bottom"/>
  <anchor x="362" y="662" name="top"/>
  <outline>
    <contour>
      <point x="709" y="217" type="line"/>
      <point x="361" y="217" type="line"/>
      <point x="361" y="152" type="line"/>
      <point x="709" y="152" type="line"/>
    </contour>
    <component base="G"/>
  </outline>
</glyph>
<glyph name="Nlongrightleg" format="2">
  <advance width="658"/>
  <unicode hex="0220"/>
  <anchor x="299" y="161" name="bottom"/>
  <anchor x="299" y="661" name="top"/>
  <outline>
    <contour>
      <point x="81" y="0" type="line"/>
      <point x="156" y="0" type="line"/>
      <point x="156" y="452" type="line" smooth="yes"/>
      <point x="156" y="550"/>
      <point x="241" y="598"/>
      <point x="327" y="598" type="curve" smooth="yes"/>
      <point x="414" y="598"/>
      <point x="502" y="561"/>
      <point x="502" y="450" type="curve" smooth="yes"/>
      <point x="502" y="-198" type="line"/>
      <point x="577" y="-198" type="line"/>
      <point x="577" y="452" type="line" smooth="yes"/>
      <point x="577" y="604"/>
      <point x="464" y="671"/>
      <point x="347" y="671" type="curve" smooth="yes"/>
      <point x="277" y="671"/>
      <point x="204" y="643"/>
      <point x="156" y="583" type="curve"/>
      <point x="156" y="661" type="line"/>
      <point x="81" y="661" type="line"/>
    </contour>
  </outline>
</glyph>
<glyph name="OU" format="2">
  <advance width="750"/>
  <unicode hex="0222"/>
  <anchor x="375" y="0" name="bottom"/>
  <anchor x="375" y="-345" name="center"/>
  <anchor x="454" y="10" name="ogonek"/>
  <anchor x="375" y="662" name="top"/>
  <anchor x="20" y="-14" name="topleft"/>
  <anchor x="709" y="662" name="topright"/>
  <outline>
    <contour>
      <point x="561" y="354" type="curve"/>
      <point x="621" y="383"/>
      <point x="656" y="427"/>
      <point x="656" y="481" type="curve" smooth="yes"/>
      <point x="656" y="662" type="line"/>
      <point x="581" y="662" type="line"/>
      <point x="581" y="481" type="line" smooth="yes"/>
      <point x="581" y="413"/>
      <point x="480" y="380"/>
      <point x="375" y="380" type="curve" smooth="yes"/>
      <point x="270" y="380"/>
      <point x="168" y="413"/>
      <point x="168" y="481" type="curve" smooth="yes"/>
      <point x="168" y="662" type="line"/>
      <point x="93" y="662" type="line"/>
      <point x="93" y="481" type="line" smooth="yes"/>
      <point x="93" y="427"/>
      <point x="129" y="383"/>
      <point x="188" y="354" type="curve"/>
      <point x="90" y="321"/>
      <point x="39" y="259"/>
      <point x="39" y="187" type="curve" smooth="yes"/>
      <point x="39" y="82"/>
      <point x="154" y="-8"/>
      <point x="375" y="-8" type="curve" smooth="yes"/>
      <point x="596" y="-8"/>
      <point x="711" y="82"/>
      <point x="711" y="187" type="curve" smooth="yes"/>
      <point x="711" y="259"/>
      <point x="660" y="321"/>
    </contour>
    <contour>
      <point x="375" y="62" type="curve" smooth="yes"/>
      <point x="214" y="62"/>
      <point x="114" y="119"/>
      <point x="114" y="187" type="curve" smooth="yes"/>
      <point x="114" y="259"/>
      <point x="214" y="317"/>
      <point x="375" y="317" type="curve" smooth="yes"/>
      <point x="536" y="317"/>
      <point x="636" y="259"/>
      <point x="636" y="187" type="curve" smooth="yes"/>
      <point x="636" y="119"/>
      <point x="536" y="62"/>
    </contour>
  </outline>
</glyph>
<glyph name="ecedilla" format="2">
  <advance width="557"/>
  <unicode hex="0229"/>
  <anchor x="279" y="0" name="bottom"/>
  <anchor x="399" y="0" name="ogonek"/>
  <anchor x="279" y="500" name="top"/>
  <outline>
    <contour>
      <point x="530" y="250" type="line" smooth="yes"/>
      <point x="530" y="393"/>
      <point x="435" y="508"/>
      <point x="282" y="508" type="curve" smooth="yes"/>
      <point x="129" y="508"/>
      <point x="34" y="393"/>
      <point x="34" y="250" type="curve" smooth="yes"/>
      <point x="34" y="115"/>
      <point x="123" y="5"/>
      <point x="261" y="-7" type="curve"/>
      <point x="214" y="-81" type="line"/>
      <point x="235" y="-98" type="line"/>
      <point x="245" y="-95"/>
      <point x="258" y="-93"/>
      <point x="270" y="-93" type="curve" smooth="yes"/>
      <point x="298" y="-93"/>
      <point x="323" y="-106"/>
      <point x="323" y="-126" type="curve" smooth="yes"/>
      <point x="323" y="-153"/>
      <point x="298" y="-162"/>
      <point x="268" y="-162" type="curve" smooth="yes"/>
      <point x="232" y="-162"/>
      <point x="204" y="-147"/>
      <point x="183" y="-132" type="curve"/>
      <point x="164" y="-165" type="line"/>
      <point x="189" y="-186"/>
      <point x="231" y="-206"/>
      <point x="282" y="-206" type="curve" smooth="yes"/>
      <point x="343" y="-206"/>
      <point x="396" y="-181"/>
      <point x="396" y="-125" type="curve" smooth="yes"/>
      <point x="396" y="-77"/>
      <point x="354" y="-48"/>
      <point x="304" y="-48" type="curve" smooth="yes"/>
      <point x="297" y="-48"/>
      <point x="288" y="-49"/>
      <point x="282" y="-50" type="curve"/>
      <point x="306" y="-7" type="line"/>
      <point x="414" y="-1"/>
      <point x="482" y="59"/>
      <point x="515" y="144" type="curve"/>
      <point x="433" y="144" type="line"/>
      <point x="406" y="94"/>
      <point x="358" y="60"/>
      <point x="288" y="60" type="curve" smooth="yes"/>
      <point x="187" y="60"/>
      <point x="122" y="131"/>
      <point x="111" y="220" type="curve"/>
      <point x="530" y="220" type="line"/>
    </contour>
    <contour>
      <point x="112" y="290" type="line"/>
      <point x="126" y="375"/>
      <point x="186" y="440"/>
      <point x="282" y="440" type="curve" smooth="yes"/>
      <point x="378" y="440"/>
      <point x="438" y="375"/>
      <point x="452" y="290" type="curve"/>
    </contour>
  </outline>
</glyph>
<glyph name="Astroke" format="2">
  <advance width="662"/>
  <unicode hex="023A"/>
  <anchor x="329" y="0" name="_bottom"/>
  <anchor x="331" y="0" name="bottom"/>
  <anchor x="669" y="0" name="ogonek"/>
  <anchor x="331" y="662" name="top"/>
  <outline>
    <contour>
      <point x="129" y="-75" type="line"/>
      <point x="199" y="-75" type="line"/>
      <point x="540" y="725" type="line"/>
      <point x="470" y="725" type="line"/>
    </contour>
    <component base="A"/>
  </outline>
</glyph>
<glyph name="Cstroke" format="2">
  <advance width="690"/>
  <unicode hex="023B"/>
  <anchor x="345" y="0" name="_bottom"/>
  <anchor x="345" y="0" name="bottom"/>
  <anchor x="345" y="662" name="top"/>
  <outline>
    <contour>
      <point x="145" y="-75" type="line"/>
      <point x="215" y="-75" type="line"/>
      <point x="556" y="725" type="line"/>
      <point x="486" y="725" type="line"/>
    </contour>
    <component base="C"/>
  </outline>
</glyph>
<glyph name="Lbar" format="2">
  <advance width="533"/>
  <unicode hex="023D"/>
  <anchor x="287" y="0" name="bottom"/>
  <anchor x="267" y="331" name="center"/>
  <anchor x="119" y="662" name="top"/>
  <anchor x="406" y="464" name="topright"/>
  <outline>
    <contour>
      <point x="355" y="363" type="line"/>
      <point x="7" y="363" type="line"/>
      <point x="7" y="298" type="line"/>
      <point x="355" y="298" type="line"/>
    </contour>
    <component base="L"/>
  </outline>
</glyph>
<glyph name="Tdiagonalstroke" format="2">
  <advance width="565"/>
  <unicode hex="023E"/>
  <anchor x="309" y="0" name="_bottom"/>
  <anchor x="283" y="0" name="bottom"/>
  <anchor x="283" y="331" name="center"/>
  <anchor x="283" y="662" name="top"/>
  <outline>
    <contour>
      <point x="109" y="-75" type="line"/>
      <point x="179" y="-75" type="line"/>
      <point x="520" y="725" type="line"/>
      <point x="450" y="725" type="line"/>
    </contour>
    <component base="T"/>
  </outline>
</glyph>
<glyph name="glottalstopsmall" format="2">
  <advance width="510"/>
  <unicode hex="0242"/>
  <outline>
    <contour>
      <point x="260" y="508" type="curve" smooth="yes"/>
      <point x="128" y="508"/>
      <point x="45" y="414"/>
      <point x="39" y="304" type="curve"/>
      <point x="110" y="304" type="line"/>
      <point x="116" y="374"/>
      <point x="168" y="439"/>
      <point x="266" y="439" type="curve" smooth="yes"/>
      <point x="364" y="439"/>
      <point x="394" y="377"/>
      <point x="394" y="327" type="curve" smooth="yes"/>
      <point x="394" y="212"/>
      <point x="227" y="194"/>
      <point x="227" y="41" type="curve" smooth="yes"/>
      <point x="227" y="0" type="line"/>
      <point x="300" y="0" type="line"/>
      <point x="300" y="41" type="line" smooth="yes"/>
      <point x="300" y="173"/>
      <point x="465" y="181"/>
      <point x="465" y="327" type="curve" smooth="yes"/>
      <point x="465" y="417"/>
      <point x="404" y="508"/>
    </contour>
  </outline>
</glyph>
<glyph name="Bstroke" format="2">
  <advance width="662"/>
  <unicode hex="0243"/>
  <anchor x="331" y="0" name="bottom"/>
  <anchor x="331" y="662" name="top"/>
  <outline>
    <contour>
      <point x="344" y="217" type="line"/>
      <point x="16" y="217" type="line"/>
      <point x="16" y="152" type="line"/>
      <point x="344" y="152" type="line"/>
    </contour>
    <component base="B"/>
  </outline>
</glyph>
<glyph name="Ubar" format="2">
  <advance width="709"/>
  <unicode hex="0244"/>
  <anchor x="355" y="0" name="bottom"/>
  <anchor x="434" y="10" name="ogonek"/>
  <anchor x="355" y="662" name="top"/>
  <anchor x="689" y="662" name="topright"/>
  <outline>
    <contour>
      <point x="702" y="363" type="line"/>
      <point x="7" y="363" type="line"/>
      <point x="7" y="298" type="line"/>
      <point x="702" y="298" type="line"/>
    </contour>
    <component base="U"/>
  </outline>
</glyph>
<glyph name="Jstroke" format="2">
  <advance width="527"/>
  <unicode hex="0248"/>
  <anchor x="415" y="0" name="bottom"/>
  <anchor x="462" y="0" name="ogonek"/>
  <anchor x="415" y="662" name="top"/>
  <anchor x="316" y="662" name="topleft"/>
  <outline>
    <contour>
      <point x="558" y="364" type="line"/>
      <point x="210" y="364" type="line"/>
      <point x="210" y="299" type="line"/>
      <point x="558" y="299" type="line"/>
    </contour>
    <component base="J"/>
  </outline>
</glyph>
<glyph name="jstroke" format="2">
  <advance width="205"/>
  <unicode hex="0249"/>
  <outline>
    <contour>
      <point x="0" y="218" type="line"/>
      <point x="205" y="218" type="line"/>
      <point x="205" y="283" type="line"/>
      <point x="0" y="283" type="line"/>
    </contour>
    <component base="j"/>
  </outline>
</glyph>
<glyph name="Qhooktail" format="2">
  <advance width="752"/>
  <unicode hex="024A"/>
  <anchor x="335" y="0" name="bottom"/>
  <anchor x="335" y="331" name="center"/>
  <anchor x="415" y="0" name="ogonek"/>
  <anchor x="335" y="662" name="top"/>
  <anchor x="-20" y="662" name="topleft"/>
  <anchor x="494" y="662" name="topright"/>
  <outline>
    <contour>
      <point x="671" y="8" type="curve" smooth="yes"/>
      <point x="671" y="662" type="line"/>
      <point x="596" y="662" type="line"/>
      <point x="596" y="557" type="line"/>
      <point x="540" y="626"/>
      <point x="457" y="670"/>
      <point x="355" y="670" type="curve" smooth="yes"/>
      <point x="166" y="670"/>
      <point x="39" y="519"/>
      <point x="39" y="331" type="curve" smooth="yes"/>
      <point x="39" y="143"/>
      <point x="166" y="-8"/>
      <point x="355" y="-8" type="curve" smooth="yes"/>
      <point x="457" y="-8"/>
      <point x="541" y="35"/>
      <point x="596" y="104" type="curve"/>
      <point x="596" y="-21" type="line" smooth="yes"/>
      <point x="596" y="-141"/>
      <point x="672" y="-206"/>
      <point x="773" y="-206" type="curve"/>
      <point x="773" y="-137" type="line"/>
      <point x="704" y="-137"/>
      <point x="671" y="-93"/>
    </contour>
    <contour>
      <point x="355" y="65" type="curve" smooth="yes"/>
      <point x="206" y="65"/>
      <point x="114" y="182"/>
      <point x="114" y="331" type="curve" smooth="yes"/>
      <point x="114" y="480"/>
      <point x="206" y="597"/>
      <point x="355" y="597" type="curve" smooth="yes"/>
      <point x="504" y="597"/>
      <point x="596" y="480"/>
      <point x="596" y="331" type="curve" smooth="yes"/>
      <point x="596" y="181"/>
      <point x="505" y="65"/>
    </contour>
  </outline>
</glyph>
<glyph name="qhooktail" format="2">
  <advance width="595"/>
  <unicode hex="024B"/>
  <anchor x="215" y="-79" name="_bottom"/>
  <anchor x="298" y="0" name="bottom"/>
  <anchor x="540" y="0" name="ogonek"/>
  <anchor x="298" y="500" name="top"/>
  <outline>
    <contour>
      <point x="600" y="-206" type="curve" smooth="yes"/>
      <point x="610" y="-206"/>
      <point x="619" y="-205"/>
      <point x="630" y="-204" type="curve"/>
      <point x="630" y="-136" type="line"/>
      <point x="621" y="-138"/>
      <point x="614" y="-139"/>
      <point x="606" y="-139" type="curve" smooth="yes"/>
      <point x="534" y="-139"/>
      <point x="530" y="-95"/>
      <point x="530" y="-62" type="curve" smooth="yes"/>
      <point x="530" y="119" type="line"/>
      <point x="455" y="119" type="line"/>
      <point x="455" y="-62" type="line" smooth="yes"/>
      <point x="455" y="-127"/>
      <point x="475" y="-206"/>
    </contour>
    <component base="a"/>
  </outline>
</glyph>
<glyph name="Rstroke" format="2">
  <advance width="669"/>
  <unicode hex="024C"/>
  <anchor x="335" y="0" name="bottom"/>
  <anchor x="335" y="662" name="top"/>
  <outline>
    <contour>
      <point x="262" y="325" type="line"/>
      <point x="-25" y="325" type="line"/>
      <point x="-25" y="254" type="line"/>
      <point x="262" y="254" type="line"/>
    </contour>
    <component base="R"/>
  </outline>
</glyph>
<glyph name="Ystroke" format="2">
  <advance width="636"/>
  <unicode hex="024E"/>
  <anchor x="319" y="0" name="bottom"/>
  <anchor x="319" y="662" name="top"/>
  <anchor x="24" y="662" name="topleft"/>
  <outline>
    <contour>
      <point x="636" y="542" type="line"/>
      <point x="0" y="542" type="line"/>
      <point x="0" y="477" type="line"/>
      <point x="636" y="477" type="line"/>
    </contour>
    <component base="Y"/>
  </outline>
</glyph>
<glyph name="alpha-latin" format="2">
  <advance width="610"/>
  <unicode hex="0251"/>
  <anchor x="298" y="0" name="bottom"/>
  <anchor x="536" y="10" name="ogonek"/>
  <anchor x="298" y="500" name="top"/>
  <outline>
    <contour>
      <point x="530" y="198" type="curve" smooth="yes"/>
      <point x="530" y="500" type="line"/>
      <point x="455" y="500" type="line"/>
      <point x="455" y="419" type="line"/>
      <point x="418" y="473"/>
      <point x="359" y="508"/>
      <point x="276" y="508" type="curve" smooth="yes"/>
      <point x="130" y="508"/>
      <point x="34" y="393"/>
      <point x="34" y="250" type="curve" smooth="yes"/>
      <point x="34" y="107"/>
      <point x="130" y="-8"/>
      <point x="276" y="-8" type="curve" smooth="yes"/>
      <point x="354" y="-8"/>
      <point x="431" y="28"/>
      <point x="468" y="90" type="curve"/>
      <point x="495" y="27"/>
      <point x="556" y="-8"/>
      <point x="630" y="-8" type="curve"/>
      <point x="630" y="61" type="line"/>
      <point x="563" y="60"/>
      <point x="530" y="103"/>
    </contour>
    <contour>
      <point x="286" y="60" type="curve" smooth="yes"/>
      <point x="175" y="60"/>
      <point x="109" y="147"/>
      <point x="109" y="250" type="curve" smooth="yes"/>
      <point x="109" y="353"/>
      <point x="175" y="440"/>
      <point x="286" y="440" type="curve" smooth="yes"/>
      <point x="397" y="440"/>
      <point x="459" y="353"/>
      <point x="459" y="250" type="curve" smooth="yes"/>
      <point x="459" y="147"/>
      <point x="397" y="60"/>
    </contour>
  </outline>
</glyph>
<glyph name="dhook" format="2">
  <advance width="600"/>
  <unicode hex="0257"/>
  <anchor x="298" y="0" name="bottom"/>
  <anchor x="298" y="250" name="center"/>
  <anchor x="298" y="700" name="top"/>
  <anchor x="575" y="500" name="topright"/>
  <outline>
    <contour>
      <point x="600" y="708" type="curve" smooth="yes"/>
      <point x="475" y="708"/>
      <point x="455" y="629"/>
      <point x="455" y="564" type="curve" smooth="yes"/>
      <point x="455" y="419" type="line"/>
      <point x="418" y="473"/>
      <point x="359" y="508"/>
      <point x="276" y="508" type="curve" smooth="yes"/>
      <point x="130" y="508"/>
      <point x="34" y="393"/>
      <point x="34" y="250" type="curve" smooth="yes"/>
      <point x="34" y="107"/>
      <point x="130" y="-8"/>
      <point x="276" y="-8" type="curve" smooth="yes"/>
      <point x="359" y="-8"/>
      <point x="418" y="26"/>
      <point x="455" y="80" type="curve"/>
      <point x="455" y="0" type="line"/>
      <point x="530" y="0" type="line"/>
      <point x="530" y="564" type="line" smooth="yes"/>
      <point x="530" y="597"/>
      <point x="534" y="641"/>
      <point x="606" y="641" type="curve" smooth="yes"/>
      <point x="614" y="641"/>
      <point x="621" y="640"/>
      <point x="630" y="638" type="curve"/>
      <point x="630" y="706" type="line"/>
      <point x="619" y="707"/>
      <point x="610" y="708"/>
    </contour>
    <contour>
      <point x="286" y="60" type="curve" smooth="yes"/>
      <point x="175" y="60"/>
      <point x="109" y="147"/>
      <point x="109" y="250" type="curve" smooth="yes"/>
      <point x="109" y="353"/>
      <point x="175" y="440"/>
      <point x="286" y="440" type="curve" smooth="yes"/>
      <point x="397" y="440"/>
      <point x="459" y="353"/>
      <point x="459" y="250" type="curve" smooth="yes"/>
      <point x="459" y="147"/>
      <point x="397" y="60"/>
    </contour>
  </outline>
</glyph>
<glyph name="ghook" format="2">
  <advance width="600"/>
  <unicode hex="0260"/>
  <anchor x="215" y="581" name="_top"/>
  <anchor x="298" y="-198" name="bottom"/>
  <anchor x="298" y="500" name="top"/>
  <outline>
    <contour>
      <point x="600" y="708" type="curve" smooth="yes"/>
      <point x="475" y="708"/>
      <point x="455" y="629"/>
      <point x="455" y="564" type="curve" smooth="yes"/>
      <point x="455" y="383" type="line"/>
      <point x="530" y="383" type="line"/>
      <point x="530" y="564" type="line" smooth="yes"/>
      <point x="530" y="597"/>
      <point x="534" y="641"/>
      <point x="606" y="641" type="curve" smooth="yes"/>
      <point x="614" y="641"/>
      <point x="621" y="640"/>
      <point x="630" y="638" type="curve"/>
      <point x="630" y="706" type="line"/>
      <point x="619" y="707"/>
      <point x="610" y="708"/>
    </contour>
    <component base="g"/>
  </outline>
</glyph>
<glyph name="iota-latin" format="2">
  <advance width="304"/>
  <unicode hex="0269"/>
  <anchor x="103" y="0" name="bottom"/>
  <anchor x="103" y="500" name="top"/>
  <outline>
    <contour>
      <point x="248" y="60" type="curve" smooth="yes"/>
      <point x="180" y="60"/>
      <point x="140" y="97"/>
      <point x="140" y="191" type="curve" smooth="yes"/>
      <point x="140" y="500" type="line"/>
      <point x="65" y="500" type="line"/>
      <point x="65" y="169" type="line" smooth="yes"/>
      <point x="63" y="55"/>
      <point x="136" y="-8"/>
      <point x="239" y="-8" type="curve" smooth="yes"/>
      <point x="256" y="-8"/>
      <point x="275" y="-7"/>
      <point x="294" y="-3" type="curve"/>
      <point x="294" y="64" type="line"/>
      <point x="278" y="61"/>
      <point x="263" y="60"/>
    </contour>
  </outline>
</glyph>
<glyph name="Ismall" format="2">
  <advance width="329"/>
  <unicode hex="026A"/>
  <anchor x="165" y="0" name="bottom"/>
  <anchor x="211" y="0" name="ogonek"/>
  <anchor x="165" y="500" name="top"/>
  <outline>
    <contour>
      <point x="62" y="434" type="line"/>
      <point x="267" y="434" type="line"/>
      <point x="267" y="500" type="line"/>
      <point x="62" y="500" type="line"/>
    </contour>
    <contour>
      <point x="62" y="0" type="line"/>
      <point x="267" y="0" type="line"/>
      <point x="267" y="66" type="line"/>
      <point x="62" y="66" type="line"/>
    </contour>
    <component base="idotless" xOffset="62"/>
  </outline>
</glyph>
<glyph name="lmiddletilde" format="2">
  <advance width="379"/>
  <unicode hex="026B"/>
  <anchor x="185" y="0" name="bottom"/>
  <anchor x="185" y="350" name="center"/>
  <anchor x="185" y="700" name="top"/>
  <anchor x="267" y="499" name="topright"/>
  <outline>
    <contour>
      <point x="268" y="323" type="curve" smooth="yes"/>
      <point x="341" y="323"/>
      <point x="371" y="376"/>
      <point x="379" y="429" type="curve"/>
      <point x="341" y="429" type="line"/>
      <point x="337" y="411"/>
      <point x="319" y="386"/>
      <point x="286" y="386" type="curve" smooth="yes"/>
      <point x="227" y="386"/>
      <point x="195" y="430"/>
      <point x="112" y="430" type="curve" smooth="yes"/>
      <point x="38" y="430"/>
      <point x="8" y="376"/>
      <point x="0" y="324" type="curve"/>
      <point x="37" y="324" type="line"/>
      <point x="44" y="341"/>
      <point x="58" y="367"/>
      <point x="93" y="367" type="curve" smooth="yes"/>
      <point x="153" y="367"/>
      <point x="184" y="323"/>
    </contour>
    <component base="l" xOffset="82"/>
  </outline>
</glyph>
<glyph name="lbelt" format="2">
  <advance width="205"/>
  <unicode hex="026C"/>
  <anchor x="103" y="0" name="bottom"/>
  <anchor x="103" y="350" name="center"/>
  <anchor x="103" y="700" name="top"/>
  <anchor x="185" y="499" name="topright"/>
  <outline>
    <contour>
      <point x="116" y="363" type="line"/>
      <point x="111" y="423"/>
      <point x="73" y="477"/>
      <point x="7" y="477" type="curve" smooth="yes"/>
      <point x="-43" y="477"/>
      <point x="-77" y="440"/>
      <point x="-77" y="391" type="curve" smooth="yes"/>
      <point x="-77" y="338"/>
      <point x="-37" y="298"/>
      <point x="54" y="298" type="curve" smooth="yes"/>
      <point x="207" y="298" type="line"/>
      <point x="207" y="363" type="line"/>
    </contour>
    <contour>
      <point x="43" y="363" type="line" smooth="yes"/>
      <point x="6" y="363"/>
      <point x="-13" y="377"/>
      <point x="-13" y="397" type="curve" smooth="yes"/>
      <point x="-13" y="415"/>
      <point x="-2" y="427"/>
      <point x="19" y="427" type="curve" smooth="yes"/>
      <point x="49" y="427"/>
      <point x="66" y="402"/>
      <point x="66" y="367" type="curve"/>
      <point x="79" y="363" type="line"/>
    </contour>
    <component base="l"/>
  </outline>
</glyph>
<glyph name="rhook" format="2">
  <advance width="345"/>
  <unicode hex="027D"/>
  <anchor x="-175" y="-79" name="_bottom"/>
  <anchor x="103" y="0" name="bottom"/>
  <anchor x="173" y="500" name="top"/>
  <outline>
    <contour>
      <point x="210" y="-206" type="curve" smooth="yes"/>
      <point x="220" y="-206"/>
      <point x="229" y="-205"/>
      <point x="240" y="-204" type="curve"/>
      <point x="240" y="-136" type="line"/>
      <point x="231" y="-138"/>
      <point x="224" y="-139"/>
      <point x="216" y="-139" type="curve" smooth="yes"/>
      <point x="144" y="-139"/>
      <point x="140" y="-95"/>
      <point x="140" y="-62" type="curve" smooth="yes"/>
      <point x="140" y="119" type="line"/>
      <point x="65" y="119" type="line"/>
      <point x="65" y="-62" type="line" smooth="yes"/>
      <point x="65" y="-127"/>
      <point x="85" y="-206"/>
    </contour>
    <component base="r"/>
  </outline>
</glyph>
<glyph name="esh" format="2">
  <advance width="307"/>
  <unicode hex="0283"/>
  <outline>
    <contour>
      <point x="284" y="708" type="line" smooth="yes"/>
      <point x="169" y="708"/>
      <point x="99" y="653"/>
      <point x="99" y="544" type="curve" smooth="yes"/>
      <point x="99" y="-28" type="line" smooth="yes"/>
      <point x="99" y="-97"/>
      <point x="63" y="-127"/>
      <point x="-7" y="-127" type="curve" smooth="yes"/>
      <point x="-17" y="-127" type="line"/>
      <point x="-17" y="-198" type="line"/>
      <point x="-11" y="-198" type="line" smooth="yes"/>
      <point x="104" y="-198"/>
      <point x="174" y="-143"/>
      <point x="174" y="-34" type="curve" smooth="yes"/>
      <point x="174" y="538" type="line" smooth="yes"/>
      <point x="174" y="607"/>
      <point x="210" y="637"/>
      <point x="280" y="637" type="curve" smooth="yes"/>
      <point x="290" y="637" type="line"/>
      <point x="290" y="708" type="line"/>
    </contour>
  </outline>
</glyph>
<glyph name="tretroflexhook" format="2">
  <advance width="326"/>
  <unicode hex="0288"/>
  <anchor x="-121" y="-79" name="_bottom"/>
  <anchor x="156" y="0" name="bottom"/>
  <anchor x="163" y="250" name="center"/>
  <anchor x="157" y="679" name="top"/>
  <anchor x="306" y="500" name="topright"/>
  <outline>
    <contour>
      <point x="264" y="-206" type="curve" smooth="yes"/>
      <point x="274" y="-206"/>
      <point x="283" y="-205"/>
      <point x="294" y="-204" type="curve"/>
      <point x="294" y="-136" type="line"/>
      <point x="285" y="-138"/>
      <point x="278" y="-139"/>
      <point x="270" y="-139" type="curve" smooth="yes"/>
      <point x="198" y="-139"/>
      <point x="194" y="-95"/>
      <point x="194" y="-62" type="curve" smooth="yes"/>
      <point x="194" y="119" type="line"/>
      <point x="119" y="119" type="line"/>
      <point x="119" y="-62" type="line" smooth="yes"/>
      <point x="119" y="-127"/>
      <point x="139" y="-206"/>
    </contour>
    <component base="t"/>
  </outline>
</glyph>
<glyph name="glottalstop" format="2">
  <advance width="510"/>
  <unicode hex="0294"/>
  <outline>
    <contour>
      <point x="260" y="708" type="curve" smooth="yes"/>
      <point x="128" y="708"/>
      <point x="45" y="614"/>
      <point x="39" y="504" type="curve"/>
      <point x="110" y="504" type="line"/>
      <point x="116" y="574"/>
      <point x="168" y="639"/>
      <point x="266" y="639" type="curve" smooth="yes"/>
      <point x="364" y="639"/>
      <point x="394" y="577"/>
      <point x="394" y="527" type="curve" smooth="yes"/>
      <point x="394" y="412"/>
      <point x="227" y="394"/>
      <point x="227" y="241" type="curve" smooth="yes"/>
      <point x="227" y="0" type="line"/>
      <point x="300" y="0" type="line"/>
      <point x="300" y="241" type="line" smooth="yes"/>
      <point x="300" y="373"/>
      <point x="465" y="381"/>
      <point x="465" y="527" type="curve" smooth="yes"/>
      <point x="465" y="617"/>
      <point x="404" y="708"/>
    </contour>
  </outline>
</glyph>
<glyph name="ringhalfleft" format="2">
  <advance width="189"/>
  <unicode hex="02BF"/>
  <outline>
    <contour>
      <point x="145" y="544" type="line"/>
      <point x="89" y="544"/>
      <point x="44" y="589"/>
      <point x="44" y="645" type="curve" smooth="yes"/>
      <point x="44" y="702"/>
      <point x="89" y="747"/>
      <point x="145" y="747" type="curve"/>
      <point x="145" y="693" type="line"/>
      <point x="118" y="693"/>
      <point x="99" y="674"/>
      <point x="99" y="645" type="curve" smooth="yes"/>
      <point x="99" y="618"/>
      <point x="118" y="599"/>
      <point x="145" y="599" type="curve"/>
    </contour>
  </outline>
</glyph>
<glyph name="breve" format="2">
  <advance width="465"/>
  <unicode hex="02D8"/>
  <outline>
    <contour>
      <point x="226" y="567" type="curve" smooth="yes"/>
      <point x="291" y="567"/>
      <point x="344" y="610"/>
      <point x="344" y="662" type="curve" smooth="yes"/>
      <point x="344" y="673"/>
      <point x="342" y="682"/>
      <point x="338" y="691" type="curve"/>
      <point x="320" y="691" type="line"/>
      <point x="316" y="653"/>
      <point x="275" y="626"/>
      <point x="226" y="626" type="curve" smooth="yes"/>
      <point x="175" y="626"/>
      <point x="135" y="653"/>
      <point x="131" y="691" type="curve"/>
      <point x="113" y="691" type="line"/>
      <point x="110" y="682"/>
      <point x="107" y="673"/>
      <point x="107" y="662" type="curve" smooth="yes"/>
      <point x="107" y="610"/>
      <point x="160" y="567"/>
    </contour>
  </outline>
</glyph>
<glyph name="dotaccent" format="2">
  <advance width="235"/>
  <unicode hex="02D9"/>
  <outline>
    <contour>
      <point x="74" y="579" type="line"/>
      <point x="163" y="579" type="line"/>
      <point x="163" y="662" type="line"/>
      <point x="74" y="662" type="line"/>
    </contour>
  </outline>
</glyph>
<glyph name="ogonek" format="2">
  <advance width="309"/>
  <unicode hex="02DB"/>
  <outline>
    <contour>
      <point x="57" y="-121" type="curve" smooth="yes"/>
      <point x="57" y="-176"/>
      <point x="105" y="-204"/>
      <point x="154" y="-204" type="curve" smooth="yes"/>
      <point x="182" y="-204"/>
      <point x="210" y="-196"/>
      <point x="230" y="-180" type="curve"/>
      <point x="230" y="-141" type="line"/>
      <point x="220" y="-148"/>
      <point x="207" y="-152"/>
      <point x="194" y="-152" type="curve" smooth="yes"/>
      <point x="164" y="-152"/>
      <point x="134" y="-134"/>
      <point x="134" y="-102" type="curve" smooth="yes"/>
      <point x="134" y="-52"/>
      <point x="199" y="-17"/>
      <point x="229" y="2" type="curve"/>
      <point x="173" y="2" type="line"/>
      <point x="126" y="-20"/>
      <point x="57" y="-53"/>
    </contour>
  </outline>
</glyph>
<glyph name="tilde" format="2">
  <advance width="463"/>
  <unicode hex="02DC"/>
  <outline>
    <contour>
      <point x="288" y="569" type="curve" smooth="yes"/>
      <point x="352" y="569"/>
      <point x="377" y="618"/>
      <point x="384" y="667" type="curve"/>
      <point x="352" y="667" type="line"/>
      <point x="347" y="650"/>
      <point x="332" y="627"/>
      <point x="303" y="627" type="curve" smooth="yes"/>
      <point x="257" y="627"/>
      <point x="232" y="668"/>
      <point x="168" y="668" type="curve" smooth="yes"/>
      <point x="103" y="668"/>
      <point x="77" y="619"/>
      <point x="71" y="570" type="curve"/>
      <point x="102" y="570" type="line"/>
      <point x="108" y="587"/>
      <point x="121" y="609"/>
      <point x="152" y="609" type="curve" smooth="yes"/>
      <point x="198" y="609"/>
      <point x="223" y="569"/>
    </contour>
  </outline>
</glyph>
<glyph name="hungarumlaut" format="2">
  <advance width="523"/>
  <unicode hex="02DD"/>
  <outline>
    <contour>
      <point x="86" y="570" type="line"/>
      <point x="147" y="570" type="line"/>
      <point x="254" y="675" type="line"/>
      <point x="147" y="675" type="line"/>
    </contour>
    <contour>
      <point x="242" y="570" type="line"/>
      <point x="303" y="570" type="line"/>
      <point x="410" y="675" type="line"/>
      <point x="303" y="675" type="line"/>
    </contour>
  </outline>
</glyph>
<glyph name="commaturnedabovecomb" format="2">
  <unicode hex="0312"/>
  <anchor x="58.5" y="500" name="_top"/>
  <anchor x="58.5" y="832" name="top"/>
  <outline>
    <contour>
      <point x="0" y="720" type="line"/>
      <point x="44" y="570" type="line"/>
      <point x="117" y="570" type="line"/>
      <point x="51" y="720" type="line"/>
    </contour>
  </outline>
</glyph>
<glyph name="horncomb" format="2">
  <unicode hex="031B"/>
  <anchor x="182" y="537" name="_topright"/>
  <outline>
    <contour>
      <point x="54" y="653" type="line"/>
      <point x="54" y="578"/>
      <point x="20" y="544"/>
      <point x="-30" y="544" type="curve" smooth="yes"/>
      <point x="-50" y="544" type="line"/>
      <point x="-50" y="474" type="line"/>
      <point x="-30" y="474" type="line" smooth="yes"/>
      <point x="61" y="474"/>
      <point x="124" y="535"/>
      <point x="124" y="653" type="curve"/>
    </contour>
  </outline>
</glyph>
<glyph name="cedillacomb" format="2">
  <unicode hex="0327"/>
  <anchor x="116" y="0" name="_bottom"/>
  <anchor x="116" y="-210" name="bottom"/>
  <outline>
    <contour>
      <point x="119" y="-206" type="curve" smooth="yes"/>
      <point x="180" y="-206"/>
      <point x="233" y="-181"/>
      <point x="233" y="-125" type="curve" smooth="yes"/>
      <point x="233" y="-77"/>
      <point x="191" y="-48"/>
      <point x="141" y="-48" type="curve" smooth="yes"/>
      <point x="134" y="-48"/>
      <point x="125" y="-49"/>
      <point x="119" y="-50" type="curve"/>
      <point x="163" y="27" type="line"/>
      <point x="120" y="27" type="line"/>
      <point x="51" y="-81" type="line"/>
      <point x="72" y="-98" type="line"/>
      <point x="82" y="-95"/>
      <point x="95" y="-93"/>
      <point x="107" y="-93" type="curve" smooth="yes"/>
      <point x="135" y="-93"/>
      <point x="160" y="-106"/>
      <point x="160" y="-126" type="curve" smooth="yes"/>
      <point x="160" y="-153"/>
      <point x="135" y="-162"/>
      <point x="105" y="-162" type="curve" smooth="yes"/>
      <point x="69" y="-162"/>
      <point x="41" y="-147"/>
      <point x="20" y="-132" type="curve"/>
      <point x="1" y="-165" type="line"/>
      <point x="26" y="-186"/>
      <point x="68" y="-206"/>
    </contour>
  </outline>
</glyph>
<glyph name="Omega" format="2">
  <advance width="678"/>
  <unicode hex="03A9"/>
  <outline>
    <contour>
      <point x="54" y="0" type="line"/>
      <point x="280" y="0" type="line"/>
      <point x="280" y="59" type="line"/>
      <point x="185" y="116"/>
      <point x="115" y="199"/>
      <point x="115" y="343" type="curve" smooth="yes"/>
      <point x="115" y="471"/>
      <point x="195" y="599"/>
      <point x="339" y="599" type="curve" smooth="yes"/>
      <point x="483" y="599"/>
      <point x="563" y="471"/>
      <point x="563" y="343" type="curve" smooth="yes"/>
      <point x="563" y="199"/>
      <point x="493" y="116"/>
      <point x="398" y="59" type="curve"/>
      <point x="398" y="0" type="line"/>
      <point x="624" y="0" type="line"/>
      <point x="624" y="59" type="line"/>
      <point x="480" y="59" type="line"/>
      <point x="559" y="116"/>
      <point x="633" y="217"/>
      <point x="633" y="353" type="curve" smooth="yes"/>
      <point x="633" y="524"/>
      <point x="515" y="670"/>
      <point x="339" y="670" type="curve" smooth="yes"/>
      <point x="163" y="670"/>
      <point x="45" y="524"/>
      <point x="45" y="353" type="curve" smooth="yes"/>
      <point x="45" y="217"/>
      <point x="119" y="116"/>
      <point x="197" y="59" type="curve"/>
      <point x="54" y="59" type="line"/>
    </contour>
  </outline>
</glyph>
<glyph name="pi" format="2">
  <advance width="578"/>
  <unicode hex="03C0"/>
  <outline>
    <contour>
      <point x="535" y="-7" type="curve"/>
      <point x="535" y="47" type="line"/>
      <point x="490" y="47"/>
      <point x="460" y="68"/>
      <point x="460" y="119" type="curve" smooth="yes"/>
      <point x="460" y="424" type="line"/>
      <point x="557" y="424" type="line"/>
      <point x="557" y="490" type="line"/>
      <point x="19" y="490" type="line"/>
      <point x="19" y="424" type="line"/>
      <point x="116" y="424" type="line"/>
      <point x="116" y="0" type="line"/>
      <point x="190" y="0" type="line"/>
      <point x="190" y="424" type="line"/>
      <point x="387" y="424" type="line"/>
      <point x="387" y="129" type="line" smooth="yes"/>
      <point x="387" y="16"/>
      <point x="453" y="-7"/>
    </contour>
  </outline>
</glyph>
<glyph name="pstroke" format="2">
  <advance width="595"/>
  <unicode hex="1D7D"/>
  <anchor x="297" y="0" name="bottom"/>
  <anchor x="297" y="500" name="top"/>
  <outline>
    <contour>
      <point x="612" y="283" type="line"/>
      <point x="0" y="283" type="line"/>
      <point x="0" y="218" type="line"/>
      <point x="612" y="218" type="line"/>
    </contour>
    <component base="p"/>
  </outline>
</glyph>
<glyph name="acutemacroncomb" format="2">
  <unicode hex="1DC7"/>
  <anchor x="58" y="420" name="_top"/>
  <anchor x="58" y="755" name="top"/>
  <outline>
    <contour>
      <point x="208" y="695" type="line"/>
      <point x="208" y="755" type="line"/>
      <point x="47" y="755" type="line"/>
      <point x="-92" y="660" type="line"/>
      <point x="-57" y="611" type="line"/>
      <point x="65" y="695" type="line"/>
    </contour>
  </outline>
</glyph>
<glyph name="llinebelow" format="2">
  <advance width="205"/>
  <unicode hex="1E3B"/>
  <anchor x="103" y="0" name="bottom"/>
  <anchor x="103" y="350" name="center"/>
  <anchor x="103" y="700" name="top"/>
  <anchor x="185" y="499" name="topright"/>
  <outline>
    <contour>
      <point x="-5" y="-108" type="line"/>
      <point x="210" y="-108" type="line"/>
      <point x="210" y="-48" type="line"/>
      <point x="-5" y="-48" type="line"/>
    </contour>
    <component base="l"/>
  </outline>
</glyph>
<glyph name="Germandbls" format="2">
  <advance width="635"/>
  <unicode hex="1E9E"/>
  <outline>
    <contour>
      <point x="415" y="355" type="curve" smooth="yes"/>
      <point x="394" y="355" type="line"/>
      <point x="557" y="590" type="line"/>
      <point x="557" y="662" type="line"/>
      <point x="259" y="662" type="line" smooth="yes"/>
      <point x="137" y="662"/>
      <point x="65" y="585"/>
      <point x="65" y="476" type="curve" smooth="yes"/>
      <point x="65" y="0" type="line"/>
      <point x="140" y="0" type="line"/>
      <point x="140" y="472" type="line" smooth="yes"/>
      <point x="140" y="567"/>
      <point x="198" y="592"/>
      <point x="278" y="592" type="curve" smooth="yes"/>
      <point x="465" y="592" type="line"/>
      <point x="305" y="355" type="line"/>
      <point x="305" y="287" type="line"/>
      <point x="394" y="287" type="line" smooth="yes"/>
      <point x="475" y="287"/>
      <point x="524" y="251"/>
      <point x="524" y="186" type="curve" smooth="yes"/>
      <point x="524" y="103"/>
      <point x="462" y="66"/>
      <point x="371" y="66" type="curve" smooth="yes"/>
      <point x="232" y="66" type="line"/>
      <point x="232" y="0" type="line"/>
      <point x="370" y="0" type="line" smooth="yes"/>
      <point x="512" y="0"/>
      <point x="600" y="73"/>
      <point x="600" y="185" type="curve" smooth="yes"/>
      <point x="600" y="289"/>
      <point x="526" y="355"/>
    </contour>
  </outline>
</glyph>
<glyph name="ohorntilde" format="2">
  <advance width="564"/>
  <unicode hex="1EE1"/>
  <anchor x="282.5" y="668" name="top"/>
  <anchor x="282" y="0" name="bottom"/>
  <anchor x="282" y="250" name="center"/>
  <anchor x="368" y="0" name="ogonek"/>
  <anchor x="544" y="500" name="topright"/>
  <outline>
    <contour>
      <point x="313" y="569" type="curve" smooth="yes"/>
      <point x="377" y="569"/>
      <point x="402" y="618"/>
      <point x="409" y="667" type="curve"/>
      <point x="377" y="667" type="line"/>
      <point x="372" y="650"/>
      <point x="357" y="627"/>
      <point x="328" y="627" type="curve" smooth="yes"/>
      <point x="289" y="627"/>
      <point x="268" y="668"/>
      <point x="213" y="668" type="curve" smooth="yes"/>
      <point x="148" y="668"/>
      <point x="122" y="619"/>
      <point x="116" y="570" type="curve"/>
      <point x="147" y="570" type="line"/>
      <point x="153" y="587"/>
      <point x="166" y="609"/>
      <point x="197" y="609" type="curve" smooth="yes"/>
      <point x="236" y="609"/>
      <point x="258" y="569"/>
    </contour>
    <component base="ohorn"/>
  </outline>
</glyph>
<glyph name="emdash" format="2">
  <advance width="1110"/>
  <unicode hex="2014"/>
  <outline>
    <contour>
      <point x="55" y="262" type="line"/>
      <point x="1055" y="262" type="line"/>
      <point x="1055" y="329" type="line"/>
      <point x="55" y="329" type="line"/>
    </contour>
  </outline>
</glyph>
<glyph name="daggerdbl" format="2">
  <advance width="435"/>
  <unicode hex="2021"/>
  <outline>
    <contour>
      <point x="187" y="-131" type="line"/>
      <point x="248" y="-131" type="line"/>
      <point x="248" y="31" type="line"/>
      <point x="397" y="31" type="line"/>
      <point x="397" y="92" type="line"/>
      <point x="248" y="92" type="line"/>
      <point x="248" y="439" type="line"/>
      <point x="397" y="439" type="line"/>
      <point x="397" y="500" type="line"/>
      <point x="248" y="500" type="line"/>
      <point x="248" y="662" type="line"/>
      <point x="187" y="662" type="line"/>
      <point x="187" y="500" type="line"/>
      <point x="38" y="500" type="line"/>
      <point x="38" y="439" type="line"/>
      <point x="187" y="439" type="line"/>
      <point x="187" y="92" type="line"/>
      <point x="38" y="92" type="line"/>
      <point x="38" y="31" type="line"/>
      <point x="187" y="31" type="line"/>
    </contour>
  </outline>
</glyph>
<glyph name="ellipsis" format="2">
  <advance width="787"/>
  <unicode hex="2026"/>
  <outline>
    <contour>
      <point x="53" y="0" type="line"/>
      <point x="150" y="0" type="line"/>
      <point x="150" y="102" type="line"/>
      <point x="53" y="102" type="line"/>
    </contour>
    <contour>
      <point x="345" y="0" type="line"/>
      <point x="442" y="0" type="line"/>
      <point x="442" y="102" type="line"/>
      <point x="345" y="102" type="line"/>
    </contour>
    <contour>
      <point x="637" y="0" type="line"/>
      <point x="734" y="0" type="line"/>
      <point x="734" y="102" type="line"/>
      <point x="637" y="102" type="line"/>
    </contour>
  </outline>
</glyph>
<glyph name="perthousand" format="2">
  <advance width="1193"/>
  <unicode hex="2030"/>
  <outline>
    <contour>
      <point x="162" y="-12" type="line"/>
      <point x="225" y="-12" type="line"/>
      <point x="684" y="670" type="line"/>
      <point x="621" y="670" type="line"/>
    </contour>
    <contour>
      <point x="193" y="288" type="curve" smooth="yes"/>
      <point x="285" y="288"/>
      <point x="343" y="354"/>
      <point x="343" y="477" type="curve" smooth="yes"/>
      <point x="343" y="574"/>
      <point x="301" y="665"/>
      <point x="193" y="667" type="curve" smooth="yes"/>
      <point x="100" y="667"/>
      <point x="43" y="601"/>
      <point x="43" y="477" type="curve" smooth="yes"/>
      <point x="43" y="354"/>
      <point x="100" y="288"/>
    </contour>
    <contour>
      <point x="193" y="345" type="curve" smooth="yes"/>
      <point x="137" y="345"/>
      <point x="104" y="389"/>
      <point x="104" y="477" type="curve" smooth="yes"/>
      <point x="104" y="565"/>
      <point x="137" y="609"/>
      <point x="193" y="609" type="curve" smooth="yes"/>
      <point x="247" y="609"/>
      <point x="281" y="565"/>
      <point x="281" y="477" type="curve" smooth="yes"/>
      <point x="281" y="416"/>
      <point x="260" y="347"/>
    </contour>
    <contour>
      <point x="654" y="-8" type="curve" smooth="yes"/>
      <point x="746" y="-8"/>
      <point x="804" y="58"/>
      <point x="804" y="181" type="curve" smooth="yes"/>
      <point x="804" y="278"/>
      <point x="762" y="369"/>
      <point x="654" y="371" type="curve" smooth="yes"/>
      <point x="561" y="371"/>
      <point x="504" y="305"/>
      <point x="504" y="181" type="curve" smooth="yes"/>
      <point x="504" y="58"/>
      <point x="561" y="-8"/>
    </contour>
    <contour>
      <point x="1002" y="-8" type="curve" smooth="yes"/>
      <point x="1094" y="-8"/>
      <point x="1152" y="58"/>
      <point x="1152" y="181" type="curve" smooth="yes"/>
      <point x="1152" y="278"/>
      <point x="1110" y="369"/>
      <point x="1002" y="371" type="curve" smooth="yes"/>
      <point x="909" y="371"/>
      <point x="852" y="305"/>
      <point x="852" y="181" type="curve" smooth="yes"/>
      <point x="852" y="58"/>
      <point x="909" y="-8"/>
    </contour>
    <contour>
      <point x="654" y="49" type="curve" smooth="yes"/>
      <point x="598" y="49"/>
      <point x="565" y="93"/>
      <point x="565" y="181" type="curve" smooth="yes"/>
      <point x="565" y="269"/>
      <point x="598" y="313"/>
      <point x="654" y="313" type="curve" smooth="yes"/>
      <point x="708" y="313"/>
      <point x="742" y="269"/>
      <point x="742" y="181" type="curve" smooth="yes"/>
      <point x="742" y="120"/>
      <point x="721" y="51"/>
    </contour>
    <contour>
      <point x="1002" y="49" type="curve" smooth="yes"/>
      <point x="946" y="49"/>
      <point x="913" y="93"/>
      <point x="913" y="181" type="curve" smooth="yes"/>
      <point x="913" y="269"/>
      <point x="946" y="313"/>
      <point x="1002" y="313" type="curve" smooth="yes"/>
      <point x="1056" y="313"/>
      <point x="1090" y="269"/>
      <point x="1090" y="181" type="curve" smooth="yes"/>
      <point x="1090" y="120"/>
      <point x="1069" y="51"/>
    </contour>
  </outline>
</glyph>
<glyph name="guilsinglright" format="2">
  <advance width="303"/>
  <unicode hex="203A"/>
  <outline>
    <contour>
      <point x="45" y="57" type="line"/>
      <point x="134" y="57" type="line"/>
      <point x="264" y="259" type="line"/>
      <point x="134" y="461" type="line"/>
      <point x="45" y="461" type="line"/>
      <point x="182" y="259" type="line"/>
    </contour>
  </outline>
</glyph>
<glyph name="colonsign" format="2">
  <advance width="640"/>
  <unicode hex="20A1"/>
  <outline>
    <contour>
      <point x="397" y="746" type="line"/>
      <point x="74" y="-65" type="line"/>
      <point x="137" y="-88" type="line"/>
      <point x="460" y="723" type="line"/>
    </contour>
    <contour>
      <point x="529" y="746" type="line"/>
      <point x="205" y="-65" type="line"/>
      <point x="268" y="-88" type="line"/>
      <point x="591" y="723" type="line"/>
    </contour>
    <contour>
      <point x="339" y="-8" type="curve" smooth="yes"/>
      <point x="474" y="-8"/>
      <point x="571" y="77"/>
      <point x="609" y="198" type="curve"/>
      <point x="530" y="198" type="line"/>
      <point x="501" y="117"/>
      <point x="439" y="65"/>
      <point x="345" y="65" type="curve" smooth="yes"/>
      <point x="197" y="65"/>
      <point x="114" y="182"/>
      <point x="114" y="331" type="curve" smooth="yes"/>
      <point x="114" y="480"/>
      <point x="197" y="597"/>
      <point x="345" y="597" type="curve" smooth="yes"/>
      <point x="439" y="597"/>
      <point x="501" y="545"/>
      <point x="530" y="464" type="curve"/>
      <point x="609" y="464" type="line"/>
      <point x="571" y="585"/>
      <point x="474" y="670"/>
      <point x="339" y="670" type="curve" smooth="yes"/>
      <point x="152" y="670"/>
      <point x="39" y="519"/>
      <point x="39" y="331" type="curve" smooth="yes"/>
      <point x="39" y="143"/>
      <point x="152" y="-8"/>
    </contour>
  </outline>
</glyph>
<glyph name="franc" format="2">
  <advance width="600"/>
  <unicode hex="20A3"/>
  <anchor x="292" y="0" name="bottom"/>
  <anchor x="292" y="662" name="top"/>
  <outline>
    <contour>
      <point x="368" y="174" type="line"/>
      <point x="31" y="174" type="line"/>
      <point x="31" y="108" type="line"/>
      <point x="368" y="108" type="line"/>
    </contour>
    <component base="F"/>
  </outline>
</glyph>
<glyph name="lira" format="2">
  <advance width="575"/>
  <unicode hex="20A4"/>
  <outline>
    <contour>
      <point x="141" y="73" type="line"/>
      <point x="141" y="78" type="line"/>
      <point x="197" y="117"/>
      <point x="227" y="168"/>
      <point x="228" y="239" type="curve"/>
      <point x="405" y="239" type="line"/>
      <point x="405" y="305" type="line"/>
      <point x="215" y="305" type="line"/>
      <point x="209" y="328"/>
      <point x="201" y="354"/>
      <point x="195" y="379" type="curve"/>
      <point x="405" y="379" type="line"/>
      <point x="405" y="445" type="line"/>
      <point x="180" y="445" type="line"/>
      <point x="179" y="455"/>
      <point x="178" y="465"/>
      <point x="178" y="474" type="curve" smooth="yes"/>
      <point x="178" y="561"/>
      <point x="224" y="609"/>
      <point x="308" y="609" type="curve" smooth="yes"/>
      <point x="371" y="609"/>
      <point x="415" y="584"/>
      <point x="451" y="529" type="curve"/>
      <point x="510" y="572" type="line"/>
      <point x="463" y="644"/>
      <point x="400" y="678"/>
      <point x="311" y="678" type="curve" smooth="yes"/>
      <point x="235" y="678"/>
      <point x="180" y="649"/>
      <point x="152" y="621" type="curve" smooth="yes"/>
      <point x="123" y="593"/>
      <point x="97" y="546"/>
      <point x="97" y="482" type="curve" smooth="yes"/>
      <point x="97" y="468"/>
      <point x="98" y="456"/>
      <point x="99" y="445" type="curve"/>
      <point x="60" y="445" type="line"/>
      <point x="60" y="379" type="line"/>
      <point x="116" y="379" type="line"/>
      <point x="125" y="356"/>
      <point x="135" y="335"/>
      <point x="141" y="305" type="curve"/>
      <point x="60" y="305" type="line"/>
      <point x="60" y="239" type="line"/>
      <point x="147" y="239" type="line"/>
      <point x="147" y="178"/>
      <point x="113" y="121"/>
      <point x="62" y="100" type="curve"/>
      <point x="62" y="0" type="line"/>
      <point x="525" y="0" type="line"/>
      <point x="525" y="73" type="line"/>
    </contour>
  </outline>
</glyph>
<glyph name="peseta" format="2">
  <advance width="607"/>
  <unicode hex="20A7"/>
  <anchor x="314" y="0" name="bottom"/>
  <anchor x="314" y="662" name="top"/>
  <outline>
    <contour>
      <point x="607" y="482" type="line"/>
      <point x="555" y="482" type="line"/>
      <point x="541" y="593"/>
      <point x="458" y="662"/>
      <point x="329" y="662" type="curve" smooth="yes"/>
      <point x="81" y="662" type="line"/>
      <point x="81" y="482" type="line"/>
      <point x="31" y="482" type="line"/>
      <point x="31" y="416" type="line"/>
      <point x="81" y="416" type="line"/>
      <point x="81" y="0" type="line"/>
      <point x="156" y="0" type="line"/>
      <point x="156" y="236" type="line"/>
      <point x="329" y="236" type="line" smooth="yes"/>
      <point x="458" y="236"/>
      <point x="542" y="303"/>
      <point x="555" y="416" type="curve"/>
      <point x="607" y="416" type="line"/>
    </contour>
    <contour>
      <point x="156" y="591" type="line"/>
      <point x="324" y="591" type="line" smooth="yes"/>
      <point x="414" y="591"/>
      <point x="467" y="550"/>
      <point x="479" y="482" type="curve"/>
      <point x="156" y="482" type="line"/>
    </contour>
    <contour>
      <point x="324" y="306" type="curve" smooth="yes"/>
      <point x="156" y="306" type="line"/>
      <point x="156" y="416" type="line"/>
      <point x="479" y="416" type="line"/>
      <point x="467" y="346"/>
      <point x="415" y="306"/>
    </contour>
  </outline>
</glyph>
<glyph name="euro" format="2">
  <advance width="613"/>
  <unicode hex="20AC"/>
  <outline>
    <contour>
      <point x="404" y="-8" type="curve" smooth="yes"/>
      <point x="471" y="-8"/>
      <point x="524" y="8"/>
      <point x="566" y="36" type="curve"/>
      <point x="552" y="108" type="line"/>
      <point x="523" y="87"/>
      <point x="483" y="65"/>
      <point x="415" y="65" type="curve" smooth="yes"/>
      <point x="281" y="65"/>
      <point x="224" y="149"/>
      <point x="206" y="252" type="curve"/>
      <point x="405" y="252" type="line"/>
      <point x="426" y="306" type="line"/>
      <point x="201" y="306" type="line"/>
      <point x="200" y="315"/>
      <point x="200" y="323"/>
      <point x="200" y="331" type="curve" smooth="yes"/>
      <point x="200" y="346"/>
      <point x="201" y="361"/>
      <point x="202" y="375" type="curve"/>
      <point x="453" y="375" type="line"/>
      <point x="474" y="429" type="line"/>
      <point x="210" y="429" type="line"/>
      <point x="230" y="523"/>
      <point x="287" y="597"/>
      <point x="408" y="597" type="curve" smooth="yes"/>
      <point x="462" y="597"/>
      <point x="500" y="586"/>
      <point x="528" y="565" type="curve"/>
      <point x="555" y="633" type="line"/>
      <point x="515" y="656"/>
      <point x="466" y="670"/>
      <point x="404" y="670" type="curve" smooth="yes"/>
      <point x="243" y="670"/>
      <point x="160" y="563"/>
      <point x="134" y="429" type="curve"/>
      <point x="64" y="429" type="line"/>
      <point x="42" y="375" type="line"/>
      <point x="127" y="375" type="line"/>
      <point x="126" y="361"/>
      <point x="125" y="346"/>
      <point x="125" y="331" type="curve" smooth="yes"/>
      <point x="125" y="323"/>
      <point x="125" y="315"/>
      <point x="126" y="306" type="curve"/>
      <point x="64" y="306" type="line"/>
      <point x="42" y="252" type="line"/>
      <point x="131" y="252" type="line"/>
      <point x="152" y="110"/>
      <point x="235" y="-8"/>
    </contour>
  </outline>
</glyph>
<glyph name="kip" format="2">
  <advance width="561"/>
  <unicode hex="20AD"/>
  <anchor x="321" y="0" name="bottom"/>
  <anchor x="321" y="662" name="top"/>
  <outline>
    <contour>
      <point x="527" y="298" type="line"/>
      <point x="527" y="364" type="line"/>
      <point x="317" y="364" type="line"/>
      <point x="566" y="662" type="line"/>
      <point x="482" y="662" type="line"/>
      <point x="230" y="364" type="line"/>
      <point x="156" y="364" type="line"/>
      <point x="156" y="662" type="line"/>
      <point x="81" y="662" type="line"/>
      <point x="81" y="364" type="line"/>
      <point x="31" y="364" type="line"/>
      <point x="31" y="298" type="line"/>
      <point x="81" y="298" type="line"/>
      <point x="81" y="0" type="line"/>
      <point x="156" y="0" type="line"/>
      <point x="156" y="298" type="line"/>
      <point x="229" y="298" type="line"/>
      <point x="482" y="0" type="line"/>
      <point x="566" y="0" type="line"/>
      <point x="317" y="298" type="line"/>
    </contour>
  </outline>
</glyph>
<glyph name="guarani" format="2">
  <advance width="679"/>
  <unicode hex="20B2"/>
  <anchor x="362" y="0" name="bottom"/>
  <anchor x="362" y="662" name="top"/>
  <outline>
    <contour>
      <point x="417" y="352" type="line"/>
      <point x="417" y="284" type="line"/>
      <point x="559" y="284" type="line"/>
      <point x="559" y="154"/>
      <point x="467" y="75"/>
      <point x="365" y="66" type="curve"/>
      <point x="365" y="596" type="line"/>
      <point x="448" y="589"/>
      <point x="503" y="539"/>
      <point x="530" y="464" type="curve"/>
      <point x="609" y="464" type="line"/>
      <point x="573" y="577"/>
      <point x="486" y="659"/>
      <point x="365" y="669" type="curve"/>
      <point x="365" y="746" type="line"/>
      <point x="299" y="746" type="line"/>
      <point x="299" y="668" type="line"/>
      <point x="136" y="648"/>
      <point x="39" y="505"/>
      <point x="39" y="331" type="curve" smooth="yes"/>
      <point x="39" y="157"/>
      <point x="136" y="14"/>
      <point x="299" y="-6" type="curve"/>
      <point x="299" y="-87" type="line"/>
      <point x="365" y="-87" type="line"/>
      <point x="365" y="-7" type="line"/>
      <point x="460" y="2"/>
      <point x="520" y="58"/>
      <point x="559" y="117" type="curve"/>
      <point x="559" y="0" type="line"/>
      <point x="628" y="0" type="line"/>
      <point x="628" y="352" type="line"/>
    </contour>
    <contour>
      <point x="114" y="331" type="curve" smooth="yes"/>
      <point x="114" y="464"/>
      <point x="180" y="571"/>
      <point x="299" y="593" type="curve"/>
      <point x="299" y="69" type="line"/>
      <point x="180" y="91"/>
      <point x="114" y="198"/>
    </contour>
  </outline>
</glyph>
<glyph name="rupeeIndian" format="2">
  <advance width="595"/>
  <unicode hex="20B9"/>
  <outline>
    <contour>
      <point x="561" y="596" type="line"/>
      <point x="561" y="662" type="line"/>
      <point x="81" y="662" type="line"/>
      <point x="81" y="591" type="line"/>
      <point x="278" y="591" type="line" smooth="yes"/>
      <point x="368" y="591"/>
      <point x="421" y="550"/>
      <point x="433" y="482" type="curve"/>
      <point x="81" y="482" type="line"/>
      <point x="81" y="416" type="line"/>
      <point x="433" y="416" type="line"/>
      <point x="421" y="346"/>
      <point x="369" y="306"/>
      <point x="278" y="306" type="curve" smooth="yes"/>
      <point x="81" y="306" type="line"/>
      <point x="81" y="236" type="line"/>
      <point x="271" y="236" type="line"/>
      <point x="420" y="0" type="line"/>
      <point x="509" y="0" type="line"/>
      <point x="351" y="243" type="line"/>
      <point x="441" y="263"/>
      <point x="498" y="324"/>
      <point x="509" y="416" type="curve"/>
      <point x="561" y="416" type="line"/>
      <point x="561" y="482" type="line"/>
      <point x="509" y="482" type="line"/>
      <point x="503" y="528"/>
      <point x="486" y="566"/>
      <point x="458" y="596" type="curve"/>
    </contour>
  </outline>
</glyph>
<glyph name="ruble" format="2">
  <advance width="578"/>
  <unicode hex="20BD"/>
  <outline>
    <contour>
      <point x="329" y="236" type="line" smooth="yes"/>
      <point x="470" y="236"/>
      <point x="557" y="318"/>
      <point x="557" y="449" type="curve" smooth="yes"/>
      <point x="557" y="579"/>
      <point x="470" y="662"/>
      <point x="329" y="662" type="curve" smooth="yes"/>
      <point x="81" y="662" type="line"/>
      <point x="81" y="165" type="line"/>
      <point x="31" y="165" type="line"/>
      <point x="31" y="99" type="line"/>
      <point x="81" y="99" type="line"/>
      <point x="81" y="0" type="line"/>
      <point x="156" y="0" type="line"/>
      <point x="156" y="99" type="line"/>
      <point x="467" y="99" type="line"/>
      <point x="467" y="165" type="line"/>
      <point x="156" y="165" type="line"/>
      <point x="156" y="236" type="line"/>
    </contour>
    <contour>
      <point x="156" y="591" type="line"/>
      <point x="324" y="591" type="line" smooth="yes"/>
      <point x="428" y="591"/>
      <point x="482" y="537"/>
      <point x="482" y="449" type="curve" smooth="yes"/>
      <point x="482" y="360"/>
      <point x="428" y="306"/>
      <point x="324" y="306" type="curve" smooth="yes"/>
      <point x="156" y="306" type="line"/>
    </contour>
  </outline>
</glyph>
<glyph name="upArrow" format="2">
  <advance width="424"/>
  <unicode hex="2191"/>
  <guideline x="181" y="586" angle="0"/>
  <outline>
    <contour>
      <point x="212" y="700" type="line"/>
      <point x="40" y="530" type="line"/>
      <point x="80" y="486" type="line"/>
      <point x="181" y="585" type="line"/>
      <point x="181" y="0" type="line"/>
      <point x="243" y="0" type="line"/>
      <point x="243" y="585" type="line"/>
      <point x="344" y="486" type="line"/>
      <point x="384" y="530" type="line"/>
    </contour>
  </outline>
</glyph>
<glyph name="emptyset" format="2">
  <advance width="602"/>
  <unicode hex="2205"/>
  <outline>
    <contour>
      <point x="487" y="428" type="curve"/>
      <point x="535" y="483" type="line"/>
      <point x="504" y="511" type="line"/>
      <point x="455" y="455" type="line"/>
      <point x="412" y="488"/>
      <point x="359" y="507"/>
      <point x="301" y="507" type="curve" smooth="yes"/>
      <point x="159" y="507"/>
      <point x="44" y="392"/>
      <point x="44" y="250" type="curve" smooth="yes"/>
      <point x="44" y="180"/>
      <point x="72" y="116"/>
      <point x="118" y="69" type="curve"/>
      <point x="60" y="3" type="line"/>
      <point x="91" y="-25" type="line"/>
      <point x="150" y="42" type="line"/>
      <point x="192" y="11"/>
      <point x="244" y="-7"/>
      <point x="301" y="-7" type="curve" smooth="yes"/>
      <point x="443" y="-7"/>
      <point x="558" y="110"/>
      <point x="558" y="250" type="curve" smooth="yes"/>
      <point x="558" y="319"/>
      <point x="531" y="382"/>
    </contour>
    <contour>
      <point x="85" y="250" type="curve" smooth="yes"/>
      <point x="85" y="369"/>
      <point x="182" y="466"/>
      <point x="301" y="466" type="curve" smooth="yes"/>
      <point x="349" y="466"/>
      <point x="393" y="451"/>
      <point x="428" y="424" type="curve"/>
      <point x="145" y="101" type="line"/>
      <point x="108" y="139"/>
      <point x="85" y="192"/>
    </contour>
    <contour>
      <point x="301" y="34" type="curve" smooth="yes"/>
      <point x="255" y="34"/>
      <point x="212" y="49"/>
      <point x="177" y="73" type="curve"/>
      <point x="459" y="397" type="line"/>
      <point x="495" y="358"/>
      <point x="517" y="306"/>
      <point x="517" y="250" type="curve" smooth="yes"/>
      <point x="517" y="132"/>
      <point x="421" y="34"/>
    </contour>
  </outline>
</glyph>
<glyph name="product" format="2">
  <advance width="671"/>
  <unicode hex="220F"/>
  <outline>
    <contour>
      <point x="77" y="-180" type="line"/>
      <point x="151" y="-180" type="line"/>
      <point x="151" y="682" type="line"/>
      <point x="521" y="682" type="line"/>
      <point x="521" y="-180" type="line"/>
      <point x="594" y="-180" type="line"/>
      <point x="594" y="748" type="line"/>
      <point x="77" y="748" type="line"/>
    </contour>
  </outline>
</glyph>
<glyph name="minus" format="2">
  <advance width="550"/>
  <unicode hex="2212"/>
  <outline>
    <contour>
      <point x="50" y="203" type="line"/>
      <point x="500" y="203" type="line"/>
      <point x="500" y="268" type="line"/>
      <point x="50" y="268" type="line"/>
    </contour>
  </outline>
</glyph>
<glyph name="infinity" format="2">
  <advance width="751"/>
  <unicode hex="221E"/>
  <outline>
    <contour>
      <point x="198" y="96" type="curve" smooth="yes"/>
      <point x="268" y="96"/>
      <point x="332" y="150"/>
      <point x="376" y="212" type="curve"/>
      <point x="419" y="150"/>
      <point x="483" y="96"/>
      <point x="553" y="96" type="curve" smooth="yes"/>
      <point x="660" y="96"/>
      <point x="705" y="185"/>
      <point x="705" y="255" type="curve" smooth="yes"/>
      <point x="705" y="325"/>
      <point x="660" y="414"/>
      <point x="553" y="414" type="curve" smooth="yes"/>
      <point x="483" y="414"/>
      <point x="419" y="359"/>
      <point x="376" y="298" type="curve"/>
      <point x="332" y="359"/>
      <point x="268" y="414"/>
      <point x="198" y="414" type="curve" smooth="yes"/>
      <point x="91" y="414"/>
      <point x="46" y="325"/>
      <point x="46" y="255" type="curve" smooth="yes"/>
      <point x="46" y="185"/>
      <point x="91" y="96"/>
    </contour>
    <contour>
      <point x="204" y="154" type="curve" smooth="yes"/>
      <point x="137" y="154"/>
      <point x="108" y="209"/>
      <point x="108" y="255" type="curve" smooth="yes"/>
      <point x="108" y="301"/>
      <point x="137" y="356"/>
      <point x="204" y="356" type="curve" smooth="yes"/>
      <point x="253" y="356"/>
      <point x="310" y="308"/>
      <point x="347" y="255" type="curve"/>
      <point x="310" y="202"/>
      <point x="253" y="154"/>
    </contour>
    <contour>
      <point x="547" y="154" type="curve" smooth="yes"/>
      <point x="498" y="154"/>
      <point x="440" y="202"/>
      <point x="404" y="255" type="curve"/>
      <point x="440" y="308"/>
      <point x="498" y="356"/>
      <point x="547" y="356" type="curve" smooth="yes"/>
      <point x="614" y="356"/>
      <point x="643" y="301"/>
      <point x="643" y="255" type="curve" smooth="yes"/>
      <point x="643" y="209"/>
      <point x="614" y="154"/>
    </contour>
  </outline>
</glyph>
<glyph name="notequal" format="2">
  <advance width="550"/>
  <unicode hex="2260"/>
  <outline>
    <contour>
      <point x="168" y="-29" type="line"/>
      <point x="238" y="103" type="line"/>
      <point x="493" y="103" type="line"/>
      <point x="493" y="170" type="line"/>
      <point x="274" y="170" type="line"/>
      <point x="343" y="301" type="line"/>
      <point x="493" y="301" type="line"/>
      <point x="493" y="368" type="line"/>
      <point x="379" y="368" type="line"/>
      <point x="434" y="471" type="line"/>
      <point x="381" y="499" type="line"/>
      <point x="311" y="368" type="line"/>
      <point x="57" y="368" type="line"/>
      <point x="57" y="301" type="line"/>
      <point x="275" y="301" type="line"/>
      <point x="206" y="170" type="line"/>
      <point x="57" y="170" type="line"/>
      <point x="57" y="103" type="line"/>
      <point x="170" y="103" type="line"/>
      <point x="115" y="-1" type="line"/>
    </contour>
  </outline>
</glyph>
<glyph name="lessequal" format="2">
  <advance width="550"/>
  <unicode hex="2264"/>
  <outline>
    <contour>
      <point x="512" y="114" type="line"/>
      <point x="512" y="192" type="line"/>
      <point x="117" y="330" type="line"/>
      <point x="512" y="468" type="line"/>
      <point x="512" y="546" type="line"/>
      <point x="31" y="361" type="line"/>
      <point x="31" y="298" type="line"/>
    </contour>
    <contour>
      <point x="31" y="0" type="line"/>
      <point x="512" y="0" type="line"/>
      <point x="512" y="66" type="line"/>
      <point x="31" y="66" type="line"/>
    </contour>
  </outline>
</glyph>
<glyph name="blackSquare" format="2">
  <advance width="750"/>
  <unicode hex="25A0"/>
  <outline>
    <contour>
      <point x="40" y="670" type="line"/>
      <point x="40" y="0" type="line"/>
      <point x="710" y="0" type="line"/>
      <point x="710" y="670" type="line"/>
    </contour>
  </outline>
</glyph>
<glyph name="upBlackTriangle" format="2">
  <advance width="750"/>
  <unicode hex="25B2"/>
  <outline>
    <contour>
      <point x="375" y="670" type="line"/>
      <point x="40" y="0" type="line"/>
      <point x="710" y="0" type="line"/>
    </contour>
  </outline>
</glyph>
<glyph name="whiteDiamond" format="2">
  <advance width="784"/>
  <unicode hex="25C7"/>
  <outline>
    <contour>
      <point x="392" y="687" type="line"/>
      <point x="40" y="335" type="line"/>
      <point x="392" y="-17" type="line"/>
      <point x="744" y="335" type="line"/>
    </contour>
    <contour>
      <point x="392" y="636" type="line"/>
      <point x="693" y="335" type="line"/>
      <point x="392" y="35" type="line"/>
      <point x="92" y="335" type="line"/>
    </contour>
  </outline>
</glyph>
<glyph name="lozenge" format="2">
  <advance width="618"/>
  <unicode hex="25CA"/>
  <outline>
    <contour>
      <point x="270" y="-58" type="line"/>
      <point x="348" y="-58" type="line"/>
      <point x="582" y="331" type="line"/>
      <point x="348" y="720" type="line"/>
      <point x="270" y="720" type="line"/>
      <point x="36" y="331" type="line"/>
    </contour>
    <contour>
      <point x="309" y="14" type="line"/>
      <point x="118" y="331" type="line"/>
      <point x="309" y="648" type="line"/>
      <point x="500" y="331" type="line"/>
    </contour>
  </outline>
</glyph>
<glyph name="rightanglebracket-math" format="2">
  <advance width="309"/>
  <unicode hex="27E9"/>
  <outline>
    <contour>
      <point x="99" y="-93" type="line"/>
      <point x="229" y="294" type="line"/>
      <point x="99" y="681" type="line"/>
      <point x="40" y="681" type="line"/>
      <point x="167" y="294" type="line"/>
      <point x="40" y="-93" type="line"/>
    </contour>
  </outline>
</glyph>
<glyph name="Ldoublebar" format="2">
  <advance width="533"/>
  <unicode hex="2C60"/>
  <anchor x="287" y="0" name="bottom"/>
  <anchor x="267" y="331" name="center"/>
  <anchor x="119" y="662" name="top"/>
  <anchor x="406" y="464" name="topright"/>
  <outline>
    <contour>
      <point x="356" y="466" type="line"/>
      <point x="7" y="466" type="line"/>
      <point x="7" y="401" type="line"/>
      <point x="356" y="401" type="line"/>
    </contour>
    <contour>
      <point x="356" y="319" type="line"/>
      <point x="7" y="319" type="line"/>
      <point x="7" y="254" type="line"/>
      <point x="356" y="254" type="line"/>
    </contour>
    <component base="L"/>
  </outline>
</glyph>
<glyph name="Lmiddletilde" format="2">
  <advance width="533"/>
  <unicode hex="2C62"/>
  <anchor x="128.178" y="368.023" name="top"/>
  <anchor x="287" y="0" name="bottom"/>
  <anchor x="267" y="331" name="center"/>
  <anchor x="406" y="464" name="topright"/>
  <outline>
    <contour>
      <point x="198" y="273" type="curve" smooth="yes"/>
      <point x="271" y="273"/>
      <point x="301" y="326"/>
      <point x="309" y="379" type="curve"/>
      <point x="271" y="379" type="line"/>
      <point x="267" y="361"/>
      <point x="249" y="336"/>
      <point x="216" y="336" type="curve" smooth="yes"/>
      <point x="157" y="336"/>
      <point x="125" y="380"/>
      <point x="42" y="380" type="curve" smooth="yes"/>
      <point x="-32" y="380"/>
      <point x="-62" y="326"/>
      <point x="-70" y="274" type="curve"/>
      <point x="-33" y="274" type="line"/>
      <point x="-26" y="291"/>
      <point x="-12" y="317"/>
      <point x="23" y="317" type="curve" smooth="yes"/>
      <point x="83" y="317"/>
      <point x="114" y="273"/>
    </contour>
    <component base="L"/>
  </outline>
</glyph>
<glyph name="Pstroke" format="2">
  <advance width="628"/>
  <unicode hex="2C63"/>
  <anchor x="314" y="0" name="bottom"/>
  <anchor x="314" y="662" name="top"/>
  <outline>
    <contour>
      <point x="344" y="483" type="line"/>
      <point x="16" y="483" type="line"/>
      <point x="16" y="418" type="line"/>
      <point x="344" y="418" type="line"/>
    </contour>
    <component base="P"/>
  </outline>
</glyph>
<glyph name="Rtail" format="2">
  <advance width="669"/>
  <unicode hex="2C64"/>
  <anchor x="335" y="0" name="bottom"/>
  <anchor x="335" y="662" name="top"/>
  <outline>
    <contour>
      <point x="156" y="0" type="curve"/>
      <point x="81" y="0" type="line"/>
      <point x="81" y="-29" type="line" smooth="yes"/>
      <point x="81" y="-145"/>
      <point x="156" y="-206"/>
      <point x="258" y="-206" type="curve" smooth="yes"/>
      <point x="275" y="-206"/>
      <point x="294" y="-205"/>
      <point x="313" y="-201" type="curve"/>
      <point x="313" y="-133" type="line"/>
      <point x="297" y="-136"/>
      <point x="282" y="-137"/>
      <point x="267" y="-137" type="curve" smooth="yes"/>
      <point x="199" y="-137"/>
      <point x="156" y="-94"/>
    </contour>
    <component base="R"/>
  </outline>
</glyph>
<glyph name="Whook" format="2">
  <advance width="1076"/>
  <unicode hex="2C72"/>
  <anchor x="479" y="0" name="bottom"/>
  <anchor x="479" y="662" name="top"/>
  <outline>
    <contour>
      <point x="982" y="663" type="curve" smooth="yes"/>
      <point x="884" y="663"/>
      <point x="847" y="585"/>
      <point x="814" y="480" type="curve" smooth="yes"/>
      <point x="700" y="106" type="line"/>
      <point x="522" y="662" type="line"/>
      <point x="436" y="662" type="line"/>
      <point x="258" y="106" type="line"/>
      <point x="88" y="662" type="line"/>
      <point x="9" y="662" type="line"/>
      <point x="215" y="0" type="line"/>
      <point x="300" y="0" type="line"/>
      <point x="479" y="556" type="line"/>
      <point x="658" y="0" type="line"/>
      <point x="743" y="0" type="line"/>
      <point x="884" y="455" type="line" smooth="yes"/>
      <point x="903" y="514"/>
      <point x="931" y="590"/>
      <point x="982" y="590" type="curve" smooth="yes"/>
      <point x="1026" y="590"/>
      <point x="1032" y="555"/>
      <point x="1036" y="520" type="curve"/>
      <point x="1096" y="534" type="line"/>
      <point x="1096" y="617"/>
      <point x="1057" y="663"/>
    </contour>
  </outline>
</glyph>
<glyph name="heng" format="2">
  <advance width="568"/>
  <unicode hex="A727"/>
  <anchor x="283" y="0" name="bottom"/>
  <anchor x="112" y="574" name="center"/>
  <anchor x="102" y="700" name="top"/>
  <outline>
    <contour>
      <point x="431" y="-198" type="line"/>
      <point x="506" y="-198" type="line"/>
      <point x="506" y="220" type="line"/>
      <point x="431" y="220" type="line"/>
    </contour>
    <component base="h"/>
  </outline>
</glyph>
<glyph name="Sobliquestroke" format="2">
  <advance width="615"/>
  <unicode hex="A7A8"/>
  <anchor x="308" y="0" name="bottom"/>
  <anchor x="308" y="662" name="top"/>
  <outline>
    <contour>
      <point x="599" y="433" type="line"/>
      <point x="7" y="325" type="line"/>
      <point x="7" y="252" type="line"/>
      <point x="599" y="360" type="line"/>
    </contour>
    <component base="S"/>
  </outline>
</glyph>
<glyph name="sobliquestroke" format="2">
  <advance width="482"/>
  <unicode hex="A7A9"/>
  <anchor x="241" y="0" name="bottom"/>
  <anchor x="241" y="500" name="top"/>
  <outline>
    <contour>
      <point x="472" y="339" type="line"/>
      <point x="22" y="259" type="line"/>
      <point x="22" y="193" type="line"/>
      <point x="472" y="273" type="line"/>
    </contour>
    <component base="s"/>
  </outline>
</glyph>
<glyph name="Jcrossedtail" format="2">
  <advance width="414"/>
  <unicode hex="A7B2"/>
  <anchor x="151" y="0" name="bottom"/>
  <anchor x="300" y="662" name="top"/>
  <outline>
    <contour>
      <point x="323" y="275" type="curve"/>
      <point x="321" y="205" type="line"/>
      <point x="366" y="188"/>
      <point x="400" y="164"/>
      <point x="428" y="139" type="curve"/>
      <point x="428" y="216" type="line"/>
      <point x="400" y="241"/>
      <point x="365" y="261"/>
    </contour>
    <contour>
      <point x="339" y="214" type="curve" smooth="yes"/>
      <point x="339" y="253" type="line"/>
      <point x="339" y="662" type="line"/>
      <point x="264" y="662" type="line"/>
      <point x="264" y="273" type="line"/>
      <point x="264" y="236" type="line" smooth="yes"/>
      <point x="266" y="167"/>
      <point x="258" y="65"/>
      <point x="167" y="65" type="curve" smooth="yes"/>
      <point x="118" y="65"/>
      <point x="90" y="105"/>
      <point x="90" y="143" type="curve" smooth="yes"/>
      <point x="90" y="196"/>
      <point x="130" y="231"/>
      <point x="196" y="231" type="curve" smooth="yes"/>
      <point x="227" y="231"/>
      <point x="254" y="227"/>
      <point x="278" y="219" type="curve"/>
      <point x="278" y="287" type="line"/>
      <point x="255" y="292"/>
      <point x="227" y="296"/>
      <point x="197" y="296" type="curve"/>
      <point x="167" y="296"/>
      <point x="167" y="296"/>
      <point x="196" y="296" type="curve" smooth="yes"/>
      <point x="195" y="296" type="line" smooth="yes"/>
      <point x="74" y="295"/>
      <point x="15" y="232"/>
      <point x="15" y="143" type="curve" smooth="yes"/>
      <point x="15" y="67"/>
      <point x="66" y="-8"/>
      <point x="163" y="-8" type="curve" smooth="yes"/>
      <point x="289" y="-8"/>
      <point x="337" y="99"/>
    </contour>
  </outline>
</glyph>
<glyph name="Chi-latin" format="2">
  <advance width="722"/>
  <unicode hex="A7B3"/>
  <anchor x="348" y="-198" name="bottom"/>
  <anchor x="348" y="662" name="top"/>
  <outline>
    <contour>
      <point x="675" y="-75" type="line"/>
      <point x="665" y="-104"/>
      <point x="650" y="-135"/>
      <point x="616" y="-135" type="curve" smooth="yes"/>
      <point x="567" y="-135"/>
      <point x="567" y="-123"/>
      <point x="392" y="256" type="curve"/>
      <point x="624" y="659" type="line"/>
      <point x="536" y="659" type="line"/>
      <point x="352" y="340" type="line"/>
      <point x="272" y="512" type="line" smooth="yes"/>
      <point x="233" y="595"/>
      <point x="192" y="662"/>
      <point x="114" y="662" type="curve" smooth="yes"/>
      <point x="58" y="662"/>
      <point x="16" y="626"/>
      <point x="-3" y="560" type="curve"/>
      <point x="46" y="533" type="line"/>
      <point x="56" y="562"/>
      <point x="71" y="593"/>
      <point x="105" y="593" type="curve" smooth="yes"/>
      <point x="152" y="593"/>
      <point x="182" y="529"/>
      <point x="206" y="477" type="curve" smooth="yes"/>
      <point x="305" y="259" type="line"/>
      <point x="43" y="-195" type="line"/>
      <point x="131" y="-195" type="line"/>
      <point x="344" y="174" type="line"/>
      <point x="444" y="-46" type="line" smooth="yes"/>
      <point x="483" y="-131"/>
      <point x="522" y="-203"/>
      <point x="607" y="-203" type="curve" smooth="yes"/>
      <point x="665" y="-203"/>
      <point x="708" y="-167"/>
      <point x="725" y="-102" type="curve"/>
    </contour>
  </outline>
</glyph>
<glyph name="Beta-latin" format="2">
  <advance width="662"/>
  <unicode hex="A7B4"/>
  <anchor x="331" y="0" name="bottom"/>
  <anchor x="331" y="662" name="top"/>
  <outline>
    <contour>
      <point x="156" y="69" type="line"/>
      <point x="81" y="69" type="line"/>
      <point x="81" y="-198" type="line"/>
      <point x="156" y="-198" type="line"/>
    </contour>
    <component base="B"/>
  </outline>
</glyph>
<glyph name="Omega-latin" format="2">
  <advance width="770"/>
  <unicode hex="A7B6"/>
  <outline>
    <contour>
      <point x="39" y="291" type="curve" smooth="yes"/>
      <point x="39" y="103"/>
      <point x="105" y="-8"/>
      <point x="225" y="-8" type="curve" smooth="yes"/>
      <point x="306" y="-8"/>
      <point x="362" y="24"/>
      <point x="384" y="93" type="curve"/>
      <point x="405" y="28"/>
      <point x="462" y="-8"/>
      <point x="541" y="-8" type="curve" smooth="yes"/>
      <point x="661" y="-8"/>
      <point x="731" y="107"/>
      <point x="731" y="291" type="curve" smooth="yes"/>
      <point x="731" y="399"/>
      <point x="691" y="556"/>
      <point x="622" y="662" type="curve"/>
      <point x="547" y="662" type="line"/>
      <point x="603" y="572"/>
      <point x="656" y="418"/>
      <point x="656" y="291" type="curve" smooth="yes"/>
      <point x="656" y="149"/>
      <point x="615" y="65"/>
      <point x="533" y="65" type="curve" smooth="yes"/>
      <point x="460" y="65"/>
      <point x="422" y="112"/>
      <point x="422" y="203" type="curve" smooth="yes"/>
      <point x="422" y="359" type="line"/>
      <point x="347" y="359" type="line"/>
      <point x="347" y="203" type="line" smooth="yes"/>
      <point x="347" y="113"/>
      <point x="309" y="65"/>
      <point x="236" y="65" type="curve" smooth="yes"/>
      <point x="155" y="65"/>
      <point x="114" y="148"/>
      <point x="114" y="291" type="curve" smooth="yes"/>
      <point x="114" y="418"/>
      <point x="168" y="572"/>
      <point x="220" y="662" type="curve"/>
      <point x="145" y="662" type="line"/>
      <point x="78" y="555"/>
      <point x="39" y="399"/>
    </contour>
  </outline>
</glyph>
<glyph name="omega-latin" format="2">
  <advance width="603"/>
  <unicode hex="A7B7"/>
  <anchor x="301" y="0" name="bottom"/>
  <anchor x="301" y="500" name="top"/>
  <outline>
    <contour>
      <point x="34" y="220" type="curve" smooth="yes"/>
      <point x="34" y="73"/>
      <point x="88" y="-12"/>
      <point x="181" y="-12" type="curve" smooth="yes"/>
      <point x="240" y="-12"/>
      <point x="281" y="10"/>
      <point x="301" y="54" type="curve"/>
      <point x="321" y="12"/>
      <point x="363" y="-12"/>
      <point x="420" y="-12" type="curve" smooth="yes"/>
      <point x="513" y="-12"/>
      <point x="569" y="76"/>
      <point x="569" y="220" type="curve" smooth="yes"/>
      <point x="569" y="303"/>
      <point x="538" y="425"/>
      <point x="484" y="506" type="curve"/>
      <point x="409" y="506" type="line"/>
      <point x="453" y="440"/>
      <point x="496" y="319"/>
      <point x="496" y="220" type="curve" smooth="yes"/>
      <point x="496" y="112"/>
      <point x="469" y="55"/>
      <point x="413" y="55" type="curve" smooth="yes"/>
      <point x="362" y="55"/>
      <point x="339" y="88"/>
      <point x="339" y="153" type="curve" smooth="yes"/>
      <point x="339" y="277" type="line"/>
      <point x="264" y="277" type="line"/>
      <point x="264" y="153" type="line" smooth="yes"/>
      <point x="264" y="88"/>
      <point x="240" y="55"/>
      <point x="189" y="55" type="curve" smooth="yes"/>
      <point x="134" y="55"/>
      <point x="107" y="112"/>
      <point x="107" y="220" type="curve" smooth="yes"/>
      <point x="107" y="319"/>
      <point x="151" y="440"/>
      <point x="192" y="506" type="curve"/>
      <point x="117" y="506" type="line"/>
      <point x="65" y="424"/>
      <point x="34" y="303"/>
    </contour>
  </outline>
</glyph>
<glyph name="uniA7B9" format="2">
  <advance width="566"/>
  <unicode hex="A7B9"/>
  <anchor x="298" y="0" name="_bottom"/>
  <anchor x="283" y="0" name="bottom"/>
  <anchor x="491" y="0" name="ogonek"/>
  <anchor x="283" y="500" name="top"/>
  <anchor x="658" y="493" name="topright"/>
  <outline>
    <contour>
      <point x="582" y="575" type="line"/>
      <point x="503" y="575" type="line"/>
      <point x="13" y="-75" type="line"/>
      <point x="92" y="-75" type="line"/>
    </contour>
    <component base="u"/>
  </outline>
</glyph>
<glyph name="U1D453" format="2">
  <advance width="332"/>
  <outline>
    <contour>
      <point x="-73" y="-149" type="line"/>
      <point x="33" y="-144"/>
      <point x="105" y="-96"/>
      <point x="123" y="9" type="curve" smooth="yes"/>
      <point x="188" y="367" type="line"/>
      <point x="313" y="367" type="line"/>
      <point x="313" y="416" type="line"/>
      <point x="197" y="416" type="line"/>
      <point x="218" y="538" type="line" smooth="yes"/>
      <point x="231" y="613"/>
      <point x="273" y="637"/>
      <point x="342" y="637" type="curve" smooth="yes"/>
      <point x="352" y="637" type="line"/>
      <point x="364" y="708" type="line"/>
      <point x="358" y="708" type="line" smooth="yes"/>
      <point x="244" y="708"/>
      <point x="165" y="664"/>
      <point x="144" y="544" type="curve" smooth="yes"/>
      <point x="122" y="416" type="line"/>
      <point x="27" y="416" type="line"/>
      <point x="27" y="367" type="line"/>
      <point x="113" y="367" type="line"/>
      <point x="47" y="3" type="line" smooth="yes"/>
      <point x="36" y="-62"/>
      <point x="-10" y="-86"/>
      <point x="-62" y="-90" type="curve"/>
    </contour>
  </outline>
</glyph>
<glyph name=".notdef" format="2">
  <advance width="524"/>
  <outline>
    <contour>
      <point x="33" y="0" type="line"/>
      <point x="493" y="0" type="line"/>
      <point x="493" y="662" type="line"/>
      <point x="33" y="662" type="line"/>
    </contour>
    <contour>
      <point x="263" y="370" type="line"/>
      <point x="91" y="617" type="line"/>
      <point x="434" y="617" type="line"/>
    </contour>
    <contour>
      <point x="78" y="104" type="line"/>
      <point x="78" y="558" type="line"/>
      <point x="235" y="331" type="line"/>
    </contour>
    <contour>
      <point x="448" y="104" type="line"/>
      <point x="290" y="331" type="line"/>
      <point x="448" y="558" type="line"/>
    </contour>
    <contour>
      <point x="91" y="45" type="line"/>
      <point x="263" y="292" type="line"/>
      <point x="434" y="45" type="line"/>
    </contour>
  </outline>
</glyph>
<glyph name="ampersand.sc" format="2">
  <advance width="464"/>
  <outline>
    <contour>
      <point x="216" y="-6" type="curve" smooth="yes"/>
      <point x="328" y="-6"/>
      <point x="396" y="57"/>
      <point x="396" y="147" type="curve" smooth="yes"/>
      <point x="396" y="249" type="line"/>
      <point x="448" y="249" type="line"/>
      <point x="448" y="302" type="line"/>
      <point x="396" y="302" type="line"/>
      <point x="396" y="338" type="line"/>
      <point x="340" y="338" type="line"/>
      <point x="340" y="302" type="line"/>
      <point x="212" y="302" type="line" smooth="yes"/>
      <point x="156" y="302"/>
      <point x="108" y="331"/>
      <point x="108" y="390" type="curve" smooth="yes"/>
      <point x="108" y="441"/>
      <point x="144" y="482"/>
      <point x="222" y="482" type="curve" smooth="yes"/>
      <point x="285" y="482"/>
      <point x="320" y="451"/>
      <point x="328" y="426" type="curve"/>
      <point x="392" y="426" type="line"/>
      <point x="380" y="480"/>
      <point x="332" y="536"/>
      <point x="224" y="536" type="curve" smooth="yes"/>
      <point x="109" y="536"/>
      <point x="48" y="474"/>
      <point x="48" y="391" type="curve" smooth="yes"/>
      <point x="48" y="339"/>
      <point x="92" y="291"/>
      <point x="128" y="280" type="curve"/>
      <point x="66" y="257"/>
      <point x="30" y="208"/>
      <point x="30" y="152" type="curve" smooth="yes"/>
      <point x="30" y="58"/>
      <point x="116" y="-6"/>
    </contour>
    <contour>
      <point x="216" y="47" type="curve" smooth="yes"/>
      <point x="141" y="47"/>
      <point x="90" y="96"/>
      <point x="90" y="150" type="curve" smooth="yes"/>
      <point x="90" y="204"/>
      <point x="138" y="249"/>
      <point x="204" y="249" type="curve" smooth="yes"/>
      <point x="340" y="249" type="line"/>
      <point x="340" y="142" type="line" smooth="yes"/>
      <point x="340" y="93"/>
      <point x="299" y="47"/>
    </contour>
  </outline>
</glyph>
<glyph name="b.sc" format="2">
  <advance width="545"/>
  <anchor x="273" y="0" name="bottom"/>
  <anchor x="273" y="546" name="top"/>
  <outline>
    <contour>
      <point x="65" y="0" type="line"/>
      <point x="323" y="0" type="line" smooth="yes"/>
      <point x="439" y="0"/>
      <point x="512" y="56"/>
      <point x="512" y="147" type="curve" smooth="yes"/>
      <point x="512" y="208"/>
      <point x="480" y="256"/>
      <point x="424" y="279" type="curve"/>
      <point x="464" y="303"/>
      <point x="485" y="345"/>
      <point x="485" y="398" type="curve" smooth="yes"/>
      <point x="485" y="487"/>
      <point x="416" y="546"/>
      <point x="310" y="546" type="curve" smooth="yes"/>
      <point x="65" y="546" type="line"/>
    </contour>
    <contour>
      <point x="140" y="309" type="line"/>
      <point x="140" y="474" type="line"/>
      <point x="316" y="474" type="line" smooth="yes"/>
      <point x="374" y="474"/>
      <point x="410" y="442"/>
      <point x="410" y="393" type="curve" smooth="yes"/>
      <point x="410" y="341"/>
      <point x="371" y="309"/>
      <point x="310" y="309" type="curve" smooth="yes"/>
    </contour>
    <contour>
      <point x="140" y="73" type="line"/>
      <point x="140" y="239" type="line"/>
      <point x="323" y="239" type="line" smooth="yes"/>
      <point x="393" y="239"/>
      <point x="437" y="205"/>
      <point x="437" y="152" type="curve" smooth="yes"/>
      <point x="437" y="101"/>
      <point x="398" y="73"/>
      <point x="330" y="73" type="curve" smooth="yes"/>
    </contour>
  </outline>
</glyph>
<glyph name="barcomp" format="2">
  <advance width="368"/>
  <anchor x="184" y="270" name="_center"/>
  <outline>
    <contour>
      <point x="0" y="235" type="line"/>
      <point x="368" y="235" type="line"/>
      <point x="368" y="305" type="line"/>
      <point x="0" y="305" type="line"/>
    </contour>
  </outline>
</glyph>
<glyph name="brevecomb_tildecomb" format="2">
  <anchor x="118.5" y="500" name="_top"/>
  <anchor x="118.495" y="819.731" name="top"/>
  <outline>
    <contour>
      <point x="169" y="726" type="curve" smooth="yes"/>
      <point x="222" y="726"/>
      <point x="242" y="771"/>
      <point x="248" y="817" type="curve"/>
      <point x="222" y="817" type="line"/>
      <point x="217" y="803"/>
      <point x="205" y="784"/>
      <point x="181" y="784" type="curve" smooth="yes"/>
      <point x="143" y="784"/>
      <point x="122" y="828"/>
      <point x="69" y="828" type="curve" smooth="yes"/>
      <point x="15" y="828"/>
      <point x="-6" y="782"/>
      <point x="-11" y="737" type="curve"/>
      <point x="15" y="737" type="line"/>
      <point x="20" y="751"/>
      <point x="30" y="769"/>
      <point x="56" y="769" type="curve" smooth="yes"/>
      <point x="94" y="769"/>
      <point x="115" y="726"/>
    </contour>
    <component base="brevecomb"/>
  </outline>
</glyph>
<glyph name="caroncomb.alt" format="2">
  <guideline x="730" y="1295" angle="0"/>
  <anchor x="-20" y="500" name="_topright"/>
  <outline>
    <contour>
      <point x="90" y="700" type="line"/>
      <point x="14" y="700" type="line"/>
      <point x="0" y="533" type="line"/>
      <point x="55" y="533" type="line"/>
    </contour>
  </outline>
</glyph>
<glyph name="cedillacomb.case" format="2">
  <anchor x="102" y="0" name="_bottom"/>
  <anchor x="116" y="-210" name="bottom"/>
  <outline>
    <contour>
      <point x="118" y="-206" type="curve" smooth="yes"/>
      <point x="179" y="-206"/>
      <point x="232" y="-181"/>
      <point x="232" y="-125" type="curve" smooth="yes"/>
      <point x="232" y="-77"/>
      <point x="190" y="-48"/>
      <point x="140" y="-48" type="curve" smooth="yes"/>
      <point x="133" y="-48"/>
      <point x="124" y="-49"/>
      <point x="118" y="-50" type="curve"/>
      <point x="162" y="27" type="line"/>
      <point x="119" y="27" type="line"/>
      <point x="50" y="-81" type="line"/>
      <point x="71" y="-98" type="line"/>
      <point x="81" y="-95"/>
      <point x="94" y="-93"/>
      <point x="106" y="-93" type="curve" smooth="yes"/>
      <point x="134" y="-93"/>
      <point x="159" y="-106"/>
      <point x="159" y="-126" type="curve" smooth="yes"/>
      <point x="159" y="-153"/>
      <point x="134" y="-162"/>
      <point x="104" y="-162" type="curve" smooth="yes"/>
      <point x="68" y="-162"/>
      <point x="40" y="-147"/>
      <point x="19" y="-132" type="curve"/>
      <point x="0" y="-165" type="line"/>
      <point x="25" y="-186"/>
      <point x="67" y="-206"/>
    </contour>
  </outline>
</glyph>
<glyph name="comma.dnom" format="2">
  <advance width="172"/>
  <outline>
    <contour>
      <point x="25" y="-58" type="line"/>
      <point x="82" y="-58" type="line"/>
      <point x="147" y="91" type="line"/>
      <point x="65" y="91" type="line"/>
    </contour>
  </outline>
</glyph>
<glyph name="d.sc" format="2">
  <advance width="578"/>
  <anchor x="248" y="0" name="bottom"/>
  <anchor x="275" y="265" name="center"/>
  <anchor x="289" y="546" name="top"/>
  <outline>
    <contour>
      <point x="65" y="0" type="line"/>
      <point x="295" y="0" type="line" smooth="yes"/>
      <point x="438" y="0"/>
      <point x="546" y="116"/>
      <point x="546" y="273" type="curve" smooth="yes"/>
      <point x="546" y="429"/>
      <point x="438" y="546"/>
      <point x="295" y="546" type="curve" smooth="yes"/>
      <point x="65" y="546" type="line"/>
    </contour>
    <contour>
      <point x="140" y="73" type="line"/>
      <point x="140" y="474" type="line"/>
      <point x="293" y="474" type="line" smooth="yes"/>
      <point x="395" y="474"/>
      <point x="471" y="388"/>
      <point x="471" y="273" type="curve" smooth="yes"/>
      <point x="471" y="157"/>
      <point x="395" y="73"/>
      <point x="293" y="73" type="curve" smooth="yes"/>
    </contour>
  </outline>
</glyph>
<glyph name="eight.sups" format="2">
  <advance width="370"/>
  <outline>
    <contour>
      <point x="186" y="443" type="curve" smooth="yes"/>
      <point x="271" y="443"/>
      <point x="326" y="488"/>
      <point x="326" y="562" type="curve" smooth="yes"/>
      <point x="326" y="601"/>
      <point x="304" y="638"/>
      <point x="267" y="660" type="curve"/>
      <point x="295" y="676"/>
      <point x="312" y="704"/>
      <point x="312" y="736" type="curve" smooth="yes"/>
      <point x="312" y="800"/>
      <point x="263" y="839"/>
      <point x="186" y="839" type="curve" smooth="yes"/>
      <point x="107" y="839"/>
      <point x="58" y="800"/>
      <point x="58" y="736" type="curve" smooth="yes"/>
      <point x="58" y="704"/>
      <point x="76" y="676"/>
      <point x="103" y="660" type="curve"/>
      <point x="66" y="638"/>
      <point x="44" y="601"/>
      <point x="44" y="562" type="curve" smooth="yes"/>
      <point x="44" y="488"/>
      <point x="99" y="443"/>
    </contour>
    <contour>
      <point x="186" y="683" type="curve" smooth="yes"/>
      <point x="146" y="683"/>
      <point x="120" y="705"/>
      <point x="120" y="734" type="curve" smooth="yes"/>
      <point x="120" y="763"/>
      <point x="143" y="781"/>
      <point x="186" y="781" type="curve" smooth="yes"/>
      <point x="227" y="781"/>
      <point x="250" y="763"/>
      <point x="250" y="734" type="curve" smooth="yes"/>
      <point x="250" y="705"/>
      <point x="224" y="683"/>
    </contour>
    <contour>
      <point x="186" y="502" type="curve" smooth="yes"/>
      <point x="135" y="502"/>
      <point x="106" y="524"/>
      <point x="106" y="562" type="curve" smooth="yes"/>
      <point x="106" y="602"/>
      <point x="137" y="625"/>
      <point x="186" y="625" type="curve" smooth="yes"/>
      <point x="235" y="625"/>
      <point x="264" y="602"/>
      <point x="264" y="562" type="curve" smooth="yes"/>
      <point x="264" y="524"/>
      <point x="236" y="502"/>
    </contour>
  </outline>
</glyph>
<glyph name="eng.sc" format="2">
  <advance width="602"/>
  <anchor x="824" y="0" name="bottom"/>
  <anchor x="940" y="546" name="top"/>
  <outline>
    <contour>
      <point x="356" y="-206" type="curve" smooth="yes"/>
      <point x="469" y="-206"/>
      <point x="537" y="-134"/>
      <point x="537" y="-17" type="curve" smooth="yes"/>
      <point x="537" y="346" type="line"/>
      <point x="462" y="346" type="line"/>
      <point x="462" y="-14" type="line" smooth="yes"/>
      <point x="462" y="-94"/>
      <point x="428" y="-132"/>
      <point x="359" y="-132" type="curve" smooth="yes"/>
      <point x="298" y="-132"/>
      <point x="248" y="-96"/>
      <point x="248" y="-42" type="curve"/>
      <point x="171" y="-42" type="line"/>
      <point x="171" y="-138"/>
      <point x="252" y="-206"/>
    </contour>
    <component base="n.sc"/>
  </outline>
</glyph>
<glyph name="exclam.sc" format="2">
  <advance width="196"/>
  <outline>
    <contour>
      <point x="68" y="152" type="line"/>
      <point x="128" y="152" type="line"/>
      <point x="145" y="546" type="line"/>
      <point x="52" y="546" type="line"/>
    </contour>
    <contour>
      <point x="50" y="0" type="line"/>
      <point x="146" y="0" type="line"/>
      <point x="146" y="99" type="line"/>
      <point x="50" y="99" type="line"/>
    </contour>
  </outline>
</glyph>
<glyph name="f_j" format="2">
  <advance width="497"/>
  <anchor x="269" y="0" name="caret_1"/>
  <outline>
    <contour>
      <point x="357" y="-198" type="line"/>
      <point x="432" y="-198" type="line"/>
      <point x="432" y="500" type="line"/>
      <point x="174" y="500" type="line"/>
      <point x="174" y="538" type="line" smooth="yes"/>
      <point x="174" y="607"/>
      <point x="210" y="637"/>
      <point x="280" y="637" type="curve" smooth="yes"/>
      <point x="290" y="637" type="line"/>
      <point x="290" y="708" type="line"/>
      <point x="284" y="708" type="line" smooth="yes"/>
      <point x="169" y="708"/>
      <point x="99" y="653"/>
      <point x="99" y="544" type="curve" smooth="yes"/>
      <point x="99" y="500" type="line"/>
      <point x="13" y="500" type="line"/>
      <point x="13" y="434" type="line"/>
      <point x="99" y="434" type="line"/>
      <point x="99" y="0" type="line"/>
      <point x="174" y="0" type="line"/>
      <point x="174" y="434" type="line"/>
      <point x="357" y="434" type="line"/>
    </contour>
    <contour>
      <point x="354" y="584" type="line"/>
      <point x="435" y="584" type="line"/>
      <point x="435" y="682" type="line"/>
      <point x="354" y="682" type="line"/>
    </contour>
  </outline>
</glyph>
<glyph name="five.lf" format="2">
  <advance width="550"/>
  <outline>
    <contour>
      <point x="280" y="-8" type="curve" smooth="yes"/>
      <point x="405" y="-8"/>
      <point x="502" y="90"/>
      <point x="502" y="212" type="curve" smooth="yes"/>
      <point x="502" y="339"/>
      <point x="413" y="429"/>
      <point x="279" y="429" type="curve" smooth="yes"/>
      <point x="239" y="429"/>
      <point x="192" y="417"/>
      <point x="162" y="398" type="curve"/>
      <point x="192" y="590" type="line"/>
      <point x="469" y="590" type="line"/>
      <point x="469" y="662" type="line"/>
      <point x="124" y="662" type="line"/>
      <point x="79" y="348" type="line"/>
      <point x="148" y="306" type="line"/>
      <point x="171" y="332"/>
      <point x="220" y="359"/>
      <point x="279" y="359" type="curve" smooth="yes"/>
      <point x="366" y="359"/>
      <point x="427" y="300"/>
      <point x="427" y="212" type="curve" smooth="yes"/>
      <point x="427" y="130"/>
      <point x="367" y="65"/>
      <point x="277" y="65" type="curve" smooth="yes"/>
      <point x="179" y="65"/>
      <point x="134" y="117"/>
      <point x="119" y="166" type="curve"/>
      <point x="42" y="166" type="line"/>
      <point x="56" y="98"/>
      <point x="110" y="-8"/>
    </contour>
  </outline>
</glyph>
<glyph name="four.lf" format="2">
  <advance width="550"/>
  <outline>
    <contour>
      <point x="347" y="0" type="line"/>
      <point x="422" y="0" type="line"/>
      <point x="422" y="169" type="line"/>
      <point x="511" y="169" type="line"/>
      <point x="511" y="236" type="line"/>
      <point x="422" y="236" type="line"/>
      <point x="422" y="662" type="line"/>
      <point x="309" y="662" type="line"/>
      <point x="31" y="242" type="line"/>
      <point x="31" y="169" type="line"/>
      <point x="347" y="169" type="line"/>
    </contour>
    <contour>
      <point x="101" y="236" type="line"/>
      <point x="347" y="598" type="line"/>
      <point x="347" y="236" type="line"/>
    </contour>
  </outline>
</glyph>
<glyph name="four.sups" format="2">
  <advance width="349"/>
  <outline>
    <contour>
      <point x="273" y="605" type="line"/>
      <point x="273" y="835" type="line"/>
      <point x="193" y="835" type="line"/>
      <point x="27" y="602" type="line"/>
      <point x="27" y="547" type="line"/>
      <point x="211" y="547" type="line"/>
      <point x="211" y="449" type="line"/>
      <point x="273" y="449" type="line"/>
      <point x="273" y="547" type="line"/>
      <point x="325" y="547" type="line"/>
      <point x="325" y="605" type="line"/>
    </contour>
    <contour>
      <point x="89" y="605" type="line"/>
      <point x="211" y="776" type="line"/>
      <point x="211" y="605" type="line"/>
    </contour>
  </outline>
</glyph>
<glyph name="istroke.dotless" format="2">
  <advance width="205"/>
  <anchor x="103" y="0" name="bottom"/>
  <anchor x="149" y="0" name="ogonek"/>
  <anchor x="103" y="500" name="top"/>
  <outline>
    <contour>
      <point x="0" y="218" type="line"/>
      <point x="205" y="218" type="line"/>
      <point x="205" y="283" type="line"/>
      <point x="0" y="283" type="line"/>
    </contour>
    <component base="idotless"/>
  </outline>
</glyph>
<glyph name="kgreenlandic.sc" format="2">
  <advance width="509"/>
  <outline>
    <contour>
      <point x="65" y="0" type="line"/>
      <point x="140" y="0" type="line"/>
      <point x="140" y="160" type="line"/>
      <point x="229" y="243" type="line"/>
      <point x="414" y="0" type="line"/>
      <point x="508" y="0" type="line"/>
      <point x="284" y="294" type="line"/>
      <point x="502" y="500" type="line"/>
      <point x="395" y="500" type="line"/>
      <point x="140" y="259" type="line"/>
      <point x="140" y="500" type="line"/>
      <point x="65" y="500" type="line"/>
    </contour>
  </outline>
</glyph>
<glyph name="l.sc" format="2">
  <advance width="459"/>
  <anchor x="236" y="0" name="bottom"/>
  <anchor x="221" y="265" name="center"/>
  <anchor x="101" y="546" name="top"/>
  <anchor x="418" y="546" name="topright"/>
  <outline>
    <contour>
      <point x="65" y="0" type="line"/>
      <point x="429" y="0" type="line"/>
      <point x="429" y="74" type="line"/>
      <point x="140" y="74" type="line"/>
      <point x="140" y="546" type="line"/>
      <point x="65" y="546" type="line"/>
    </contour>
  </outline>
</glyph>
<glyph name="lslash.sc" format="2">
  <advance width="459"/>
  <anchor x="236" y="0" name="bottom"/>
  <anchor x="221" y="265" name="center"/>
  <anchor x="101" y="546" name="top"/>
  <anchor x="418" y="546" name="topright"/>
  <outline>
    <contour>
      <point x="341" y="409" type="line"/>
      <point x="7" y="235" type="line"/>
      <point x="7" y="162" type="line"/>
      <point x="341" y="336" type="line"/>
    </contour>
    <component base="l.sc"/>
  </outline>
</glyph>
<glyph name="nine.sups" format="2">
  <advance width="359"/>
  <outline>
    <contour>
      <point x="178" y="839" type="curve" smooth="yes"/>
      <point x="89" y="839"/>
      <point x="45" y="773"/>
      <point x="44" y="708" type="curve" smooth="yes"/>
      <point x="44" y="644"/>
      <point x="89" y="580"/>
      <point x="176" y="580" type="curve" smooth="yes"/>
      <point x="207" y="580"/>
      <point x="235" y="593"/>
      <point x="259" y="616" type="curve"/>
      <point x="259" y="539"/>
      <point x="223" y="501"/>
      <point x="174" y="501" type="curve" smooth="yes"/>
      <point x="141" y="501"/>
      <point x="121" y="517"/>
      <point x="112" y="552" type="curve"/>
      <point x="45" y="552" type="line"/>
      <point x="55" y="482"/>
      <point x="105" y="443"/>
      <point x="174" y="444" type="curve" smooth="yes"/>
      <point x="266" y="443"/>
      <point x="322" y="510"/>
      <point x="322" y="641" type="curve" smooth="yes"/>
      <point x="322" y="775"/>
      <point x="271" y="839"/>
    </contour>
    <contour>
      <point x="178" y="780" type="curve" smooth="yes"/>
      <point x="226" y="780"/>
      <point x="251" y="744"/>
      <point x="250" y="708" type="curve" smooth="yes"/>
      <point x="250" y="673"/>
      <point x="227" y="639"/>
      <point x="178" y="639" type="curve" smooth="yes"/>
      <point x="130" y="639"/>
      <point x="107" y="674"/>
      <point x="106" y="709" type="curve" smooth="yes"/>
      <point x="106" y="745"/>
      <point x="130" y="780"/>
    </contour>
  </outline>
</glyph>
<glyph name="ogonekcomb.case" format="2">
  <anchor x="182" y="2" name="_ogonek"/>
  <outline>
    <contour>
      <point x="0" y="-123" type="curve" smooth="yes"/>
      <point x="0" y="-178"/>
      <point x="48" y="-206"/>
      <point x="97" y="-206" type="curve" smooth="yes"/>
      <point x="125" y="-206"/>
      <point x="153" y="-198"/>
      <point x="173" y="-182" type="curve"/>
      <point x="173" y="-143" type="line"/>
      <point x="163" y="-150"/>
      <point x="150" y="-154"/>
      <point x="137" y="-154" type="curve" smooth="yes"/>
      <point x="107" y="-154"/>
      <point x="77" y="-136"/>
      <point x="77" y="-104" type="curve" smooth="yes"/>
      <point x="77" y="-54"/>
      <point x="142" y="-19"/>
      <point x="172" y="0" type="curve"/>
      <point x="116" y="0" type="line"/>
      <point x="69" y="-22"/>
      <point x="0" y="-55"/>
    </contour>
  </outline>
</glyph>
<glyph name="ohorn.sc" format="2">
  <advance width="615"/>
  <anchor x="648" y="545" name="_topright"/>
  <anchor x="298" y="0" name="bottom"/>
  <anchor x="318" y="546" name="top"/>
  <anchor x="307" y="273" name="center"/>
  <anchor x="401" y="0" name="ogonek"/>
  <anchor x="23" y="546" name="topleft"/>
  <anchor x="648" y="545" name="topright"/>
  <outline>
    <contour>
      <point x="520" y="661" type="line"/>
      <point x="520" y="586"/>
      <point x="486" y="552"/>
      <point x="436" y="552" type="curve" smooth="yes"/>
      <point x="318" y="552" type="line"/>
      <point x="416" y="477" type="line"/>
      <point x="436" y="477" type="line" smooth="yes"/>
      <point x="530" y="477"/>
      <point x="595" y="540"/>
      <point x="595" y="661" type="curve"/>
    </contour>
    <component base="o.sc"/>
  </outline>
</glyph>
<glyph name="one.sups" format="2">
  <advance width="319"/>
  <outline>
    <contour>
      <point x="137" y="449" type="line"/>
      <point x="199" y="449" type="line"/>
      <point x="199" y="835" type="line"/>
      <point x="55" y="835" type="line"/>
      <point x="55" y="775" type="line"/>
      <point x="137" y="775" type="line"/>
    </contour>
  </outline>
</glyph>
<glyph name="oogonek.sc" format="2">
  <advance width="615"/>
  <anchor x="307" y="0" name="bottom"/>
  <anchor x="307" y="273" name="center"/>
  <anchor x="401" y="0" name="ogonek"/>
  <anchor x="307" y="546" name="top"/>
  <anchor x="23" y="546" name="topleft"/>
  <anchor x="648" y="545" name="topright"/>
  <outline>
    <contour>
      <point x="219" y="-123" type="curve" smooth="yes"/>
      <point x="219" y="-178"/>
      <point x="267" y="-206"/>
      <point x="316" y="-206" type="curve" smooth="yes"/>
      <point x="344" y="-206"/>
      <point x="372" y="-198"/>
      <point x="392" y="-182" type="curve"/>
      <point x="392" y="-143" type="line"/>
      <point x="382" y="-150"/>
      <point x="369" y="-154"/>
      <point x="356" y="-154" type="curve" smooth="yes"/>
      <point x="326" y="-154"/>
      <point x="296" y="-136"/>
      <point x="296" y="-104" type="curve" smooth="yes"/>
      <point x="296" y="-54"/>
      <point x="370" y="-7"/>
      <point x="406" y="11" type="curve"/>
      <point x="335" y="0" type="line"/>
      <point x="288" y="-22"/>
      <point x="219" y="-55"/>
    </contour>
    <component base="o.sc"/>
  </outline>
</glyph>
<glyph name="period.numr" format="2">
  <advance width="138"/>
  <outline>
    <contour>
      <point x="25" y="276" type="line"/>
      <point x="113" y="276" type="line"/>
      <point x="113" y="367" type="line"/>
      <point x="25" y="367" type="line"/>
    </contour>
  </outline>
</glyph>
<glyph name="q.sc" format="2">
  <advance width="617"/>
  <anchor x="307" y="0" name="bottom"/>
  <anchor x="307" y="546" name="top"/>
  <outline>
    <contour>
      <point x="484" y="-126" type="curve" smooth="yes"/>
      <point x="537" y="-126"/>
      <point x="583" y="-109"/>
      <point x="623" y="-75" type="curve"/>
      <point x="582" y="-19" type="line"/>
      <point x="552" y="-46"/>
      <point x="520" y="-59"/>
      <point x="484" y="-59" type="curve" smooth="yes"/>
      <point x="434" y="-59"/>
      <point x="393" y="-37"/>
      <point x="368" y="1" type="curve"/>
      <point x="496" y="27"/>
      <point x="584" y="137"/>
      <point x="584" y="273" type="curve" smooth="yes"/>
      <point x="584" y="432"/>
      <point x="466" y="552"/>
      <point x="307" y="552" type="curve" smooth="yes"/>
      <point x="148" y="552"/>
      <point x="31" y="433"/>
      <point x="31" y="273" type="curve" smooth="yes"/>
      <point x="31" y="119"/>
      <point x="139" y="3"/>
      <point x="291" y="-5" type="curve"/>
      <point x="328" y="-78"/>
      <point x="404" y="-126"/>
    </contour>
    <contour>
      <point x="307" y="68" type="curve" smooth="yes"/>
      <point x="188" y="68"/>
      <point x="106" y="152"/>
      <point x="106" y="273" type="curve" smooth="yes"/>
      <point x="106" y="394"/>
      <point x="188" y="479"/>
      <point x="307" y="479" type="curve" smooth="yes"/>
      <point x="425" y="479"/>
      <point x="509" y="394"/>
      <point x="509" y="273" type="curve" smooth="yes"/>
      <point x="509" y="152"/>
      <point x="425" y="68"/>
    </contour>
  </outline>
</glyph>
